<svg xmlns="http://www.w3.org/2000/svg" width="400" height="435" viewBox="0 0 400 435" fill="none"><path d="M327.304 82.3999C307.4 37.0159 259.624 19.9279 221.928 50.3999C207.208 62.2879 198.024 81.2079 180 88.7999C163.088 95.9199 141.664 93.8239 123.376 97.6799C84.432 105.84 32 136.8 36 184.504C37.752 205.4 51.848 228.608 58.816 248.16C66.816 270.656 71.616 298.8 92.792 312.248C129.096 335.336 172.888 316.464 205.592 297.848C223.192 287.84 232.88 281.688 251.832 285.12C269.376 288.32 285.176 299.52 302.32 286.232C315.192 276.256 316.256 256.04 327.064 244.168C339.24 230.792 351.584 229.824 357.912 209.72C365.584 185.328 354.28 170.088 346.64 148.296C339 126.504 336.68 103.752 327.304 82.3999Z" fill="#E5F5F7"></path><path d="M175.848 350.144C244.146 350.144 299.512 346.695 299.512 342.44C299.512 338.185 244.146 334.736 175.848 334.736C107.55 334.736 52.1841 338.185 52.1841 342.44C52.1841 346.695 107.55 350.144 175.848 350.144Z" fill="#00A0AD"></path><path opacity="0.8" d="M175.848 350.144C244.146 350.144 299.512 346.695 299.512 342.44C299.512 338.185 244.146 334.736 175.848 334.736C107.55 334.736 52.1841 338.185 52.1841 342.44C52.1841 346.695 107.55 350.144 175.848 350.144Z" fill="white"></path><path d="M268.776 49.488H144.432C135.847 49.488 128.888 56.4473 128.888 65.032V327.544C128.888 336.129 135.847 343.088 144.432 343.088H268.776C277.361 343.088 284.32 336.129 284.32 327.544V65.032C284.32 56.4473 277.361 49.488 268.776 49.488Z" fill="#333333"></path><path d="M277.408 81.728H135.792V310.848H277.408V81.728Z" fill="white" stroke="#333333" stroke-width="1.33739" stroke-miterlimit="10"></path><path d="M228.309 174.505C240.297 162.518 240.297 143.082 228.309 131.095C216.322 119.107 196.886 119.107 184.899 131.095C172.911 143.082 172.911 162.518 184.899 174.505C196.886 186.493 216.322 186.493 228.309 174.505Z" fill="#00A0AD"></path><path d="M246.904 296.44H166.312C166.131 296.441 165.951 296.406 165.783 296.338C165.615 296.269 165.463 296.168 165.334 296.04C165.205 295.912 165.103 295.76 165.034 295.593C164.964 295.425 164.928 295.246 164.928 295.064C164.927 294.882 164.962 294.702 165.031 294.533C165.101 294.365 165.203 294.212 165.331 294.083C165.46 293.954 165.613 293.853 165.781 293.783C165.95 293.714 166.13 293.679 166.312 293.68H246.904C247.086 293.68 247.265 293.716 247.433 293.786C247.6 293.855 247.752 293.957 247.88 294.086C248.008 294.215 248.109 294.367 248.178 294.535C248.246 294.703 248.281 294.883 248.28 295.064C248.28 295.429 248.135 295.779 247.877 296.037C247.619 296.295 247.269 296.44 246.904 296.44Z" fill="#00A0AD"></path><path d="M249.528 200.752H163.68C161.908 200.752 160.472 202.188 160.472 203.96V214.08C160.472 215.852 161.908 217.288 163.68 217.288H249.528C251.3 217.288 252.736 215.852 252.736 214.08V203.96C252.736 202.188 251.3 200.752 249.528 200.752Z" fill="#00A0AD"></path><path d="M249.528 231.68H163.68C161.908 231.68 160.472 233.116 160.472 234.888V245.008C160.472 246.78 161.908 248.216 163.68 248.216H249.528C251.3 248.216 252.736 246.78 252.736 245.008V234.888C252.736 233.116 251.3 231.68 249.528 231.68Z" fill="#00A0AD"></path><path d="M221.888 168.112L212.856 162.912V158.616C214.164 157.034 215.111 155.186 215.632 153.2C215.943 153.31 216.27 153.367 216.6 153.368C217.72 153.368 218.432 149.896 218.552 147.416C219.856 144.656 218.08 143.04 218.08 143.04C218.08 143.04 218.816 142.304 219.304 139.352C219.792 136.4 217.584 137.632 215.864 134.928C214.144 132.224 212.912 129.28 207.264 129.28C205.708 129.229 204.172 129.647 202.857 130.48C201.541 131.314 200.507 132.523 199.888 133.952C198.482 133.957 197.081 134.121 195.712 134.44C193.984 134.928 193.496 140.584 194.968 142.8C195.627 144.011 195.979 145.365 195.992 146.744C195.6 146.264 195.192 146.136 194.968 147.224C194.48 149.68 196.448 153.12 196.448 153.12L197.464 152.832C197.976 154.954 198.964 156.932 200.352 158.616V162.912L191.32 168.112C190.265 168.721 189.389 169.597 188.78 170.651C188.17 171.706 187.849 172.902 187.848 174.12V177.096C193.22 181.246 199.816 183.497 206.604 183.497C213.392 183.497 219.988 181.246 225.36 177.096V174.12C225.361 172.902 225.04 171.705 224.431 170.65C223.821 169.595 222.944 168.72 221.888 168.112Z" fill="white"></path><g style="mix-blend-mode:multiply"><path d="M277.408 82.032H135.792V90.904H277.408V82.032Z" fill="#00A0AD"></path></g><path d="M222 65.6881H191.2C190.644 65.6881 190.111 65.4673 189.718 65.0742C189.325 64.6811 189.104 64.148 189.104 63.5921C189.104 63.0362 189.325 62.5031 189.718 62.11C190.111 61.7169 190.644 61.4961 191.2 61.4961H222C222.556 61.4961 223.089 61.7169 223.482 62.11C223.875 62.5031 224.096 63.0362 224.096 63.5921C224.096 64.148 223.875 64.6811 223.482 65.0742C223.089 65.4673 222.556 65.6881 222 65.6881Z" fill="#00A0AD" stroke="#333333" stroke-width="1.33739" stroke-linecap="round" stroke-linejoin="round"></path><path d="M215 323.792C215.002 322.13 214.51 320.505 213.588 319.122C212.665 317.74 211.354 316.662 209.818 316.025C208.283 315.388 206.594 315.221 204.963 315.545C203.333 315.869 201.836 316.669 200.66 317.844C199.485 319.02 198.685 320.517 198.361 322.147C198.037 323.777 198.204 325.467 198.841 327.002C199.478 328.538 200.556 329.849 201.938 330.772C203.321 331.694 204.946 332.186 206.608 332.184C208.833 332.182 210.967 331.297 212.54 329.724C214.113 328.15 214.998 326.017 215 323.792Z" fill="#00A0AD"></path><path d="M210.864 319.536H202.352V328.048H210.864V319.536Z" fill="#00A0AD" stroke="#333333" stroke-width="1.33739" stroke-linecap="round" stroke-linejoin="round"></path><path d="M308 227.2C308 227.2 296.848 198.864 306.776 195.496C317.112 191.984 316.656 210.696 316.256 219.816C315.416 239.304 313.264 242.928 311.656 238.168L308 227.2ZM304.648 249.304C307.712 253.304 308.576 249.16 303.048 230.448C300.456 221.648 294.824 203.848 286.184 210.528C277.888 216.928 297.632 240.128 297.632 240.128L304.648 249.304ZM298.728 265.544C301.648 268.136 301.704 264.864 294.768 251.352C291.512 245.024 284.624 232.216 278.984 238.552C273.568 244.664 292.024 259.52 292.024 259.52L298.728 265.544ZM292.328 284.856C295.248 287.456 295.304 284.176 288.368 270.672C285.112 264.344 278.224 251.528 272.584 257.872C267.2 264 285.6 278.856 285.6 278.856L292.328 284.856ZM310.808 245.544C306.136 247.368 309.848 249.352 329.36 249.296C338.512 249.296 357.2 248.88 353.216 238.712C349.4 228.944 321.608 241.384 321.608 241.384L310.808 245.544ZM305.488 258.536C300.544 259.392 303.792 262.08 322.928 265.904C331.896 267.704 350.288 271.024 348.408 260.304C346.608 249.968 316.896 256.64 316.896 256.64L305.488 258.536ZM299.536 274.4C295.328 275.008 298.016 277.352 314.104 281.032C321.648 282.76 337.128 286 335.784 276.856C334.504 268.056 309.224 273.032 309.224 273.032L299.536 274.4ZM295.016 289.096C290.896 290.144 293.816 292.192 310.216 294.144C317.896 295.056 333.632 296.64 331.336 287.688C329.12 279.096 304.512 286.704 304.512 286.704L295.016 289.096ZM319.128 229.6C316.728 234.976 321.712 234.16 338.656 219.376C346.592 212.44 362.512 197.928 349.904 190.704C337.8 183.76 324.784 217.264 324.784 217.264L319.128 229.6ZM295.64 308.24C293.104 309.72 295.592 310.296 307.224 307.976C312.68 306.896 323.776 304.496 320.024 299.76C316.392 295.2 301.512 304.8 301.512 304.8L295.64 308.24Z" fill="#00A0AD"></path><path opacity="0.3" d="M308 227.2C308 227.2 296.848 198.864 306.776 195.496C317.112 191.984 316.656 210.696 316.256 219.816C315.416 239.304 313.264 242.928 311.656 238.168L308 227.2ZM304.648 249.304C307.712 253.304 308.576 249.16 303.048 230.448C300.456 221.648 294.824 203.848 286.184 210.528C277.888 216.928 297.632 240.128 297.632 240.128L304.648 249.304ZM298.728 265.544C301.648 268.136 301.704 264.864 294.768 251.352C291.512 245.024 284.624 232.216 278.984 238.552C273.568 244.664 292.024 259.52 292.024 259.52L298.728 265.544ZM292.328 284.856C295.248 287.456 295.304 284.176 288.368 270.672C285.112 264.344 278.224 251.528 272.584 257.872C267.2 264 285.6 278.856 285.6 278.856L292.328 284.856ZM310.808 245.544C306.136 247.368 309.848 249.352 329.36 249.296C338.512 249.296 357.2 248.88 353.216 238.712C349.4 228.944 321.608 241.384 321.608 241.384L310.808 245.544ZM305.488 258.536C300.544 259.392 303.792 262.08 322.928 265.904C331.896 267.704 350.288 271.024 348.408 260.304C346.608 249.968 316.896 256.64 316.896 256.64L305.488 258.536ZM299.536 274.4C295.328 275.008 298.016 277.352 314.104 281.032C321.648 282.76 337.128 286 335.784 276.856C334.504 268.056 309.224 273.032 309.224 273.032L299.536 274.4ZM295.016 289.096C290.896 290.144 293.816 292.192 310.216 294.144C317.896 295.056 333.632 296.64 331.336 287.688C329.12 279.096 304.512 286.704 304.512 286.704L295.016 289.096ZM319.128 229.6C316.728 234.976 321.712 234.16 338.656 219.376C346.592 212.44 362.512 197.928 349.904 190.704C337.8 183.76 324.784 217.264 324.784 217.264L319.128 229.6ZM295.64 308.24C293.104 309.72 295.592 310.296 307.224 307.976C312.68 306.896 323.776 304.496 320.024 299.76C316.392 295.2 301.512 304.8 301.512 304.8L295.64 308.24Z" fill="white"></path><path d="M312.92 240.392L310.976 208.048L312.92 240.392ZM306.768 251.064L294.48 223.248L306.768 251.064ZM338.48 242.976L309.032 247.2L338.48 242.976ZM300.4 266.056L284.456 245.6L300.4 266.056ZM303.2 259.784L325.168 260.888L303.2 259.784ZM298 275.472L314.8 277.136L298 275.472ZM293.944 285.44L285.6 272.888L293.944 285.44ZM292.984 289.872L312.736 290.056L292.984 289.872ZM288.984 326.928C289.116 326.918 289.239 326.856 289.326 326.755C289.413 326.655 289.457 326.525 289.448 326.392C288.192 307.528 295.488 276.632 307.192 251.272C314.672 235.064 343.992 203.208 344.304 202.888C344.398 202.794 344.451 202.666 344.451 202.532C344.451 202.399 344.398 202.271 344.304 202.176C344.258 202.13 344.203 202.093 344.143 202.068C344.082 202.042 344.017 202.03 343.952 202.03C343.887 202.03 343.822 202.042 343.761 202.068C343.701 202.093 343.646 202.13 343.6 202.176C343.304 202.496 313.864 234.472 306.32 250.824C294.4 276.8 287.2 307.136 288.48 326.456C288.49 326.583 288.547 326.702 288.64 326.79C288.734 326.877 288.856 326.926 288.984 326.928ZM312.912 240.888C313.044 240.88 313.168 240.82 313.256 240.721C313.345 240.622 313.391 240.492 313.384 240.36L311.472 208C311.469 207.934 311.453 207.87 311.424 207.81C311.396 207.751 311.356 207.697 311.307 207.653C311.258 207.609 311.201 207.576 311.138 207.554C311.076 207.533 311.01 207.524 310.944 207.528C310.812 207.536 310.688 207.596 310.6 207.695C310.511 207.794 310.465 207.924 310.472 208.056L312.416 240.4C312.422 240.527 312.477 240.648 312.57 240.735C312.662 240.823 312.785 240.872 312.912 240.872V240.888ZM306.944 251.52C307.064 251.466 307.158 251.367 307.206 251.244C307.253 251.122 307.251 250.985 307.2 250.864L294.904 223.048C294.851 222.927 294.752 222.832 294.629 222.784C294.506 222.736 294.369 222.739 294.248 222.792C294.127 222.845 294.032 222.944 293.984 223.067C293.936 223.19 293.939 223.327 293.992 223.448L306.28 251.264C306.319 251.353 306.382 251.43 306.463 251.483C306.544 251.537 306.639 251.567 306.736 251.568C306.819 251.572 306.901 251.556 306.976 251.52H306.944ZM309.072 247.68L338.504 243.472C338.575 243.471 338.645 243.454 338.709 243.424C338.774 243.393 338.831 243.35 338.877 243.296C338.923 243.241 338.957 243.178 338.977 243.11C338.997 243.042 339.003 242.97 338.993 242.9C338.983 242.829 338.959 242.762 338.921 242.701C338.884 242.641 338.834 242.589 338.775 242.55C338.716 242.51 338.649 242.483 338.579 242.471C338.509 242.459 338.437 242.462 338.368 242.48L308.936 246.688C308.804 246.697 308.682 246.757 308.595 246.856C308.508 246.955 308.464 247.085 308.472 247.216C308.48 247.348 308.541 247.47 308.64 247.557C308.739 247.644 308.868 247.689 309 247.68H309.072ZM300.68 266.456C300.785 266.374 300.852 266.254 300.869 266.122C300.885 265.99 300.849 265.857 300.768 265.752L284.816 245.256C284.734 245.15 284.614 245.081 284.481 245.063C284.348 245.046 284.214 245.082 284.108 245.164C284.002 245.246 283.933 245.366 283.915 245.499C283.898 245.632 283.934 245.766 284.016 245.872L300 266.4C300.046 266.46 300.106 266.508 300.174 266.542C300.242 266.575 300.316 266.592 300.392 266.592C300.511 266.586 300.625 266.538 300.712 266.456H300.68ZM325.608 260.912C325.612 260.78 325.564 260.651 325.475 260.554C325.385 260.456 325.26 260.398 325.128 260.392L303.2 259.28C303.077 259.289 302.961 259.342 302.875 259.43C302.788 259.518 302.737 259.635 302.731 259.759C302.725 259.882 302.765 260.003 302.842 260.099C302.92 260.196 303.03 260.26 303.152 260.28L325.12 261.392C325.252 261.396 325.381 261.349 325.478 261.259C325.576 261.169 325.634 261.044 325.64 260.912H325.608ZM315.264 277.184C315.272 277.118 315.266 277.052 315.248 276.988C315.229 276.924 315.198 276.865 315.157 276.814C315.115 276.762 315.063 276.719 315.005 276.688C314.946 276.657 314.882 276.638 314.816 276.632L298.016 274.976C297.951 274.969 297.885 274.976 297.822 274.995C297.76 275.014 297.701 275.045 297.651 275.087C297.6 275.128 297.558 275.18 297.528 275.238C297.497 275.295 297.478 275.359 297.472 275.424C297.461 275.555 297.501 275.686 297.585 275.787C297.669 275.889 297.789 275.954 297.92 275.968L314.72 277.632H314.768C314.897 277.641 315.024 277.599 315.123 277.515C315.222 277.432 315.284 277.313 315.296 277.184H315.264ZM294.184 285.856C294.295 285.783 294.373 285.668 294.4 285.538C294.427 285.407 294.401 285.272 294.328 285.16L286.024 272.608C285.948 272.5 285.833 272.425 285.703 272.4C285.574 272.375 285.439 272.401 285.328 272.472C285.217 272.546 285.139 272.66 285.112 272.79C285.085 272.921 285.111 273.057 285.184 273.168L293.488 285.72C293.535 285.789 293.599 285.845 293.673 285.884C293.746 285.923 293.829 285.944 293.912 285.944C294.02 285.95 294.128 285.919 294.216 285.856H294.184ZM313.24 290.056C313.238 289.924 313.185 289.799 313.093 289.705C313.001 289.611 312.876 289.556 312.744 289.552L292.992 289.368C292.86 289.368 292.734 289.42 292.641 289.513C292.548 289.606 292.496 289.733 292.496 289.864C292.494 289.93 292.505 289.996 292.529 290.058C292.553 290.119 292.59 290.175 292.636 290.222C292.682 290.27 292.738 290.307 292.799 290.332C292.86 290.357 292.926 290.369 292.992 290.368L312.744 290.552C312.812 290.555 312.879 290.545 312.942 290.522C313.006 290.498 313.064 290.462 313.113 290.416C313.162 290.37 313.202 290.314 313.229 290.252C313.256 290.19 313.271 290.124 313.272 290.056H313.24ZM286.736 319.592C286.776 319.504 290.144 310.224 300.272 308.008C300.402 307.979 300.516 307.9 300.588 307.788C300.66 307.675 300.685 307.539 300.656 307.408C300.624 307.28 300.543 307.17 300.431 307.1C300.32 307.03 300.185 307.005 300.056 307.032C289.376 309.368 285.832 319.168 285.792 319.264C285.751 319.39 285.76 319.528 285.819 319.647C285.877 319.767 285.979 319.859 286.104 319.904H286.264C286.37 319.913 286.477 319.888 286.568 319.832C286.659 319.775 286.729 319.691 286.768 319.592H286.736ZM288.984 326.928C289.116 326.918 289.239 326.856 289.326 326.755C289.413 326.655 289.457 326.525 289.448 326.392C288.192 307.528 295.488 276.632 307.192 251.272C314.672 235.064 343.992 203.208 344.304 202.888C344.398 202.794 344.451 202.666 344.451 202.532C344.451 202.399 344.398 202.271 344.304 202.176C344.258 202.13 344.203 202.093 344.143 202.068C344.082 202.042 344.017 202.03 343.952 202.03C343.887 202.03 343.822 202.042 343.761 202.068C343.701 202.093 343.646 202.13 343.6 202.176C343.304 202.496 313.864 234.472 306.32 250.824C294.4 276.8 287.2 307.136 288.48 326.456C288.49 326.583 288.547 326.702 288.64 326.79C288.734 326.877 288.856 326.926 288.984 326.928ZM312.912 240.888C313.044 240.88 313.168 240.82 313.256 240.721C313.345 240.622 313.391 240.492 313.384 240.36L311.472 208C311.469 207.934 311.453 207.87 311.424 207.81C311.396 207.751 311.356 207.697 311.307 207.653C311.258 207.609 311.201 207.576 311.138 207.554C311.076 207.533 311.01 207.524 310.944 207.528C310.812 207.536 310.688 207.596 310.6 207.695C310.511 207.794 310.465 207.924 310.472 208.056L312.416 240.4C312.422 240.527 312.477 240.648 312.57 240.735C312.662 240.823 312.785 240.872 312.912 240.872V240.888ZM306.944 251.52C307.064 251.466 307.158 251.367 307.206 251.244C307.253 251.122 307.251 250.985 307.2 250.864L294.904 223.048C294.851 222.927 294.752 222.832 294.629 222.784C294.506 222.736 294.369 222.739 294.248 222.792C294.127 222.845 294.032 222.944 293.984 223.067C293.936 223.19 293.939 223.327 293.992 223.448L306.28 251.264C306.319 251.353 306.382 251.43 306.463 251.483C306.544 251.537 306.639 251.567 306.736 251.568C306.819 251.572 306.901 251.556 306.976 251.52H306.944ZM309.072 247.68L338.504 243.472C338.575 243.471 338.645 243.454 338.709 243.424C338.774 243.393 338.831 243.35 338.877 243.296C338.923 243.241 338.957 243.178 338.977 243.11C338.997 243.042 339.003 242.97 338.993 242.9C338.983 242.829 338.959 242.762 338.921 242.701C338.884 242.641 338.834 242.589 338.775 242.55C338.716 242.51 338.649 242.483 338.579 242.471C338.509 242.459 338.437 242.462 338.368 242.48L308.936 246.688C308.804 246.697 308.682 246.757 308.595 246.856C308.508 246.955 308.464 247.085 308.472 247.216C308.48 247.348 308.541 247.47 308.64 247.557C308.739 247.644 308.868 247.689 309 247.68H309.072ZM300.68 266.456C300.785 266.374 300.852 266.254 300.869 266.122C300.885 265.99 300.849 265.857 300.768 265.752L284.816 245.256C284.776 245.204 284.725 245.16 284.668 245.126C284.61 245.093 284.547 245.072 284.481 245.063C284.415 245.055 284.349 245.059 284.285 245.077C284.221 245.094 284.161 245.124 284.108 245.164C284.055 245.205 284.011 245.255 283.978 245.312C283.945 245.37 283.924 245.433 283.915 245.499C283.907 245.565 283.911 245.632 283.929 245.696C283.946 245.76 283.976 245.82 284.016 245.872L300 266.4C300.046 266.46 300.106 266.508 300.174 266.542C300.242 266.575 300.316 266.592 300.392 266.592C300.511 266.586 300.625 266.538 300.712 266.456H300.68ZM325.608 260.912C325.612 260.78 325.564 260.651 325.475 260.554C325.385 260.456 325.26 260.398 325.128 260.392L303.2 259.28C303.077 259.289 302.961 259.342 302.875 259.43C302.788 259.518 302.737 259.635 302.731 259.759C302.725 259.882 302.765 260.003 302.842 260.099C302.92 260.196 303.03 260.26 303.152 260.28L325.12 261.392C325.252 261.396 325.381 261.349 325.478 261.259C325.576 261.169 325.634 261.044 325.64 260.912H325.608ZM315.264 277.184C315.272 277.118 315.266 277.052 315.248 276.988C315.229 276.924 315.198 276.865 315.157 276.814C315.115 276.762 315.063 276.719 315.005 276.688C314.946 276.657 314.882 276.638 314.816 276.632L298.016 274.976C297.951 274.969 297.885 274.976 297.822 274.995C297.76 275.014 297.701 275.045 297.651 275.087C297.6 275.128 297.558 275.18 297.528 275.238C297.497 275.295 297.478 275.359 297.472 275.424C297.461 275.555 297.501 275.686 297.585 275.787C297.669 275.889 297.789 275.954 297.92 275.968L314.72 277.632H314.768C314.897 277.641 315.024 277.599 315.123 277.515C315.222 277.432 315.284 277.313 315.296 277.184H315.264ZM294.184 285.856C294.295 285.783 294.373 285.668 294.4 285.538C294.427 285.407 294.401 285.272 294.328 285.16L286.024 272.608C285.948 272.5 285.833 272.425 285.703 272.4C285.574 272.375 285.439 272.401 285.328 272.472C285.217 272.546 285.139 272.66 285.112 272.79C285.085 272.921 285.111 273.057 285.184 273.168L293.488 285.72C293.535 285.789 293.599 285.845 293.673 285.884C293.746 285.923 293.829 285.944 293.912 285.944C294.02 285.95 294.128 285.919 294.216 285.856H294.184ZM313.24 290.056C313.238 289.924 313.185 289.799 313.093 289.705C313.001 289.611 312.876 289.556 312.744 289.552L292.992 289.368C292.86 289.368 292.734 289.42 292.641 289.513C292.548 289.606 292.496 289.733 292.496 289.864C292.494 289.93 292.505 289.996 292.529 290.058C292.553 290.119 292.59 290.175 292.636 290.222C292.682 290.27 292.738 290.307 292.799 290.332C292.86 290.357 292.926 290.369 292.992 290.368L312.744 290.552C312.812 290.555 312.879 290.545 312.942 290.522C313.006 290.498 313.064 290.462 313.113 290.416C313.162 290.37 313.202 290.314 313.229 290.252C313.256 290.19 313.271 290.124 313.272 290.056H313.24ZM286.736 319.592C286.776 319.504 290.144 310.224 300.272 308.008C300.402 307.979 300.516 307.9 300.588 307.788C300.66 307.675 300.685 307.539 300.656 307.408C300.624 307.28 300.543 307.17 300.431 307.1C300.32 307.03 300.185 307.005 300.056 307.032C289.376 309.368 285.832 319.168 285.792 319.264C285.751 319.39 285.76 319.528 285.819 319.647C285.877 319.767 285.979 319.859 286.104 319.904H286.264C286.37 319.913 286.477 319.888 286.568 319.832C286.659 319.775 286.729 319.691 286.768 319.592H286.736Z" fill="#00A0AD"></path><path opacity="0.2" d="M312.92 240.392L310.976 208.048L312.92 240.392ZM306.768 251.064L294.48 223.248L306.768 251.064ZM338.48 242.976L309.032 247.2L338.48 242.976ZM300.4 266.056L284.456 245.6L300.4 266.056ZM303.2 259.784L325.168 260.888L303.2 259.784ZM298 275.472L314.8 277.136L298 275.472ZM293.944 285.44L285.6 272.888L293.944 285.44ZM292.984 289.872L312.736 290.056L292.984 289.872ZM288.984 326.928C289.116 326.918 289.239 326.856 289.326 326.755C289.413 326.655 289.457 326.525 289.448 326.392C288.192 307.528 295.488 276.632 307.192 251.272C314.672 235.064 343.992 203.208 344.304 202.888C344.398 202.794 344.451 202.666 344.451 202.532C344.451 202.399 344.398 202.271 344.304 202.176C344.258 202.13 344.203 202.093 344.143 202.068C344.082 202.042 344.017 202.03 343.952 202.03C343.887 202.03 343.822 202.042 343.761 202.068C343.701 202.093 343.646 202.13 343.6 202.176C343.304 202.496 313.864 234.472 306.32 250.824C294.4 276.8 287.2 307.136 288.48 326.456C288.49 326.583 288.547 326.702 288.64 326.79C288.734 326.877 288.856 326.926 288.984 326.928ZM312.912 240.888C313.044 240.88 313.168 240.82 313.256 240.721C313.345 240.622 313.391 240.492 313.384 240.36L311.472 208C311.469 207.934 311.453 207.87 311.424 207.81C311.396 207.751 311.356 207.697 311.307 207.653C311.258 207.609 311.201 207.576 311.138 207.554C311.076 207.533 311.01 207.524 310.944 207.528C310.812 207.536 310.688 207.596 310.6 207.695C310.511 207.794 310.465 207.924 310.472 208.056L312.416 240.4C312.422 240.527 312.477 240.648 312.57 240.735C312.662 240.823 312.785 240.872 312.912 240.872V240.888ZM306.944 251.52C307.064 251.466 307.158 251.367 307.206 251.244C307.253 251.122 307.251 250.985 307.2 250.864L294.904 223.048C294.851 222.927 294.752 222.832 294.629 222.784C294.506 222.736 294.369 222.739 294.248 222.792C294.127 222.845 294.032 222.944 293.984 223.067C293.936 223.19 293.939 223.327 293.992 223.448L306.28 251.264C306.319 251.353 306.382 251.43 306.463 251.483C306.544 251.537 306.639 251.567 306.736 251.568C306.819 251.572 306.901 251.556 306.976 251.52H306.944ZM309.072 247.68L338.504 243.472C338.575 243.471 338.645 243.454 338.709 243.424C338.774 243.393 338.831 243.35 338.877 243.296C338.923 243.241 338.957 243.178 338.977 243.11C338.997 243.042 339.003 242.97 338.993 242.9C338.983 242.829 338.959 242.762 338.921 242.701C338.884 242.641 338.834 242.589 338.775 242.55C338.716 242.51 338.649 242.483 338.579 242.471C338.509 242.459 338.437 242.462 338.368 242.48L308.936 246.688C308.804 246.697 308.682 246.757 308.595 246.856C308.508 246.955 308.464 247.085 308.472 247.216C308.48 247.348 308.541 247.47 308.64 247.557C308.739 247.644 308.868 247.689 309 247.68H309.072ZM300.68 266.456C300.785 266.374 300.852 266.254 300.869 266.122C300.885 265.99 300.849 265.857 300.768 265.752L284.816 245.256C284.734 245.15 284.614 245.081 284.481 245.063C284.348 245.046 284.214 245.082 284.108 245.164C284.002 245.246 283.933 245.366 283.915 245.499C283.898 245.632 283.934 245.766 284.016 245.872L300 266.4C300.046 266.46 300.106 266.508 300.174 266.542C300.242 266.575 300.316 266.592 300.392 266.592C300.511 266.586 300.625 266.538 300.712 266.456H300.68ZM325.608 260.912C325.612 260.78 325.564 260.651 325.475 260.554C325.385 260.456 325.26 260.398 325.128 260.392L303.2 259.28C303.077 259.289 302.961 259.342 302.875 259.43C302.788 259.518 302.737 259.635 302.731 259.759C302.725 259.882 302.765 260.003 302.842 260.099C302.92 260.196 303.03 260.26 303.152 260.28L325.12 261.392C325.252 261.396 325.381 261.349 325.478 261.259C325.576 261.169 325.634 261.044 325.64 260.912H325.608ZM315.264 277.184C315.272 277.118 315.266 277.052 315.248 276.988C315.229 276.924 315.198 276.865 315.157 276.814C315.115 276.762 315.063 276.719 315.005 276.688C314.946 276.657 314.882 276.638 314.816 276.632L298.016 274.976C297.951 274.969 297.885 274.976 297.822 274.995C297.76 275.014 297.701 275.045 297.651 275.087C297.6 275.128 297.558 275.18 297.528 275.238C297.497 275.295 297.478 275.359 297.472 275.424C297.461 275.555 297.501 275.686 297.585 275.787C297.669 275.889 297.789 275.954 297.92 275.968L314.72 277.632H314.768C314.897 277.641 315.024 277.599 315.123 277.515C315.222 277.432 315.284 277.313 315.296 277.184H315.264ZM294.184 285.856C294.295 285.783 294.373 285.668 294.4 285.538C294.427 285.407 294.401 285.272 294.328 285.16L286.024 272.608C285.948 272.5 285.833 272.425 285.703 272.4C285.574 272.375 285.439 272.401 285.328 272.472C285.217 272.546 285.139 272.66 285.112 272.79C285.085 272.921 285.111 273.057 285.184 273.168L293.488 285.72C293.535 285.789 293.599 285.845 293.673 285.884C293.746 285.923 293.829 285.944 293.912 285.944C294.02 285.95 294.128 285.919 294.216 285.856H294.184ZM313.24 290.056C313.238 289.924 313.185 289.799 313.093 289.705C313.001 289.611 312.876 289.556 312.744 289.552L292.992 289.368C292.86 289.368 292.734 289.42 292.641 289.513C292.548 289.606 292.496 289.733 292.496 289.864C292.494 289.93 292.505 289.996 292.529 290.058C292.553 290.119 292.59 290.175 292.636 290.222C292.682 290.27 292.738 290.307 292.799 290.332C292.86 290.357 292.926 290.369 292.992 290.368L312.744 290.552C312.812 290.555 312.879 290.545 312.942 290.522C313.006 290.498 313.064 290.462 313.113 290.416C313.162 290.37 313.202 290.314 313.229 290.252C313.256 290.19 313.271 290.124 313.272 290.056H313.24ZM286.736 319.592C286.776 319.504 290.144 310.224 300.272 308.008C300.402 307.979 300.516 307.9 300.588 307.788C300.66 307.675 300.685 307.539 300.656 307.408C300.624 307.28 300.543 307.17 300.431 307.1C300.32 307.03 300.185 307.005 300.056 307.032C289.376 309.368 285.832 319.168 285.792 319.264C285.751 319.39 285.76 319.528 285.819 319.647C285.877 319.767 285.979 319.859 286.104 319.904H286.264C286.37 319.913 286.477 319.888 286.568 319.832C286.659 319.775 286.729 319.691 286.768 319.592H286.736ZM288.984 326.928C289.116 326.918 289.239 326.856 289.326 326.755C289.413 326.655 289.457 326.525 289.448 326.392C288.192 307.528 295.488 276.632 307.192 251.272C314.672 235.064 343.992 203.208 344.304 202.888C344.398 202.794 344.451 202.666 344.451 202.532C344.451 202.399 344.398 202.271 344.304 202.176C344.258 202.13 344.203 202.093 344.143 202.068C344.082 202.042 344.017 202.03 343.952 202.03C343.887 202.03 343.822 202.042 343.761 202.068C343.701 202.093 343.646 202.13 343.6 202.176C343.304 202.496 313.864 234.472 306.32 250.824C294.4 276.8 287.2 307.136 288.48 326.456C288.49 326.583 288.547 326.702 288.64 326.79C288.734 326.877 288.856 326.926 288.984 326.928ZM312.912 240.888C313.044 240.88 313.168 240.82 313.256 240.721C313.345 240.622 313.391 240.492 313.384 240.36L311.472 208C311.469 207.934 311.453 207.87 311.424 207.81C311.396 207.751 311.356 207.697 311.307 207.653C311.258 207.609 311.201 207.576 311.138 207.554C311.076 207.533 311.01 207.524 310.944 207.528C310.812 207.536 310.688 207.596 310.6 207.695C310.511 207.794 310.465 207.924 310.472 208.056L312.416 240.4C312.422 240.527 312.477 240.648 312.57 240.735C312.662 240.823 312.785 240.872 312.912 240.872V240.888ZM306.944 251.52C307.064 251.466 307.158 251.367 307.206 251.244C307.253 251.122 307.251 250.985 307.2 250.864L294.904 223.048C294.851 222.927 294.752 222.832 294.629 222.784C294.506 222.736 294.369 222.739 294.248 222.792C294.127 222.845 294.032 222.944 293.984 223.067C293.936 223.19 293.939 223.327 293.992 223.448L306.28 251.264C306.319 251.353 306.382 251.43 306.463 251.483C306.544 251.537 306.639 251.567 306.736 251.568C306.819 251.572 306.901 251.556 306.976 251.52H306.944ZM309.072 247.68L338.504 243.472C338.575 243.471 338.645 243.454 338.709 243.424C338.774 243.393 338.831 243.35 338.877 243.296C338.923 243.241 338.957 243.178 338.977 243.11C338.997 243.042 339.003 242.97 338.993 242.9C338.983 242.829 338.959 242.762 338.921 242.701C338.884 242.641 338.834 242.589 338.775 242.55C338.716 242.51 338.649 242.483 338.579 242.471C338.509 242.459 338.437 242.462 338.368 242.48L308.936 246.688C308.804 246.697 308.682 246.757 308.595 246.856C308.508 246.955 308.464 247.085 308.472 247.216C308.48 247.348 308.541 247.47 308.64 247.557C308.739 247.644 308.868 247.689 309 247.68H309.072ZM300.68 266.456C300.785 266.374 300.852 266.254 300.869 266.122C300.885 265.99 300.849 265.857 300.768 265.752L284.816 245.256C284.776 245.204 284.725 245.16 284.668 245.126C284.61 245.093 284.547 245.072 284.481 245.063C284.415 245.055 284.349 245.059 284.285 245.077C284.221 245.094 284.161 245.124 284.108 245.164C284.055 245.205 284.011 245.255 283.978 245.312C283.945 245.37 283.924 245.433 283.915 245.499C283.907 245.565 283.911 245.632 283.929 245.696C283.946 245.76 283.976 245.82 284.016 245.872L300 266.4C300.046 266.46 300.106 266.508 300.174 266.542C300.242 266.575 300.316 266.592 300.392 266.592C300.511 266.586 300.625 266.538 300.712 266.456H300.68ZM325.608 260.912C325.612 260.78 325.564 260.651 325.475 260.554C325.385 260.456 325.26 260.398 325.128 260.392L303.2 259.28C303.077 259.289 302.961 259.342 302.875 259.43C302.788 259.518 302.737 259.635 302.731 259.759C302.725 259.882 302.765 260.003 302.842 260.099C302.92 260.196 303.03 260.26 303.152 260.28L325.12 261.392C325.252 261.396 325.381 261.349 325.478 261.259C325.576 261.169 325.634 261.044 325.64 260.912H325.608ZM315.264 277.184C315.272 277.118 315.266 277.052 315.248 276.988C315.229 276.924 315.198 276.865 315.157 276.814C315.115 276.762 315.063 276.719 315.005 276.688C314.946 276.657 314.882 276.638 314.816 276.632L298.016 274.976C297.951 274.969 297.885 274.976 297.822 274.995C297.76 275.014 297.701 275.045 297.651 275.087C297.6 275.128 297.558 275.18 297.528 275.238C297.497 275.295 297.478 275.359 297.472 275.424C297.461 275.555 297.501 275.686 297.585 275.787C297.669 275.889 297.789 275.954 297.92 275.968L314.72 277.632H314.768C314.897 277.641 315.024 277.599 315.123 277.515C315.222 277.432 315.284 277.313 315.296 277.184H315.264ZM294.184 285.856C294.295 285.783 294.373 285.668 294.4 285.538C294.427 285.407 294.401 285.272 294.328 285.16L286.024 272.608C285.948 272.5 285.833 272.425 285.703 272.4C285.574 272.375 285.439 272.401 285.328 272.472C285.217 272.546 285.139 272.66 285.112 272.79C285.085 272.921 285.111 273.057 285.184 273.168L293.488 285.72C293.535 285.789 293.599 285.845 293.673 285.884C293.746 285.923 293.829 285.944 293.912 285.944C294.02 285.95 294.128 285.919 294.216 285.856H294.184ZM313.24 290.056C313.238 289.924 313.185 289.799 313.093 289.705C313.001 289.611 312.876 289.556 312.744 289.552L292.992 289.368C292.86 289.368 292.734 289.42 292.641 289.513C292.548 289.606 292.496 289.733 292.496 289.864C292.494 289.93 292.505 289.996 292.529 290.058C292.553 290.119 292.59 290.175 292.636 290.222C292.682 290.27 292.738 290.307 292.799 290.332C292.86 290.357 292.926 290.369 292.992 290.368L312.744 290.552C312.812 290.555 312.879 290.545 312.942 290.522C313.006 290.498 313.064 290.462 313.113 290.416C313.162 290.37 313.202 290.314 313.229 290.252C313.256 290.19 313.271 290.124 313.272 290.056H313.24ZM286.736 319.592C286.776 319.504 290.144 310.224 300.272 308.008C300.402 307.979 300.516 307.9 300.588 307.788C300.66 307.675 300.685 307.539 300.656 307.408C300.624 307.28 300.543 307.17 300.431 307.1C300.32 307.03 300.185 307.005 300.056 307.032C289.376 309.368 285.832 319.168 285.792 319.264C285.751 319.39 285.76 319.528 285.819 319.647C285.877 319.767 285.979 319.859 286.104 319.904H286.264C286.37 319.913 286.477 319.888 286.568 319.832C286.659 319.775 286.729 319.691 286.768 319.592H286.736Z" fill="#333333"></path><path d="M302.048 312.824H279.4V317.512H281.376L285.464 343.088H295.984L300.072 317.512H302.048V312.824Z" fill="#00A0AD"></path><path opacity="0.3" d="M302.048 312.824H279.4V317.512H281.376L285.464 343.088H295.984L300.072 317.512H302.048V312.824Z" fill="white"></path><path d="M98.1441 171.064L71.8001 162.464L69.4561 156.272L64.1041 156.104L54.3921 154.264L55.5601 156.272L67.7841 165.144L70.8001 166.648L98.3521 181.04L98.1441 171.064Z" fill="white" stroke="#333333" stroke-width="1.00396" stroke-miterlimit="10"></path><path d="M69.4562 156.272L66.9442 154.768L61.9282 156.608L62.7602 157.608L69.4562 156.272Z" fill="white" stroke="#333333" stroke-width="1.00396" stroke-linejoin="round"></path><path d="M98.1441 171.064L71.8001 162.464L69.4561 156.272L64.1041 156.104L54.3921 154.264L55.5601 156.272L67.7841 165.144L70.8001 166.648L98.3521 181.04L98.1441 171.064Z" fill="white"></path><path d="M98.1441 171.064L71.8001 162.464L69.4561 156.272L64.1041 156.104L54.3921 154.264L55.5601 156.272L67.7841 165.144L70.8001 166.648L98.3521 181.04L98.1441 171.064Z" stroke="#333333" stroke-width="1.00396" stroke-miterlimit="10"></path><path d="M69.4562 156.272L66.9442 154.768L61.9282 156.608L62.7602 157.608L69.4562 156.272Z" fill="white"></path><path opacity="0.5" d="M69.4562 156.272L66.9442 154.768L61.9282 156.608L62.7602 157.608L69.4562 156.272Z" fill="#00A0AD" stroke="#333333" stroke-width="1.00396" stroke-linejoin="round"></path><path d="M69.4562 156.272L66.9442 154.768L61.9282 156.608L62.7602 157.608L69.4562 156.272Z" stroke="#333333" stroke-width="1.00396" stroke-linejoin="round"></path><path d="M103.736 115.248C103.736 115.248 103.328 118.848 104.344 121.16C105.36 123.472 111 131.304 111 131.304L100.472 139.744C100.472 139.744 96.1042 130.944 95.2722 129.52C94.4402 128.096 93.4402 121.968 96.1522 117.576C98.8642 113.184 102.768 112 103.736 115.248Z" fill="white"></path><path d="M103.736 115.248C103.736 115.248 103.328 118.848 104.344 121.16C105.36 123.472 111 131.304 111 131.304L100.472 139.744C100.472 139.744 96.1042 130.944 95.2722 129.52C94.4402 128.096 93.4402 121.968 96.1522 117.576C98.8642 113.184 102.768 112 103.736 115.248Z" stroke="#333333" stroke-width="1.00396" stroke-miterlimit="10"></path><path d="M107 108.656C106.352 104.656 101.768 96.52 94.4963 96.832C89.7763 97.04 87.5683 97.992 85.5203 99.152C83.8509 100.136 82.2948 101.3 80.8803 102.624C77.3283 106.888 76.0803 108.056 76.7683 111.32C76.7118 112.622 76.9158 113.922 77.3683 115.144C78.4563 118.048 79.2003 119.944 80.1443 121.328C79.8563 122.68 79.1043 126.248 79.0643 127.064C79.0243 127.88 81.4643 127.312 82.6963 127C84.9843 132.12 89.1763 135.672 90.4803 136.08C92.7523 136.792 96.3443 133.056 98.2483 130.16C100.152 127.264 98.7123 124.008 98.7203 122.712C98.7283 121.416 103 118.568 104.584 117.664C106.168 116.76 107.64 112.648 107 108.656Z" fill="white"></path><path d="M107 108.656C106.352 104.656 101.768 96.52 94.4963 96.832C89.7763 97.04 87.5683 97.992 85.5203 99.152C83.8509 100.136 82.2948 101.3 80.8803 102.624C77.3283 106.888 76.0803 108.056 76.7683 111.32C76.7118 112.622 76.9158 113.922 77.3683 115.144C78.4563 118.048 79.2003 119.944 80.1443 121.328C79.8563 122.68 79.1043 126.248 79.0643 127.064C79.0243 127.88 81.4643 127.312 82.6963 127C84.9843 132.12 89.1763 135.672 90.4803 136.08C92.7523 136.792 96.3443 133.056 98.2483 130.16C100.152 127.264 98.7123 124.008 98.7203 122.712C98.7283 121.416 103 118.568 104.584 117.664C106.168 116.76 107.64 112.648 107 108.656Z" stroke="#333333" stroke-miterlimit="10"></path><path d="M81.1362 118.912L81.9362 121.2C81.9362 121.2 83.6562 121.768 85.7522 119.48" stroke="#333333" stroke-miterlimit="10" stroke-linecap="round"></path><path d="M87.0479 129.6C87.0479 129.6 88.9519 129.408 89.7199 126.736" stroke="#333333" stroke-miterlimit="10" stroke-linecap="round"></path><path d="M79.7998 117C79.7998 117 80.3678 115.28 83.7998 115.28" stroke="#333333" stroke-miterlimit="10" stroke-linecap="round"></path><path d="M97.3921 93.648C94.8983 93.2894 92.3834 93.0969 89.8641 93.072C89.8641 93.072 82.3281 88.728 75.0881 93.36C67.8481 97.992 71.3281 106.104 71.3281 108.128C71.3281 110.152 69.0081 110.16 70.4561 112.768C71.9041 115.376 76.8001 113.936 76.8001 113.936C76.8519 112.952 77.1118 111.991 77.5628 111.115C78.0137 110.239 78.6454 109.469 79.4161 108.856C82.0241 106.832 84.1041 106.392 84.9681 106.976C84.9681 106.976 84.3921 111.32 85.2561 113.056C85.2561 113.056 88.1521 114.504 89.0241 114.504C89.8961 114.504 88.4561 115.728 91.3441 116.816C91.8703 117.005 92.4331 117.069 92.9883 117.004C93.5435 116.939 94.0761 116.746 94.5441 116.44C94.9681 114.68 95.8961 112.032 97.6241 112.648C100.16 113.552 102.472 119.792 99.0401 121.92C103.168 122.672 108.168 115.368 108.464 108.712C108.76 102.056 101.68 94.4 97.3921 93.648Z" fill="#333333"></path><path d="M85.0962 104.12C85.0962 104.12 87.2242 102.976 89.8322 105.424C92.4402 107.872 97.5122 111.144 104.232 109.344" stroke="white" stroke-width="0.5" stroke-linecap="round" stroke-linejoin="round"></path><path d="M84.7998 102.16C84.7998 102.16 86.2638 99.8721 88.7118 99.8721C91.1598 99.8721 96.8798 103.304 101.448 103.304" stroke="white" stroke-width="0.5" stroke-linecap="round" stroke-linejoin="round"></path><path d="M83.136 106.568C83.136 106.568 80.3601 103.144 77.7521 105.92C75.1441 108.696 76.8001 111.32 76.8001 111.32" stroke="white" stroke-width="0.5" stroke-linecap="round" stroke-linejoin="round"></path><path d="M72.04 108.856C73.6308 107.421 74.6197 105.438 74.808 103.304C75.136 99.7119 80.04 96.6079 83.136 99.5519" stroke="white" stroke-width="0.5" stroke-linecap="round" stroke-linejoin="round"></path><path d="M77.0962 95.792C77.0962 95.792 82.0002 91.056 86.0802 97.096" stroke="white" stroke-width="0.5" stroke-linecap="round" stroke-linejoin="round"></path><path d="M117.008 328.648C117.008 328.648 120.024 333.336 119.688 336.352L119.36 339.368C119.36 339.368 108.296 342.4 105.952 342.4C103.608 342.4 91.2003 341.224 91.2003 341.224L90.6643 339.096C90.6267 338.939 90.6444 338.774 90.7143 338.628C90.7843 338.482 90.9022 338.365 91.0483 338.296L102.112 333.136L105.6 329.32L117.008 328.648Z" fill="white" stroke="#333333" stroke-width="1.00396" stroke-miterlimit="10"></path><path d="M107.632 340.04C110.632 340.272 116.328 338.44 119.632 337.272L119.4 339.368C119.4 339.368 108.296 342.4 105.952 342.4C103.608 342.4 91.1999 341.224 91.1999 341.224L90.8159 339.704C92.7999 339.712 103.664 339.736 107.632 340.04Z" fill="#00A0AD" stroke="#333333" stroke-width="1.00396" stroke-miterlimit="10"></path><path d="M102.128 333.136L86.0242 340.144C86.0242 340.144 84.6482 343.592 86.0242 344.28C87.4002 344.968 117.4 344.28 117.4 344.28C117.4 344.28 119.472 338.832 116.2 335.176C112.928 331.52 102.128 333.136 102.128 333.136Z" fill="white" stroke="#333333" stroke-width="1.00396" stroke-miterlimit="10"></path><path d="M117.4 344.28C117.4 344.28 87.3999 344.968 86.0239 344.28C85.3599 343.944 85.3359 342.976 85.4879 342.056H117.928C117.822 342.812 117.645 343.557 117.4 344.28Z" fill="#00A0AD" stroke="#333333" stroke-width="1.00396" stroke-miterlimit="10"></path><path d="M94.5122 211.368C94.5122 211.368 90.3042 230.016 88.7122 241.68C87.1202 253.344 86.1842 276.712 86.5202 279.392C86.8562 282.072 103.608 326.976 103.608 326.976L105.28 330.976L117.008 328.632C117.008 328.632 111.648 311.544 109.64 302.16C107.632 292.776 103.24 277.36 103.24 274.68C103.24 272 113.64 220.816 114.384 217.456C115.128 214.096 118.504 208.936 118.504 208.936L96.0482 208.48L94.5122 211.368Z" fill="#00A0AD" stroke="#333333" stroke-width="1.00396" stroke-miterlimit="10"></path><path d="M94.512 211.368C94.512 211.368 92.048 228.4 93.064 240.24C94.08 252.08 96.264 277.288 96.264 281.04C96.264 284.792 102.32 307.2 102.664 314.24C103.2 324.408 102.448 329.44 102.448 329.44L102.088 333.128C102.088 333.128 109.152 334.136 110.696 334.576C112.479 335.035 114.32 335.235 116.16 335.168C116.16 335.168 118.728 323.864 118.728 314.232C118.728 304.6 116.592 284.776 115.528 276.744C114.464 268.712 117.816 237.728 119.72 231.944C121.624 226.16 125.784 213.912 122.984 207.656C120.184 201.4 94.512 211.368 94.512 211.368Z" fill="#00A0AD" stroke="#333333" stroke-width="1.00396" stroke-miterlimit="10"></path><path d="M126.096 204.52L125.84 212.136C125.84 212.136 121.28 213.04 115.136 214.104C110.064 214.984 97.3278 213.872 93.0398 213.456C92.649 213.421 92.2877 213.234 92.0345 212.934C91.7813 212.635 91.6567 212.247 91.6878 211.856L92.1038 204.976L126.096 204.52Z" fill="#333333"></path><path d="M108.272 128.6C108.272 128.6 101.072 136.384 98.3601 141.224C95.6481 146.064 94.5761 153.48 93.5601 159.32C92.5441 165.16 95.2961 178.872 94.5201 185.168L92.0641 205C92.0641 205 91.5361 206.344 93.3041 207.816C95.0721 209.288 103.704 209.824 111.504 210.216C114.352 210.36 122.856 208.528 124.248 208.44C125.928 208.336 125.984 206.2 126.056 204.52C126.392 196.624 127.816 175.576 128.752 166.408C130.68 147.712 120.128 129.664 108.272 128.6Z" fill="white" stroke="#333333" stroke-width="1.00396" stroke-miterlimit="10"></path><g style="mix-blend-mode:multiply"><path d="M127.872 177.04C128.192 172.888 128.512 169.12 128.792 166.408C128.872 165.608 128.92 164.808 128.96 164.008L109.832 167.208L93.3999 161.608C93.4017 165.008 93.594 168.405 93.9759 171.784L110.096 176.296L127.872 177.04Z" fill="#00A0AD"></path></g><g style="mix-blend-mode:multiply"><path d="M107.56 129.384C106.472 130.592 104.312 133.048 102.256 135.656L114.4 148L118.4 146.4L107.56 129.384Z" fill="#00A0AD"></path></g><path d="M108.272 128.6C108.272 128.6 101.072 136.384 98.36 141.224C97.5559 142.695 96.9045 144.244 96.416 145.848L110.896 129.12C110.041 128.861 109.162 128.687 108.272 128.6Z" fill="#333333"></path><g style="mix-blend-mode:multiply"><path d="M94.1201 156.168L109.832 161.336L128.912 159.144C128.613 154.391 127.557 149.716 125.784 145.296L110.4 151.464L96.6481 145.232C95.5236 148.806 94.6784 152.463 94.1201 156.168Z" fill="#00A0AD"></path></g><g style="mix-blend-mode:multiply"><path d="M121.168 196.624C113.199 197.962 105.022 197.294 97.376 194.68L93.544 193.368L92.3521 202.968L96.72 204.192C105.024 206.514 113.703 207.182 122.264 206.16L125.792 205.736C125.976 205.347 126.079 204.925 126.096 204.496C126.192 202.36 126.36 199.256 126.576 195.696L121.168 196.624Z" fill="#00A0AD"></path></g><g style="mix-blend-mode:multiply"><path d="M123.304 183.552C115.335 184.895 107.156 184.224 99.5122 181.6L94.6322 179.928C94.7532 181.671 94.7292 183.421 94.5602 185.16L93.9922 189.776L98.8562 191.136C107.157 193.46 115.833 194.131 124.392 193.112L126.792 192.824C126.992 189.624 127.224 186.216 127.472 182.848L123.304 183.552Z" fill="#00A0AD"></path></g><path d="M48.249 149.722L63.7173 162.158L64.384 161.329L48.9157 148.892L48.249 149.722Z" fill="#333333"></path><path d="M115.72 137.232C115.72 137.232 121.392 141.096 121.52 150.224C121.576 154.224 121.16 157.96 120.24 164.512C119.32 171.064 113.608 192.4 109.16 194.992C104.712 197.584 97.8082 192.688 97.8082 192.688L64.4162 170.52L56.3442 164L52.3442 156.448L53.6002 154.048L63.4482 161.6L58.1442 156.696L59.1842 155.376L61.1042 156.712L66.7042 158.808L67.9282 166.808L69.6562 167.992L101.6 179.664C101.6 179.664 101.2 162.472 101.496 159.184C101.792 155.896 102.2 147.632 105.72 141.64" fill="white"></path><path d="M115.72 137.232C115.72 137.232 121.392 141.096 121.52 150.224C121.576 154.224 121.16 157.96 120.24 164.512C119.32 171.064 113.608 192.4 109.16 194.992C104.712 197.584 97.8082 192.688 97.8082 192.688L64.4162 170.52L56.3442 164L52.3442 156.448L53.6002 154.048L63.4482 161.6L58.1442 156.696L59.1842 155.376L61.1042 156.712L66.7042 158.808L67.9282 166.808L69.6562 167.992L101.6 179.664C101.6 179.664 101.2 162.472 101.496 159.184C101.792 155.896 102.2 147.632 105.72 141.64" stroke="#333333" stroke-width="1.00396" stroke-miterlimit="10"></path><path d="M101.6 179.664L113.792 188.464L116.952 182.864C116.952 182.864 119.136 181.144 119.456 179.848C119.776 178.552 119.368 176.448 119.696 175.152C120.024 173.856 121.656 172.64 121.808 169.504C121.96 166.368 121.808 163.752 121.808 163.752C121.808 163.752 124.448 152.896 124.16 148.176C123.872 143.456 119.32 135.112 115.672 134.928C112.024 134.744 107.28 135.296 103.6 140.864C99.9199 146.432 100.672 162.688 100.096 163.704C99.5199 164.72 100.32 169.736 100.32 169.736C100 169.975 99.7349 170.278 99.5418 170.627C99.3487 170.976 99.2321 171.362 99.1999 171.76C99.1359 173.064 100.544 176.272 100.544 176.272L101.6 179.664Z" fill="white" stroke="#333333" stroke-width="1.00396" stroke-miterlimit="10"></path><g style="mix-blend-mode:multiply"><path d="M100.416 159.528C100.441 160.924 100.337 162.319 100.104 163.696C99.5923 164.608 100.176 168.728 100.304 169.568C107.162 171.698 114.413 172.245 121.512 171.168C121.665 170.612 121.756 170.04 121.784 169.464C121.944 166.336 121.784 163.712 121.784 163.712C121.784 163.712 122.016 162.744 122.336 161.272C114.984 161.739 107.602 161.152 100.416 159.528Z" fill="#00A0AD"></path></g><g style="mix-blend-mode:multiply"><path d="M103.104 141.752C101.96 144.048 101.32 147.496 100.952 150.992C108.215 153.764 116.045 154.717 123.76 153.768C124.068 151.918 124.205 150.043 124.168 148.168C124.03 146.686 123.679 145.231 123.128 143.848C116.391 144.005 109.662 143.301 103.104 141.752Z" fill="#00A0AD"></path></g><path d="M100.544 176.36L101.576 179.664L113.768 188.464L116.928 182.864C116.928 182.864 119.112 181.144 119.432 179.848C119.489 179.622 119.524 179.392 119.536 179.16C113.111 179.049 106.727 178.108 100.544 176.36Z" fill="#333333"></path><path d="M109.368 334.472C109.368 334.472 109.64 327.544 110.968 317.416C112.296 307.288 109.104 292.904 108.568 290.504C108.032 288.104 108.84 282.776 108.304 280.904C107.768 279.032 105.176 271.048 106.704 261.784C108.232 252.52 109.472 228.032 109.472 228.032C109.472 228.032 105.624 224.904 104.496 220.832C103.368 216.76 104.232 215.48 104.232 215.48" stroke="#333333" stroke-width="1.00396" stroke-miterlimit="10"></path><path d="M111.152 215.856L109.672 224.048" stroke="#333333" stroke-width="1.00396" stroke-miterlimit="10"></path><path d="M56.6 423V419.88H49.256V415.944H55.904V412.992H49.256V409.104H56.6V405.984H45.944V423H56.6ZM62.7241 416.208C62.7241 414.84 63.5401 413.76 64.9321 413.76C66.4681 413.76 67.1161 414.792 67.1161 416.112V423H70.3081V415.56C70.3081 412.968 68.9641 410.88 66.0361 410.88C64.7641 410.88 63.3481 411.432 62.6281 412.656V411.192H59.5321V423H62.7241V416.208ZM73.5478 423.72C73.5478 424.584 73.1878 425.112 72.2278 425.112C71.7717 425.112 71.4597 425.04 71.2437 424.992V427.656C71.4117 427.728 72.1078 427.92 73.0438 427.92C75.3238 427.92 76.7398 426.312 76.7398 424.032V411.192H73.5478V423.72ZM73.1638 407.304C73.1638 408.384 74.0518 409.248 75.1318 409.248C76.2358 409.248 77.0998 408.384 77.0998 407.304C77.0998 406.2 76.2358 405.312 75.1318 405.312C74.0518 405.312 73.1638 406.2 73.1638 407.304ZM85.4611 420.456C83.9011 420.456 82.4611 419.304 82.4611 417.096C82.4611 414.864 83.9011 413.736 85.4611 413.736C87.0211 413.736 88.4611 414.864 88.4611 417.096C88.4611 419.328 87.0211 420.456 85.4611 420.456ZM85.4611 410.832C81.9331 410.832 79.2691 413.448 79.2691 417.096C79.2691 420.72 81.9331 423.36 85.4611 423.36C88.9891 423.36 91.6531 420.72 91.6531 417.096C91.6531 413.448 88.9891 410.832 85.4611 410.832ZM97.6903 427.656L105.106 411.192H101.698L98.7943 418.104L95.6503 411.192H92.0743L97.0903 421.512L94.3063 427.656H97.6903ZM115.298 415.752C115.37 414.672 116.282 413.424 117.938 413.424C119.762 413.424 120.53 414.576 120.578 415.752H115.298ZM120.89 418.824C120.506 419.88 119.69 420.624 118.202 420.624C116.618 420.624 115.298 419.496 115.226 417.936H123.674C123.674 417.888 123.722 417.408 123.722 416.952C123.722 413.16 121.538 410.832 117.89 410.832C114.866 410.832 112.082 413.28 112.082 417.048C112.082 421.032 114.938 423.36 118.178 423.36C121.082 423.36 122.954 421.656 123.554 419.616L120.89 418.824ZM125.515 419.784C125.515 421.632 127.051 423.336 129.571 423.336C131.323 423.336 132.451 422.52 133.051 421.584C133.051 422.04 133.099 422.688 133.171 423H136.099C136.027 422.592 135.955 421.752 135.955 421.128V415.32C135.955 412.944 134.563 410.832 130.819 410.832C127.651 410.832 125.947 412.872 125.755 414.72L128.587 415.32C128.683 414.288 129.451 413.4 130.843 413.4C132.187 413.4 132.835 414.096 132.835 414.936C132.835 415.344 132.619 415.68 131.947 415.776L129.043 416.208C127.075 416.496 125.515 417.672 125.515 419.784ZM130.243 420.96C129.211 420.96 128.707 420.288 128.707 419.592C128.707 418.68 129.355 418.224 130.171 418.104L132.835 417.696V418.224C132.835 420.312 131.587 420.96 130.243 420.96ZM146.373 411.144C146.133 411.12 145.893 411.096 145.629 411.096C144.621 411.096 142.989 411.384 142.269 412.944V411.192H139.173V423H142.365V417.6C142.365 415.056 143.781 414.264 145.413 414.264C145.701 414.264 146.013 414.288 146.373 414.36V411.144ZM151.81 423V405.624H148.618V423H151.81ZM159.307 427.656L166.723 411.192H163.315L160.411 418.104L157.267 411.192H153.691L158.707 421.512L155.923 427.656H159.307ZM179.891 420.456C178.331 420.456 176.891 419.304 176.891 417.096C176.891 414.864 178.331 413.736 179.891 413.736C181.451 413.736 182.891 414.864 182.891 417.096C182.891 419.328 181.451 420.456 179.891 420.456ZM179.891 410.832C176.363 410.832 173.699 413.448 173.699 417.096C173.699 420.72 176.363 423.36 179.891 423.36C183.419 423.36 186.083 420.72 186.083 417.096C186.083 413.448 183.419 410.832 179.891 410.832ZM200.17 409.896C200.194 408.576 201.154 408.264 201.85 408.264C202.378 408.264 202.69 408.336 202.858 408.384V405.696C202.594 405.576 201.946 405.456 201.274 405.456C198.658 405.456 196.978 407.184 196.978 409.848V411.192H192.418V409.896C192.418 408.576 193.378 408.264 194.074 408.264C194.602 408.264 194.914 408.336 195.082 408.384V405.696C194.818 405.576 194.17 405.456 193.498 405.456C190.882 405.456 189.202 407.184 189.202 409.848V411.192H187.234V413.928H189.202V423H192.418V413.928H196.978V423H200.17V413.928H202.834V411.192H200.17V409.896ZM207.243 415.752C207.315 414.672 208.227 413.424 209.883 413.424C211.707 413.424 212.475 414.576 212.523 415.752H207.243ZM212.835 418.824C212.451 419.88 211.635 420.624 210.147 420.624C208.563 420.624 207.243 419.496 207.171 417.936H215.619C215.619 417.888 215.667 417.408 215.667 416.952C215.667 413.16 213.483 410.832 209.835 410.832C206.811 410.832 204.027 413.28 204.027 417.048C204.027 421.032 206.883 423.36 210.123 423.36C213.027 423.36 214.899 421.656 215.499 419.616L212.835 418.824ZM225.381 411.144C225.141 411.12 224.901 411.096 224.637 411.096C223.629 411.096 221.997 411.384 221.277 412.944V411.192H218.181V423H221.373V417.6C221.373 415.056 222.789 414.264 224.421 414.264C224.709 414.264 225.021 414.288 225.381 414.36V411.144ZM226.688 419.712C226.832 421.056 228.056 423.36 231.608 423.36C234.704 423.36 236.192 421.392 236.192 419.472C236.192 417.744 235.016 416.328 232.688 415.848L231.008 415.488C230.36 415.368 229.928 415.008 229.928 414.432C229.928 413.76 230.6 413.256 231.44 413.256C232.784 413.256 233.288 414.144 233.384 414.84L236.048 414.24C235.904 412.968 234.776 410.832 231.416 410.832C228.872 410.832 227 412.584 227 414.696C227 416.352 228.032 417.72 230.312 418.224L231.872 418.584C232.784 418.776 233.144 419.208 233.144 419.736C233.144 420.36 232.64 420.912 231.584 420.912C230.192 420.912 229.496 420.048 229.424 419.112L226.688 419.712Z" fill="#00A0AD"></path><path d="M238.519 421.08C238.519 422.232 239.335 423.072 240.511 423.072C240.775 423.072 241.039 423 241.135 422.928C241.087 424.248 239.935 425.28 238.855 425.52V427.056C240.631 426.84 243.079 425.352 243.079 421.824C243.079 420.264 242.191 419.064 240.703 419.064C239.455 419.064 238.519 419.928 238.519 421.08ZM250.941 417.816C250.941 421.152 253.149 423.36 256.509 423.36C259.821 423.36 262.053 420.816 262.053 417.744V405.984H258.741V417.744C258.741 419.232 257.877 420.216 256.485 420.216C255.141 420.216 254.157 419.424 254.133 417.672V416.112L250.941 416.688V417.816ZM270.711 420.456C269.151 420.456 267.711 419.304 267.711 417.096C267.711 414.864 269.151 413.736 270.711 413.736C272.271 413.736 273.711 414.864 273.711 417.096C273.711 419.328 272.271 420.456 270.711 420.456ZM270.711 410.832C267.183 410.832 264.519 413.448 264.519 417.096C264.519 420.72 267.183 423.36 270.711 423.36C274.239 423.36 276.903 420.72 276.903 417.096C276.903 413.448 274.239 410.832 270.711 410.832ZM282.615 423V411.192H279.423V423H282.615ZM279.039 407.328C279.039 408.384 279.927 409.272 281.007 409.272C282.111 409.272 282.975 408.384 282.975 407.328C282.975 406.224 282.111 405.336 281.007 405.336C279.927 405.336 279.039 406.224 279.039 407.328ZM289.224 416.208C289.224 414.84 290.04 413.76 291.432 413.76C292.968 413.76 293.616 414.792 293.616 416.112V423H296.808V415.56C296.808 412.968 295.464 410.88 292.536 410.88C291.264 410.88 289.848 411.432 289.128 412.656V411.192H286.032V423H289.224V416.208ZM320.737 423V405.984H317.425V417.24L310.345 405.984H306.217V423H309.529V410.928L317.257 423H320.737ZM329.61 420.456C328.05 420.456 326.61 419.304 326.61 417.096C326.61 414.864 328.05 413.736 329.61 413.736C331.17 413.736 332.61 414.864 332.61 417.096C332.61 419.328 331.17 420.456 329.61 420.456ZM329.61 410.832C326.082 410.832 323.418 413.448 323.418 417.096C323.418 420.72 326.082 423.36 329.61 423.36C333.138 423.36 335.802 420.72 335.802 417.096C335.802 413.448 333.138 410.832 329.61 410.832ZM344.713 411.192L342.145 418.776L339.961 411.192H336.601L340.369 423H343.609L346.321 414.936L349.081 423H352.273L355.969 411.192H352.801L350.617 418.8L348.073 411.192H344.713Z" fill="#333333"></path></svg>