<svg xmlns="http://www.w3.org/2000/svg" width="96" height="96" viewBox="0 0 96 96">
  <g id="Group_16262" data-name="Group 16262" transform="translate(-742 -2659.999)">
    <g id="Group_14421" data-name="Group 14421" transform="translate(742 2659.999)">
      <g id="Rectangle_6869" data-name="Rectangle 6869" transform="translate(0 0)" fill="#fff" stroke="#707070" stroke-width="1" opacity="0">
        <rect width="96" height="96" stroke="none"/>
        <rect x="0.5" y="0.5" width="95" height="95" fill="none"/>
      </g>
      <g id="_023-protection" data-name="023-protection" transform="translate(0 0.001)">
        <g id="Group_14010" data-name="Group 14010" transform="translate(46.698 0)">
          <g id="Group_13969" data-name="Group 13969">
            <path id="Path_14022" data-name="Path 14022" d="M36.463,57.081a1.977,1.977,0,0,1-.791-.163C34.7,56.515,12,46.7,12,26.649V9.611a2.044,2.044,0,0,1,1.386-1.933L35.811.107a2.042,2.042,0,0,1,1.3,0L59.54,7.678a2.044,2.044,0,0,1,1.386,1.933V26.649c0,20.052-22.7,29.865-23.672,30.273A2.045,2.045,0,0,1,36.463,57.081ZM16.077,11.074V26.649c0,15.432,16.533,24.292,20.386,26.151,3.849-1.863,20.386-10.756,20.386-26.151V11.074L36.463,4.192Z" transform="translate(-12 0)" fill="#e27e28"/>
          </g>
          <g id="Group_13970" data-name="Group 13970" transform="translate(12.231 17.831)">
            <path id="Path_14023" data-name="Path 14023" d="M25.194,22.848a1.069,1.069,0,0,1-.114,0,2.045,2.045,0,0,1-1.48-.762L15.445,11.889A2.039,2.039,0,1,1,18.629,9.34l6.731,8.415L38.02,5.1A2.038,2.038,0,1,1,40.9,7.979l-14.27,14.27A2.014,2.014,0,0,1,25.194,22.848Z" transform="translate(-15 -4.5)" fill="#e27e28"/>
          </g>
        </g>
        <g id="Group_13971" data-name="Group 13971" transform="translate(67.083 79.306)">
          <path id="Path_14024" data-name="Path 14024" d="M25.154,36.309a8.154,8.154,0,1,1,8.154-8.154A8.163,8.163,0,0,1,25.154,36.309Zm0-12.232a4.077,4.077,0,1,0,4.077,4.077A4.084,4.084,0,0,0,25.154,24.077Z" transform="translate(-17 -20)" fill="#e27e28"/>
        </g>
        <g id="Group_13972" data-name="Group 13972" transform="translate(12.241 79.306)">
          <path id="Path_14025" data-name="Path 14025" d="M11.154,36.309a8.154,8.154,0,1,1,8.154-8.154A8.163,8.163,0,0,1,11.154,36.309Zm0-12.232a4.077,4.077,0,1,0,4.077,4.077A4.084,4.084,0,0,0,11.154,24.077Z" transform="translate(-3 -20)" fill="#e27e28"/>
        </g>
        <g id="Group_13973" data-name="Group 13973" transform="translate(0 62.885)">
          <path id="Path_14026" data-name="Path 14026" d="M84.116,44.625H81.721a2.039,2.039,0,0,1,0-4.077h2.394a6,6,0,0,0,5.793-4.611l1.673-6.727a2.046,2.046,0,0,0-1.155-2.377C63.666,16.179,34.958,18.1,5.091,32.561a2.049,2.049,0,0,0-.952,2.577l.649,1.619a5.961,5.961,0,0,0,5.526,3.792h3.123a2.039,2.039,0,0,1,0,4.077H10.314A9.93,9.93,0,0,1,1.1,38.31L.449,36.691a6.136,6.136,0,0,1,2.932-7.816c30.891-14.951,60.667-16.924,88.483-5.839a6.118,6.118,0,0,1,3.574,7.176L93.765,36.94a9.989,9.989,0,0,1-9.649,7.685Z" transform="translate(0.002 -15.972)" fill="#e27e28"/>
        </g>
        <g id="Group_13974" data-name="Group 13974" transform="translate(22.987 87.461)">
          <path id="Path_14027" data-name="Path 14027" d="M53.531,26.077H7.949a2.039,2.039,0,1,1,0-4.077H53.531a2.039,2.039,0,0,1,0,4.077Z" transform="translate(-5.91 -22)" fill="#e27e28"/>
        </g>
        <g id="Group_13975" data-name="Group 13975" transform="translate(25.343 64.47)">
          <path id="Path_14028" data-name="Path 14028" d="M39.435,31.006a9.5,9.5,0,0,1-1.268-.082L10.324,27.443a2.036,2.036,0,0,1-1.57-1.109L6.715,22.256a2.039,2.039,0,1,1,3.649-1.822l1.549,3.1L38.672,26.88a6.13,6.13,0,0,0,5.7-2.471L49.7,17.091A2.037,2.037,0,0,1,53,19.488l-5.325,7.319a10.165,10.165,0,0,1-8.236,4.2Z" transform="translate(-6.499 -16.25)" fill="#e27e28"/>
        </g>
      </g>
    </g>
  </g>
</svg>
