<svg xmlns="http://www.w3.org/2000/svg" xmlns:xlink="http://www.w3.org/1999/xlink" width="80" height="80" viewBox="0 0 80 80">
  <defs>
    <filter id="Ellipse_99" x="0" y="0" width="80" height="80" filterUnits="userSpaceOnUse">
      <feOffset dy="4" input="SourceAlpha"/>
      <feGaussianBlur stdDeviation="4" result="blur"/>
      <feFlood flood-opacity="0.239"/>
      <feComposite operator="in" in2="blur"/>
      <feComposite in="SourceGraphic"/>
    </filter>
  </defs>
  <g id="chat_support" transform="translate(12 8)">
    <g id="Group_3375" data-name="Group 3375" transform="translate(-1259 -676)">
      <g transform="matrix(1, 0, 0, 1, 1247, 668)" filter="url(#Ellipse_99)">
        <circle id="Ellipse_99-2" data-name="Ellipse 99" cx="28" cy="28" r="28" transform="translate(12 8)" fill="#00a0ae"/>
      </g>
      <path id="microphone" d="M5.152,13.889a12.389,12.389,0,1,1,24.777,0V20.5a4.123,4.123,0,0,1,1.652,3.3v3.3a4.13,4.13,0,0,1-4.13,4.13h-.909a4.131,4.131,0,0,1-4.047,3.3H15.889a.826.826,0,1,1,0-1.652H22.5a2.478,2.478,0,0,0,2.478-2.478V20.5a.826.826,0,0,1,.826-.826h1.652a4.149,4.149,0,0,1,.826.083V13.889a10.737,10.737,0,1,0-21.474,0v5.864a4.148,4.148,0,0,1,.826-.083H9.281a.826.826,0,0,1,.826.826v9.911a.826.826,0,0,1-.826.826H7.63A4.13,4.13,0,0,1,3.5,27.1V23.8a4.123,4.123,0,0,1,1.652-3.3ZM26.626,29.581h.826A2.478,2.478,0,0,0,29.929,27.1V23.8a2.478,2.478,0,0,0-2.478-2.478h-.826ZM5.152,23.8A2.478,2.478,0,0,1,7.63,21.322h.826v8.259H7.63A2.478,2.478,0,0,1,5.152,27.1Z" transform="translate(1269 686)" fill="#fff" stroke="#fff" stroke-width="0.5"/>
    </g>
  </g>
</svg>
