<svg xmlns="http://www.w3.org/2000/svg" width="96" height="96" viewBox="0 0 96 96">
  <g id="Group_15437" data-name="Group 15437" transform="translate(-742 -2659.998)">
    <g id="Group_15224" data-name="Group 15224" transform="translate(742 2660)">
      <g id="Rectangle_7301" data-name="Rectangle 7301" transform="translate(0 -0.002)" fill="#e27e28" stroke="#707070" stroke-width="1" opacity="0">
        <rect width="96" height="96" stroke="none"/>
        <rect x="0.5" y="0.5" width="95" height="95" fill="none"/>
      </g>
      <g id="ingot" transform="translate(0 18.081)">
        <path id="Path_21025" data-name="Path 21025" d="M51.655,36.916H11.425a5.836,5.836,0,0,1-4.718-2.378,5.976,5.976,0,0,1-.934-5.366L11.826,9.225A5.891,5.891,0,0,1,17.478,5H45.6a5.89,5.89,0,0,1,5.652,4.229l6.053,19.948a5.976,5.976,0,0,1-.934,5.366A5.848,5.848,0,0,1,51.655,36.916ZM17.478,8.99a1.909,1.909,0,0,0-1.816,1.392L9.609,30.329a2.034,2.034,0,0,0,.317,1.831,1.845,1.845,0,0,0,1.5.766H51.651a1.854,1.854,0,0,0,1.5-.766,2.058,2.058,0,0,0,.317-1.831L47.418,10.382A1.909,1.909,0,0,0,45.6,8.99Z" transform="translate(16.42 -5)" fill="#e27e28"/>
        <path id="Path_21026" data-name="Path 21026" d="M46.01,43.916H5.924a5.835,5.835,0,0,1-4.7-2.362,6.057,6.057,0,0,1-.961-5.382L6.327,16.2A5.885,5.885,0,0,1,11.94,12H39.99a5.894,5.894,0,0,1,5.621,4.233l6.052,19.924a6.075,6.075,0,0,1-.961,5.4,5.822,5.822,0,0,1-4.692,2.358ZM11.94,15.989a1.88,1.88,0,0,0-1.791,1.36L4.085,37.317a2.1,2.1,0,0,0,.331,1.847,1.872,1.872,0,0,0,1.508.762H46.01a1.863,1.863,0,0,0,1.5-.762,2.11,2.11,0,0,0,.327-1.871L41.789,17.37a1.892,1.892,0,0,0-1.8-1.38Z" transform="translate(-0.01 15.927)" fill="#e27e28"/>
        <path id="Path_21027" data-name="Path 21027" d="M55.469,43.916H15.379a5.378,5.378,0,0,1-2.952-.834,1.994,1.994,0,1,1,2.154-3.355,1.445,1.445,0,0,0,.8.2h40.09a1.857,1.857,0,0,0,1.5-.762A2.114,2.114,0,0,0,57.3,37.3L51.248,17.374a1.882,1.882,0,0,0-1.8-1.384H21.4a1.885,1.885,0,0,0-1.791,1.356L15.415,31.134A2,2,0,1,1,11.6,29.973l4.185-13.764A5.889,5.889,0,0,1,21.4,12H49.453a5.9,5.9,0,0,1,5.621,4.229l6.052,19.928a6.061,6.061,0,0,1-.957,5.4,5.837,5.837,0,0,1-4.7,2.358Z" transform="translate(34.616 15.927)" fill="#e27e28"/>
      </g>
    </g>
  </g>
</svg>
