<svg xmlns="http://www.w3.org/2000/svg" width="132" height="132" viewBox="0 0 132 132">
  <g id="grow_investment_icon" transform="translate(-7468 -16456.877)">
    <g id="Rectangle_6656" data-name="Rectangle 6656" transform="translate(7468 16456.877)" fill="#e27e28" stroke="#707070" stroke-width="1" opacity="0">
      <rect width="132" height="132" stroke="none"/>
      <rect x="0.5" y="0.5" width="131" height="131" fill="none"/>
    </g>
    <g id="growth" transform="translate(7477.415 16468.754)">
      <path id="Path_14850" data-name="Path 14850" d="M27.026,78.326a2.391,2.391,0,0,1-.876-.169A40.01,40.01,0,1,1,81.023,41.011a40.237,40.237,0,0,1-17.5,33.139,2.353,2.353,0,0,1-2.664-3.879A35.327,35.327,0,1,0,5.707,41.011,35.143,35.143,0,0,0,27.9,73.788a2.354,2.354,0,0,1-.876,4.538Z" transform="translate(3.707 -1)" fill="#e27e28"/>
      <path id="Path_14854" data-name="Path 14854" d="M2.354,68.484a2.352,2.352,0,0,1-1.266-4.335L52.867,31.2a2.351,2.351,0,0,1,2.928.32L72.957,48.681l35.992-35.992a2.353,2.353,0,1,1,3.328,3.328L74.619,53.675a2.355,2.355,0,0,1-3.328,0l-17.5-17.5L3.62,68.117a2.34,2.34,0,0,1-1.266.367Z" transform="translate(0 39.782)" fill="#e27e28"/>
      <path id="Path_14855" data-name="Path 14855" d="M40.183,35.536a2.354,2.354,0,0,1-2.354-2.354V16.707H21.354a2.354,2.354,0,0,1,0-4.707H40.183a2.354,2.354,0,0,1,2.354,2.354V33.183A2.354,2.354,0,0,1,40.183,35.536Z" transform="translate(70.437 39.78)" fill="#e27e28"/>
      <path id="Path_14869" data-name="Path 14869" d="M38.127,8.883A1.884,1.884,0,0,0,36.244,7H9.883a1.883,1.883,0,0,0,0,3.766H19.3A7.539,7.539,0,0,1,26.83,18.3H9.883a1.883,1.883,0,0,0,0,3.766h15.9A7.507,7.507,0,0,1,19.3,25.829H9.883A1.885,1.885,0,0,0,8.7,29.184L27.534,44.247a1.9,1.9,0,0,0,1.179.41A1.885,1.885,0,0,0,29.891,41.3L15.253,29.595H19.3a11.282,11.282,0,0,0,10.6-7.532h6.342a1.883,1.883,0,0,0,0-3.766H30.6a11.225,11.225,0,0,0-2.937-7.532h8.586a1.884,1.884,0,0,0,1.883-1.883Z" transform="translate(22.596 14.183)" fill="#e27e28"/>
    </g>
  </g>
</svg>
