<svg id="instagram" xmlns="http://www.w3.org/2000/svg" width="24" height="24" viewBox="0 0 24 24">
  <path id="Path_11539" data-name="Path 11539" d="M46.337,36.971a9.488,9.488,0,1,0,9.487,9.486A9.5,9.5,0,0,0,46.337,36.971Z" transform="translate(-34.337 -34.426)" fill="#fff"/>
  <path id="Path_591" data-name="Path 591" d="M32.983,23.88H25.83a2.073,2.073,0,0,0-2.071,2.071V33.1a2.073,2.073,0,0,0,2.071,2.071h7.153A2.073,2.073,0,0,0,35.054,33.1V25.951A2.073,2.073,0,0,0,32.983,23.88Zm-3.577,9.365a3.718,3.718,0,1,1,3.718-3.718A3.722,3.722,0,0,1,29.406,33.245Zm3.838-6.668a.88.88,0,1,1,.88-.88A.881.881,0,0,1,33.244,26.578Z" transform="translate(-17.406 -17.495)" fill="#e27e28"/>
  <path id="Path_592" data-name="Path 592" d="M39,36.971a2.147,2.147,0,1,0,2.147,2.147A2.15,2.15,0,0,0,39,36.971Z" transform="translate(-26.996 -27.085)" fill="#e27e28"/>
  <path id="Path_593" data-name="Path 593" d="M12,0A12,12,0,1,0,24,12,12,12,0,0,0,12,0Zm7.218,15.609a3.646,3.646,0,0,1-3.642,3.642H8.423a3.646,3.646,0,0,1-3.642-3.642V8.456A3.646,3.646,0,0,1,8.423,4.814h7.153a3.646,3.646,0,0,1,3.642,3.642Z" fill="#e27e28"/>
</svg>
