<svg xmlns="http://www.w3.org/2000/svg" width="500" height="500" viewBox="0 0 500 500" fill="none"><path d="M442.77 110.12C439.526 105.411 435.978 100.918 432.15 96.67C400.73 61.77 359.65 47 312.71 37.11C264.23 26.9 207.47 23.68 160.93 42.11C149.93 46.46 139.59 52.29 131.32 60.18C100.19 89.9 89.5198 139.7 54.8198 179.06C20.1198 218.42 3.22979 267.42 34.3598 314.06C47.5398 333.78 64.3598 350.06 84.2198 364.32C108.69 381.89 129.8 405.59 158.09 419.32C187.82 433.73 227.41 438.76 260.31 432.15C297.84 424.62 319.86 394.67 348.51 374.24C371.1 358.14 398.12 347.6 420.25 330.99C454.16 305.55 479.87 264.64 475.57 224.11C471.4 184.76 466 143.85 442.77 110.12Z" fill="#E5F5F7"></path><path d="M450.73 441H462" stroke="#333333" stroke-linecap="round" stroke-linejoin="round"></path><path d="M113.89 441H446.94" stroke="#333333" stroke-linecap="round" stroke-linejoin="round"></path><path d="M49 441H107.93" stroke="#333333" stroke-linecap="round" stroke-linejoin="round"></path><path d="M450 373C450 373 452.65 371 452.8 370.85C454.55 369.13 456.92 364.78 455.69 362.32C455.474 361.918 455.176 361.567 454.814 361.288C454.453 361.009 454.038 360.809 453.594 360.702C453.151 360.594 452.69 360.581 452.241 360.664C451.793 360.746 451.366 360.922 450.99 361.18C449.35 362.18 448.65 364.5 448.5 366.33C448.37 368.51 450 373 450 373Z" fill="#333333"></path><path d="M472.1 368C470.1 366.1 465.26 367.08 463.1 368.25C462.92 368.35 460.18 370.25 460.22 370.25C459.45 370.4 458.63 370.57 457.74 370.77C456.09 371.16 454.23 371.61 452.24 372.24C450.09 372.898 447.98 373.679 445.92 374.58C443.606 375.575 441.387 376.776 439.29 378.17H439.22C439.72 377.54 441.07 375.74 441.15 375.59C442.39 373.47 443.53 368.64 441.69 366.59C441.376 366.26 440.996 365.999 440.575 365.825C440.154 365.651 439.701 365.567 439.246 365.579C438.79 365.591 438.343 365.699 437.932 365.896C437.52 366.092 437.155 366.373 436.86 366.72C435.55 368.16 435.48 370.55 435.86 372.35C436.24 374.35 438.86 378.05 439.02 378.35C436.913 379.816 434.909 381.423 433.02 383.16C431.91 384.16 430.83 385.21 429.76 386.27C430.17 385.71 430.54 385.21 430.59 385.13C431.82 383.01 432.96 378.19 431.13 376.13C430.815 375.799 430.435 375.538 430.013 375.364C429.591 375.19 429.137 375.106 428.681 375.119C428.225 375.131 427.776 375.239 427.364 375.435C426.952 375.632 426.586 375.913 426.29 376.26C424.98 377.7 424.91 380.09 425.29 381.89C425.67 383.69 427.77 386.89 428.34 387.72L427.12 388.95C425.18 390.95 423.25 392.95 421.29 394.81C420.6 395.48 419.9 396.11 419.2 396.74C419.57 396.25 419.88 395.83 419.92 395.74C421.15 393.62 422.29 388.8 420.46 386.74C420.145 386.408 419.764 386.147 419.342 385.973C418.92 385.799 418.465 385.715 418.009 385.729C417.552 385.742 417.103 385.851 416.691 386.05C416.28 386.248 415.915 386.531 415.62 386.88C414.32 388.31 414.25 390.7 414.62 392.5C414.99 394.3 416.89 397.19 417.57 398.18C416.84 398.81 416.1 399.44 415.36 400.01C414.84 400.39 414.36 400.8 413.83 401.15L412.27 402.23C411.27 402.87 410.2 403.55 409.19 404.15C408.49 404.58 407.82 404.97 407.14 405.37C407.83 404.72 409.14 403.37 409.26 403.28C410.55 401.549 411.379 399.519 411.67 397.38C411.82 397.195 411.954 396.998 412.07 396.79C412.301 396.395 412.447 395.957 412.498 395.502C412.548 395.048 412.503 394.588 412.364 394.152C412.226 393.717 411.997 393.315 411.693 392.973C411.389 392.632 411.016 392.358 410.6 392.17C408.07 391.11 403.89 393.78 402.3 395.64C402.2 395.75 401.3 397.06 400.77 397.89C401.01 397.36 401.26 396.84 401.51 396.28C402 395.18 402.51 394.06 402.97 392.87C403.19 392.28 403.41 391.69 403.64 391.09C403.87 390.49 404.05 389.86 404.27 389.23C404.73 387.77 405.12 386.23 405.49 384.75C406.49 385.19 409.9 386.67 411.74 386.67C413.58 386.67 415.91 386.17 417.08 384.67C417.368 384.316 417.579 383.905 417.698 383.465C417.817 383.024 417.842 382.563 417.772 382.112C417.701 381.662 417.536 381.231 417.287 380.848C417.039 380.465 416.713 380.138 416.33 379.89C413.98 378.46 409.45 380.46 407.59 382.06C407.47 382.16 406.27 383.46 405.59 384.18C405.8 383.27 406.02 382.36 406.21 381.42C406.74 378.73 407.21 375.99 407.66 373.25C407.8 372.42 407.96 371.58 408.11 370.75C408.45 370.91 412.51 372.75 414.57 372.75C416.4 372.75 418.74 372.25 419.91 370.75C420.198 370.396 420.409 369.985 420.528 369.545C420.647 369.104 420.672 368.643 420.602 368.192C420.531 367.742 420.366 367.311 420.117 366.928C419.869 366.545 419.543 366.218 419.16 365.97C416.81 364.54 412.28 366.54 410.42 368.14C410.28 368.26 408.55 370.14 408.13 370.63C408.46 368.79 408.81 366.96 409.22 365.17C409.769 362.755 410.471 360.377 411.32 358.05C411.48 358.13 415.71 360.05 417.82 360.05C419.65 360.05 421.99 359.55 423.16 358.05C423.448 357.696 423.659 357.286 423.778 356.845C423.897 356.404 423.922 355.943 423.852 355.492C423.781 355.042 423.616 354.611 423.367 354.228C423.119 353.845 422.793 353.518 422.41 353.27C420.06 351.83 415.53 353.84 413.67 355.44C413.53 355.56 411.67 357.58 411.35 357.97L411.49 357.55C412.414 355.243 413.538 353.021 414.85 350.91C415.57 349.74 416.31 348.65 417.06 347.62C417.81 348.06 421.26 350.05 423.16 350.27C425.06 350.49 427.36 350.27 428.69 348.82C429.016 348.501 429.272 348.116 429.439 347.692C429.606 347.267 429.682 346.812 429.662 346.356C429.641 345.9 429.524 345.453 429.318 345.045C429.113 344.638 428.824 344.278 428.47 343.99C426.3 342.31 421.57 343.8 419.55 345.18C419.44 345.26 418.41 346.18 417.66 346.81C418.01 346.35 418.35 345.86 418.66 345.43C419.94 343.78 421.2 342.36 422.33 341.1C422.98 340.39 423.58 339.76 424.15 339.18C425.15 339.24 429 339.4 430.75 338.72C432.5 338.04 434.46 336.72 434.99 334.89C435.132 334.456 435.18 333.997 435.133 333.543C435.086 333.089 434.943 332.65 434.715 332.255C434.487 331.859 434.178 331.517 433.808 331.249C433.438 330.981 433.016 330.794 432.57 330.7C429.87 330.21 426.36 333.7 425.2 335.88C425.1 336.06 423.88 339.17 423.93 339.17H424C423.45 339.72 422.85 340.32 422.22 340.98C421.06 342.21 419.76 343.61 418.45 345.24C417.009 346.968 415.673 348.781 414.45 350.67C413.069 352.775 411.881 355.001 410.9 357.32V357.41C410.97 356.61 411.09 354.36 411.09 354.18C410.95 351.74 409.24 347.08 406.58 346.39C406.132 346.28 405.667 346.267 405.214 346.352C404.761 346.436 404.331 346.615 403.953 346.878C403.575 347.141 403.257 347.481 403.02 347.876C402.783 348.271 402.633 348.712 402.58 349.17C402.28 351.09 403.58 353.12 404.81 354.44C406.25 355.92 410.42 357.56 410.76 357.69C409.814 360.07 409.032 362.513 408.42 365C408.05 366.45 407.72 367.92 407.42 369.39C407.42 368.7 407.49 368.08 407.48 367.99C407.34 365.54 405.63 360.89 402.97 360.2C402.522 360.09 402.057 360.077 401.604 360.162C401.151 360.246 400.721 360.425 400.343 360.688C399.965 360.951 399.647 361.291 399.41 361.686C399.173 362.081 399.023 362.522 398.97 362.98C398.68 364.89 399.97 366.92 401.21 368.24C402.45 369.56 406.03 371.04 406.97 371.42C406.86 371.99 406.74 372.55 406.63 373.12C406.11 375.85 405.63 378.57 405.01 381.23C404.8 382.16 404.56 383.08 404.33 383.99C404.33 383.37 404.39 382.85 404.38 382.77C404.24 380.32 402.53 375.67 399.87 374.98C399.422 374.87 398.957 374.857 398.504 374.942C398.051 375.026 397.621 375.205 397.243 375.468C396.865 375.731 396.547 376.071 396.31 376.466C396.073 376.861 395.923 377.302 395.87 377.76C395.58 379.68 396.87 381.76 398.11 383.02C399.35 384.28 402.59 385.68 403.7 386.13C403.44 387.06 403.17 388 402.87 388.89C402.65 389.49 402.48 390.08 402.22 390.68C401.96 391.28 401.75 391.86 401.51 392.44C401.02 393.54 400.51 394.68 400.01 395.74C399.66 396.48 399.32 397.18 399.01 397.89C399.23 396.96 399.61 395.13 399.63 394.98C399.86 392.53 398.87 387.68 396.35 386.59C395.925 386.422 395.47 386.344 395.014 386.363C394.558 386.382 394.111 386.497 393.701 386.699C393.292 386.902 392.93 387.188 392.639 387.54C392.347 387.891 392.133 388.3 392.01 388.74C391.43 390.59 392.37 392.79 393.43 394.28C394.6 395.93 398.31 398.11 398.78 398.37C398.2 399.54 397.63 400.67 397.07 401.73C396.35 403.12 395.65 404.41 394.99 405.59C395.28 406.02 395.66 406.59 396.09 407.18C396.85 405.773 397.66 404.203 398.52 402.47C399.11 401.29 399.72 400.01 400.33 398.69C401.66 399.074 403.012 399.374 404.38 399.59C404.57 401.65 406.38 405.26 406.57 405.73C405.44 406.38 404.34 407.01 403.29 407.59C401.49 408.59 399.82 409.46 398.29 410.22C398.63 410.67 399 411.14 399.38 411.62C400.8 410.85 402.38 409.99 404.06 409C405.2 408.34 406.41 407.61 407.65 406.85C407.99 407.25 410.82 410.51 412.65 411.36C414.31 412.13 416.65 412.65 418.35 411.74C418.76 411.54 419.124 411.256 419.417 410.907C419.71 410.557 419.926 410.15 420.052 409.712C420.177 409.273 420.209 408.813 420.145 408.361C420.081 407.909 419.922 407.476 419.68 407.09C418.15 404.8 413.19 404.72 410.83 405.4C410.69 405.4 409.23 406.04 408.32 406.4L409.83 405.46C410.83 404.82 411.83 404.14 412.92 403.46C413.43 403.1 413.92 402.73 414.46 402.35C415 401.97 415.46 401.55 416.01 401.15C417.2 400.15 418.36 399.15 419.5 398.09C420.07 398.98 422.12 402.09 423.66 403.09C425.2 404.09 427.41 404.97 429.24 404.33C429.675 404.191 430.076 403.963 430.417 403.66C430.758 403.357 431.032 402.985 431.221 402.57C431.409 402.154 431.508 401.703 431.512 401.247C431.515 400.79 431.422 400.338 431.24 399.92C430.08 397.44 425.19 396.6 422.76 396.92C422.6 396.92 420.88 397.36 419.94 397.61C420.62 396.96 421.31 396.32 421.94 395.61C423.87 393.61 425.76 391.61 427.66 389.61L429.41 387.76C429.61 388.08 431.97 391.87 433.69 393.01C435.21 394.01 437.44 394.89 439.27 394.25C439.704 394.113 440.105 393.886 440.447 393.583C440.788 393.281 441.062 392.91 441.25 392.495C441.439 392.081 441.538 391.631 441.541 391.175C441.545 390.719 441.452 390.268 441.27 389.85C440.11 387.36 435.22 386.53 432.79 386.85C432.6 386.85 430.13 387.47 429.51 387.66C430.79 386.31 432.09 384.98 433.42 383.66C435.21 381.948 437.107 380.351 439.1 378.88C439.19 379.03 441.64 382.99 443.4 384.16C444.93 385.16 447.16 386.04 448.99 385.4C449.424 385.263 449.825 385.036 450.167 384.733C450.508 384.431 450.782 384.06 450.97 383.645C451.159 383.231 451.258 382.781 451.261 382.325C451.265 381.869 451.172 381.418 450.99 381C449.82 378.51 444.94 377.68 442.5 378C442.31 378 439.65 378.67 439.17 378.83C439.29 378.74 439.4 378.64 439.52 378.56C441.56 377.144 443.722 375.913 445.98 374.88C447.23 374.29 448.44 373.8 449.64 373.34C450.02 374.13 451.8 377.7 453.27 378.92C454.74 380.14 456.79 381.2 458.68 380.77C459.128 380.682 459.554 380.501 459.927 380.238C460.301 379.976 460.615 379.637 460.85 379.244C461.084 378.852 461.232 378.414 461.286 377.96C461.339 377.506 461.296 377.046 461.16 376.61C460.28 374.01 455.51 372.61 453.06 372.69C452.93 372.69 451.57 372.86 450.59 373L452.21 372.42C454.21 371.75 456.02 371.26 457.66 370.83C458.59 370.6 459.44 370.41 460.23 370.24C461.01 370.81 464.16 373.09 465.99 373.5C467.82 373.91 470.17 373.9 471.65 372.64C471.989 372.368 472.271 372.032 472.478 371.65C472.685 371.267 472.813 370.848 472.855 370.415C472.897 369.982 472.852 369.546 472.722 369.131C472.593 368.716 472.381 368.331 472.1 368Z" fill="#333333"></path><path d="M412 342.43C413 344.32 416.92 347.18 416.93 347.18C416.94 347.18 418.03 344.04 418.08 343.84C418.59 341.44 418.17 336.5 415.79 335.13C415.388 334.912 414.944 334.782 414.488 334.748C414.032 334.713 413.574 334.775 413.143 334.93C412.713 335.085 412.32 335.329 411.99 335.646C411.66 335.963 411.401 336.346 411.23 336.77C410.48 338.54 411.16 340.83 412 342.43Z" fill="#333333"></path><path d="M89.0801 389C89.0801 389 89.5401 386.18 89.5501 386C89.6201 383.9 88.55 379.79 86.31 379C85.9372 378.879 85.5432 378.838 85.1535 378.878C84.7637 378.919 84.3867 379.041 84.0467 379.236C83.7068 379.431 83.4113 379.694 83.1794 380.01C82.9475 380.326 82.7842 380.687 82.7 381.07C82.3 382.69 83.21 384.52 84.2 385.75C85.36 387.19 89.0701 389 89.0801 389Z" fill="#333333"></path><path d="M68.1001 424.56C68.4901 425.3 68.8701 426.04 69.2101 426.77C69.4301 427.28 69.6801 427.77 69.8701 428.27L70.4701 429.78C70.8101 430.78 71.1701 431.78 71.4701 432.78C71.6901 433.44 71.8901 434.08 72.0901 434.73C71.6801 434.02 70.8301 432.66 70.7501 432.55C69.4501 430.89 65.9701 428.46 63.7501 429.27C63.387 429.416 63.0587 429.637 62.7866 429.919C62.5145 430.2 62.3046 430.536 62.1707 430.904C62.0368 431.271 61.9818 431.663 62.0092 432.054C62.0367 432.444 62.146 432.825 62.3301 433.17C63.0601 434.67 64.9401 435.48 66.4801 435.78C68.1801 436.11 71.7801 435.28 72.2301 435.17C72.5601 436.23 72.8801 437.28 73.1601 438.26C73.4401 439.24 73.6801 440.16 73.9201 441.05H75.4401C75.1601 440.05 74.8401 438.99 74.5001 437.86C74.1601 436.73 73.7901 435.63 73.3901 434.45C74.4229 433.892 75.4244 433.278 76.3901 432.61C77.9325 433.677 79.6151 434.525 81.3901 435.13C81.0801 436.21 80.7601 437.25 80.4501 438.23C80.1401 439.21 79.8201 440.16 79.5201 441.05H81.0601C81.3001 440.28 81.5401 439.48 81.7901 438.63C82.1101 437.54 82.4301 436.38 82.7901 435.17C83.2401 435.22 86.9301 435.58 88.5701 435.02C90.0601 434.52 91.8201 433.46 92.3401 431.88C92.4771 431.513 92.5352 431.121 92.5105 430.729C92.4858 430.338 92.3789 429.956 92.1968 429.609C92.0147 429.262 91.7615 428.957 91.4536 428.714C91.1458 428.471 90.7902 428.296 90.4101 428.2C88.1101 427.69 84.9801 430.57 83.9101 432.38C83.8501 432.49 83.2901 433.73 82.9101 434.51C83.0401 434.02 83.1601 433.51 83.2901 433.04C83.5401 432.04 83.7701 431.04 84.0101 429.94C84.1101 429.41 84.2101 428.87 84.3201 428.34C84.4301 427.81 84.4801 427.23 84.5601 426.67C84.7301 425.37 84.8401 424.04 84.9201 422.67C85.8001 422.89 88.9201 423.67 90.5001 423.36C92.0801 423.05 93.9401 422.36 94.7001 420.82C94.8911 420.478 95.0078 420.1 95.0426 419.711C95.0775 419.321 95.0296 418.928 94.9022 418.558C94.7747 418.188 94.5706 417.849 94.3031 417.563C94.0357 417.278 93.7109 417.052 93.3501 416.9C91.1501 416.04 87.6201 418.41 86.2901 420.04C86.2101 420.14 85.3901 421.42 84.9501 422.13C84.9501 421.33 85.0401 420.52 85.0501 419.71C85.0501 417.35 85.0501 414.97 85.0501 412.59C85.0501 411.86 85.0501 411.13 85.0501 410.4C85.3601 410.48 89.0501 411.4 90.8101 411.14C92.3601 410.86 94.2601 410.09 95.0201 408.6C95.2108 408.258 95.3271 407.879 95.3612 407.489C95.3953 407.099 95.3466 406.706 95.2182 406.335C95.0898 405.965 94.8846 405.626 94.6161 405.341C94.3475 405.056 94.0218 404.831 93.6601 404.68C91.4701 403.82 87.9401 406.19 86.6601 407.82C86.5601 407.95 85.3701 409.82 85.1001 410.27C85.1001 408.67 85.1001 407.07 85.2001 405.5C85.2976 403.374 85.5314 401.256 85.9001 399.16C86.0501 399.16 89.9001 400.22 91.7001 399.9C93.2501 399.63 95.1501 398.9 95.9101 397.37C96.1011 397.028 96.2178 396.65 96.2526 396.261C96.2875 395.871 96.2396 395.478 96.1122 395.108C95.9847 394.738 95.7806 394.399 95.5131 394.113C95.2457 393.828 94.9209 393.602 94.5601 393.45C92.3601 392.59 88.8301 394.96 87.5001 396.59C87.3901 396.72 86.1201 398.7 85.9201 399.08C85.9201 398.96 85.9201 398.83 85.9201 398.71C86.3532 396.619 86.9724 394.571 87.7701 392.59C88.1901 391.49 88.6601 390.46 89.1401 389.47C89.8401 389.74 93.0501 390.9 94.6901 390.8C96.3301 390.7 98.2301 390.14 99.1501 388.8C99.377 388.48 99.5343 388.116 99.6115 387.731C99.6888 387.347 99.6844 386.95 99.5986 386.568C99.5128 386.185 99.3475 385.824 99.1135 385.509C98.8795 385.195 98.5819 384.932 98.2401 384.74C96.1501 383.65 92.3801 385.62 90.8801 387.09C90.8001 387.17 90.0501 388.09 89.5201 388.75C89.7501 388.31 89.9701 387.85 90.1901 387.43C91.0201 385.85 91.8701 384.43 92.6401 383.22C93.0801 382.53 93.5001 381.9 93.8901 381.33C94.7101 381.23 98.0201 380.78 99.4001 379.95C100.78 379.12 102.24 377.73 102.4 376.07C102.454 375.682 102.425 375.287 102.316 374.911C102.207 374.535 102.02 374.186 101.767 373.887C101.514 373.588 101.201 373.346 100.849 373.176C100.496 373.006 100.111 372.912 99.7201 372.9C97.3701 372.9 94.9301 376.37 94.2701 378.38C94.2701 378.55 93.6501 381.38 93.6901 381.38C93.3001 381.93 92.8901 382.52 92.4501 383.18C91.6601 384.39 90.7701 385.77 89.9001 387.34C88.9491 389.019 88.0977 390.752 87.3501 392.53C86.5004 394.519 85.831 396.581 85.3501 398.69C85.3452 398.713 85.3452 398.737 85.3501 398.76C85.2901 398.08 85.0601 396.16 85.0201 396.01C84.5401 394.01 82.3901 390.29 80.0201 390.1C79.6286 390.081 79.2376 390.145 78.8722 390.287C78.5069 390.429 78.1754 390.646 77.8993 390.924C77.6231 391.202 77.4083 391.535 77.2689 391.901C77.1296 392.267 77.0686 392.659 77.0901 393.05C77.0901 394.71 78.5001 396.24 79.7701 397.16C81.2101 398.16 84.9801 398.95 85.2801 399.01C84.8459 401.169 84.5519 403.353 84.4001 405.55C84.3101 406.83 84.2601 408.12 84.2201 409.41C84.1501 408.82 84.0801 408.29 84.0601 408.21C83.5801 406.16 81.4301 402.49 79.0601 402.3C78.6686 402.281 78.2776 402.345 77.9122 402.487C77.5469 402.629 77.2154 402.846 76.9393 403.124C76.6631 403.402 76.4483 403.735 76.309 404.101C76.1696 404.467 76.1086 404.859 76.1301 405.25C76.1301 406.91 77.5401 408.44 78.8101 409.36C80.0801 410.28 83.3101 411.01 84.1601 411.18V412.67C84.1601 415.06 84.1001 417.43 84.0001 419.77C84.0001 420.59 83.9001 421.4 83.8401 422.2C83.7801 421.68 83.7201 421.2 83.7001 421.2C83.2201 419.15 81.0801 415.47 78.7001 415.29C78.3087 415.268 77.9172 415.329 77.5511 415.47C77.1851 415.61 76.8528 415.826 76.5761 416.103C76.2994 416.381 76.0846 416.714 75.9456 417.08C75.8067 417.447 75.7469 417.839 75.7701 418.23C75.7701 419.9 77.1701 421.42 78.4501 422.34C79.7301 423.26 82.6301 423.92 83.6401 424.13C83.5501 424.96 83.4701 425.79 83.3501 426.59C83.2501 427.13 83.2001 427.66 83.0701 428.2C82.9401 428.74 82.8401 429.26 82.7301 429.79C82.4801 430.79 82.2301 431.79 81.9601 432.79C81.7801 433.47 81.5901 434.11 81.4001 434.79C81.4501 433.97 81.5001 432.37 81.4901 432.24C81.2671 430.398 80.5788 428.643 79.4901 427.14C79.4812 426.933 79.4476 426.729 79.3901 426.53C79.3012 426.148 79.1329 425.79 78.8962 425.478C78.6595 425.165 78.3597 424.906 78.0163 424.718C77.673 424.529 77.2937 424.415 76.9032 424.383C76.5127 424.35 76.1198 424.4 75.7501 424.53C73.5501 425.37 72.5201 429.53 72.6401 431.6C72.6401 431.73 72.8601 433.06 73.0201 433.91C72.8501 433.42 72.7001 432.96 72.5201 432.46C72.1801 431.46 71.8101 430.52 71.4101 429.46L70.7801 427.96C70.5801 427.45 70.3101 426.96 70.0701 426.43C69.4901 425.25 68.8501 424.08 68.1801 422.92C69.0401 422.62 72.0601 421.5 73.1801 420.42C74.3001 419.34 75.4701 417.64 75.2901 415.99C75.2603 415.599 75.1484 415.218 74.9615 414.873C74.7746 414.528 74.5171 414.226 74.2056 413.987C73.8942 413.749 73.5359 413.578 73.1541 413.487C72.7723 413.396 72.3757 413.387 71.9901 413.46C69.6901 413.95 68.0501 417.88 67.8401 419.97C67.8401 420.1 67.8401 421.62 67.8401 422.46C67.4301 421.76 67.0301 421.07 66.5901 420.38C65.3301 418.38 63.9901 416.38 62.6701 414.44C62.2601 413.83 61.8601 413.22 61.4601 412.61C61.7701 412.51 65.3901 411.26 66.6701 410.05C67.9501 408.84 68.9701 407.27 68.7901 405.62C68.7588 405.229 68.6458 404.85 68.4585 404.505C68.2712 404.161 68.0137 403.86 67.7026 403.621C67.3915 403.383 67.0339 403.212 66.6527 403.121C66.2716 403.029 65.8755 403.019 65.4901 403.09C63.1901 403.58 61.5501 407.51 61.3401 409.6C61.3401 409.76 61.3401 411.95 61.3401 412.5C60.4601 411.17 59.5901 409.83 58.7901 408.5C57.6974 406.674 56.7285 404.776 55.8901 402.82C56.0301 402.82 59.8101 401.49 61.1301 400.24C62.2701 399.16 63.4301 397.47 63.2401 395.81C63.2101 395.42 63.0984 395.04 62.9122 394.696C62.7259 394.352 62.4693 394.05 62.159 393.812C61.8487 393.573 61.4917 393.402 61.1111 393.311C60.7305 393.219 60.335 393.209 59.9501 393.28C57.6401 393.78 56.0101 397.71 55.8001 399.8C55.8001 399.97 55.8001 402.32 55.8501 402.75C55.8001 402.63 55.7401 402.52 55.6901 402.41C54.9026 400.427 54.2902 398.38 53.8601 396.29C53.6001 395.13 53.4301 394.02 53.2801 392.93C54.0101 392.76 57.3401 391.93 58.6401 390.93C59.9401 389.93 61.2301 388.43 61.2301 386.76C61.2423 386.368 61.1721 385.978 61.024 385.615C60.8759 385.252 60.6533 384.924 60.3705 384.653C60.0877 384.381 59.7511 384.172 59.3823 384.039C59.0136 383.906 58.6211 383.852 58.2301 383.88C55.8901 384.12 53.8301 387.88 53.3901 389.88C53.3901 389.99 53.2501 391.15 53.1801 392C53.1201 391.51 53.0501 391 53.0001 390.53C52.8201 388.76 52.7601 387.12 52.7201 385.67C52.7201 384.85 52.7201 384.1 52.7201 383.41C53.3501 382.87 55.8701 380.67 56.5601 379.22C57.2501 377.77 57.7001 375.8 56.9301 374.32C56.7626 373.963 56.5212 373.646 56.2219 373.39C55.9226 373.133 55.5722 372.944 55.1939 372.833C54.8157 372.722 54.4182 372.693 54.0279 372.748C53.6376 372.803 53.2634 372.94 52.9301 373.15C50.9301 374.44 50.8401 378.69 51.4001 380.72C51.4001 380.9 52.5201 383.56 52.5601 383.53C52.5601 384.2 52.5601 384.92 52.5601 385.7C52.5601 387.16 52.5601 388.8 52.7301 390.58C52.8631 392.506 53.1102 394.423 53.4701 396.32C53.8573 398.447 54.4329 400.535 55.1901 402.56V402.63C54.7601 402.09 53.5101 400.63 53.4001 400.51C51.8601 399.07 48.0501 397.19 45.9801 398.33C45.6427 398.529 45.3511 398.797 45.1241 399.116C44.897 399.435 44.7397 399.798 44.6624 400.182C44.585 400.566 44.5894 400.962 44.6751 401.344C44.7609 401.726 44.9261 402.086 45.1601 402.4C46.1101 403.77 48.1001 404.29 49.6701 404.4C51.4401 404.48 55.0001 403.03 55.2901 402.91C56.1122 404.952 57.071 406.937 58.1601 408.85C58.7801 409.96 59.4501 411.07 60.1601 412.17C59.7801 411.71 59.4301 411.31 59.3701 411.26C57.8401 409.82 54.0201 407.93 51.9601 409.08C51.6227 409.279 51.3311 409.547 51.1041 409.866C50.877 410.185 50.7197 410.548 50.6424 410.932C50.565 411.316 50.5694 411.712 50.6551 412.094C50.7409 412.476 50.9061 412.836 51.1401 413.15C52.1401 414.52 54.0701 415.03 55.6501 415.1C57.2301 415.17 60.3001 413.99 61.1101 413.67C61.3801 414.09 61.6401 414.51 61.9001 414.93C63.1901 416.93 64.4801 418.93 65.6901 420.93C66.1101 421.64 66.5001 422.35 66.9001 423.06C66.5601 422.65 66.2601 422.31 66.2101 422.27C64.6801 420.82 60.8601 418.94 58.8001 420.08C58.4624 420.28 58.1706 420.549 57.9435 420.869C57.7164 421.189 57.5591 421.553 57.4818 421.938C57.4045 422.322 57.4089 422.719 57.4947 423.102C57.5806 423.485 57.7459 423.845 57.9801 424.16C58.9301 425.52 60.9101 426.04 62.4901 426.11C64.0701 426.18 67.1401 424.94 68.1001 424.56Z" fill="#333333"></path><path d="M47.34 392.45C49.1 393.01 53.2 392.45 53.21 392.45C53.22 392.45 52 389.89 52 389.73C50.9 387.94 47.71 385.12 45.42 385.67C45.0416 385.772 44.6891 385.953 44.3855 386.201C44.082 386.449 43.8342 386.758 43.6586 387.108C43.483 387.459 43.3834 387.842 43.3664 388.234C43.3494 388.625 43.4154 389.016 43.56 389.38C44.06 391 45.84 392 47.34 392.45Z" fill="#333333"></path><path d="M404.659 255.073L360.025 279.499C358.301 280.443 357.668 282.606 358.611 284.331L374.074 312.587C375.018 314.312 377.182 314.945 378.906 314.001L423.54 289.575C425.265 288.631 425.898 286.467 424.954 284.743L409.491 256.487C408.547 254.762 406.383 254.129 404.659 255.073Z" fill="#00A0AD" stroke="#333333" stroke-linecap="round" stroke-linejoin="round"></path><path d="M413.544 263.891L362.665 291.735L366.506 298.752L417.385 270.908L413.544 263.891Z" fill="#333333" stroke="#333333" stroke-linecap="round" stroke-linejoin="round"></path><path d="M398.42 263.07C398.247 262.755 397.984 262.499 397.665 262.333C397.346 262.168 396.986 262.1 396.629 262.139C396.271 262.178 395.934 262.322 395.658 262.552C395.383 262.783 395.181 263.09 395.08 263.434C394.978 263.779 394.981 264.146 395.088 264.489C395.195 264.832 395.401 265.136 395.68 265.362C395.959 265.588 396.299 265.727 396.656 265.76C397.014 265.794 397.374 265.721 397.69 265.55C398.115 265.317 398.431 264.926 398.568 264.461C398.705 263.996 398.651 263.496 398.42 263.07Z" fill="white" stroke="#333333" stroke-linecap="round" stroke-linejoin="round"></path><path d="M404.28 259.86C404.106 259.546 403.842 259.29 403.523 259.125C403.203 258.96 402.842 258.894 402.485 258.934C402.128 258.974 401.791 259.119 401.516 259.35C401.241 259.582 401.041 259.89 400.94 260.235C400.84 260.58 400.844 260.947 400.953 261.29C401.061 261.633 401.268 261.936 401.548 262.161C401.828 262.386 402.169 262.523 402.527 262.555C402.885 262.587 403.244 262.512 403.56 262.34C403.984 262.106 404.297 261.713 404.432 261.249C404.567 260.784 404.512 260.285 404.28 259.86Z" fill="white" stroke="#333333" stroke-linecap="round" stroke-linejoin="round"></path><path d="M375.53 306.09L385.66 300.54" stroke="#333333" stroke-linecap="round" stroke-linejoin="round"></path><path d="M376.55 307.95L386.68 302.41" stroke="#333333" stroke-linecap="round" stroke-linejoin="round"></path><path d="M422.515 272.334L372.42 281.239C370.484 281.584 369.194 283.432 369.538 285.368L375.176 317.08C375.52 319.016 377.368 320.306 379.304 319.962L429.398 311.057C431.334 310.713 432.624 308.865 432.28 306.929L426.643 275.216C426.299 273.28 424.45 271.99 422.515 272.334Z" fill="white" stroke="#333333" stroke-linecap="round" stroke-linejoin="round"></path><path d="M428.119 283.517L371.014 293.668L372.414 301.545L429.519 291.394L428.119 283.517Z" fill="#333333" stroke="#333333" stroke-linecap="round" stroke-linejoin="round"></path><path d="M414.05 277.92C414.008 277.684 413.92 277.459 413.791 277.257C413.662 277.056 413.494 276.881 413.298 276.745C413.102 276.608 412.88 276.511 412.646 276.459C412.412 276.408 412.171 276.403 411.935 276.445C411.699 276.487 411.474 276.575 411.272 276.704C411.071 276.833 410.896 277.001 410.759 277.197C410.622 277.393 410.526 277.615 410.474 277.849C410.423 278.083 410.418 278.324 410.46 278.56C410.545 279.036 410.815 279.459 411.212 279.736C411.609 280.012 412.099 280.12 412.575 280.035C413.051 279.95 413.474 279.68 413.75 279.283C414.027 278.886 414.135 278.396 414.05 277.92Z" fill="white" stroke="#333333" stroke-linecap="round" stroke-linejoin="round"></path><path d="M420.63 276.75C420.567 276.396 420.401 276.068 420.152 275.808C419.903 275.548 419.583 275.368 419.232 275.29C418.881 275.212 418.514 275.24 418.179 275.371C417.843 275.501 417.554 275.727 417.348 276.022C417.141 276.316 417.026 276.666 417.018 277.025C417.01 277.385 417.108 277.739 417.301 278.043C417.494 278.346 417.773 278.586 418.102 278.732C418.431 278.877 418.795 278.922 419.15 278.86C419.386 278.82 419.612 278.734 419.815 278.606C420.018 278.478 420.193 278.311 420.331 278.115C420.469 277.918 420.566 277.697 420.617 277.462C420.669 277.228 420.673 276.986 420.63 276.75Z" fill="white" stroke="#333333" stroke-linecap="round" stroke-linejoin="round"></path><path d="M378.63 311.38L390 309.36" stroke="#333333" stroke-linecap="round" stroke-linejoin="round"></path><path d="M379 313.47L390.37 311.45" stroke="#333333" stroke-linecap="round" stroke-linejoin="round"></path><path d="M343.4 210.44H399.6V177.35H343.4V210.44Z" fill="white" stroke="#333333" stroke-linecap="round" stroke-linejoin="round"></path><path d="M381.94 210.44H425.62V177.35H381.94V210.44Z" fill="white" stroke="#333333" stroke-linecap="round" stroke-linejoin="round"></path><path d="M424.58 210.44H455.34V177.35H424.58V210.44Z" fill="white" stroke="#333333" stroke-linecap="round" stroke-linejoin="round"></path><path d="M333.6 210.44H374V177.35H333.6V210.44Z" fill="white" stroke="#333333" stroke-linecap="round" stroke-linejoin="round"></path><path d="M351.55 210.44H365.85V183.77H351.55V210.44Z" fill="#00A0AD" stroke="#333333" stroke-linecap="round" stroke-linejoin="round"></path><path d="M374 177.34L351.56 167.69L333.23 177.34H374Z" fill="white" stroke="#333333" stroke-linecap="round" stroke-linejoin="round"></path><path d="M351.56 167.69H402.8L381.93 177.34H374L351.56 167.69Z" fill="#333333" stroke="#333333" stroke-linecap="round" stroke-linejoin="round"></path><path d="M402.8 167.69H442.07V177.34H381.93L402.8 167.69Z" fill="#333333" stroke="#333333" stroke-linecap="round" stroke-linejoin="round"></path><path d="M442.07 167.69L455.34 177.34H442.07H433.84H424.57L442.07 167.69Z" fill="white" stroke="#333333" stroke-linecap="round" stroke-linejoin="round"></path><path d="M416.47 182.28H420.01V180.04H416.47V182.28Z" fill="white" stroke="#333333" stroke-linecap="round" stroke-linejoin="round"></path><path d="M411.51 182.28H415.05V180.04H411.51V182.28Z" fill="white" stroke="#333333" stroke-linecap="round" stroke-linejoin="round"></path><path d="M406.54 182.28H410.08V180.04H406.54V182.28Z" fill="white" stroke="#333333" stroke-linecap="round" stroke-linejoin="round"></path><path d="M401.59 182.28H405.13V180.04H401.59V182.28Z" fill="white" stroke="#333333" stroke-linecap="round" stroke-linejoin="round"></path><path d="M396.63 182.28H400.17V180.04H396.63V182.28Z" fill="white" stroke="#333333" stroke-linecap="round" stroke-linejoin="round"></path><path d="M391.68 182.28H395.22V180.04H391.68V182.28Z" fill="white" stroke="#333333" stroke-linecap="round" stroke-linejoin="round"></path><path d="M386.72 182.28H390.26V180.04H386.72V182.28Z" fill="white" stroke="#333333" stroke-linecap="round" stroke-linejoin="round"></path><path d="M386.72 210.44H420.01V184.89H386.72V210.44Z" fill="#00A0AD" stroke="#333333" stroke-linecap="round" stroke-linejoin="round"></path><path d="M410.55 193H417.76V187.51H410.55V193Z" stroke="#333333" stroke-linecap="round" stroke-linejoin="round"></path><path d="M399.94 193H407.15V187.51H399.94V193Z" stroke="#333333" stroke-linecap="round" stroke-linejoin="round"></path><path d="M389.34 193H396.55V187.51H389.34V193Z" stroke="#333333" stroke-linecap="round" stroke-linejoin="round"></path><path d="M410.55 200.54H417.76V195.05H410.55V200.54Z" stroke="#333333" stroke-linecap="round" stroke-linejoin="round"></path><path d="M399.94 200.54H407.15V195.05H399.94V200.54Z" stroke="#333333" stroke-linecap="round" stroke-linejoin="round"></path><path d="M389.34 200.54H396.55V195.05H389.34V200.54Z" stroke="#333333" stroke-linecap="round" stroke-linejoin="round"></path><path d="M410.55 208.08H417.76V202.59H410.55V208.08Z" stroke="#333333" stroke-linecap="round" stroke-linejoin="round"></path><path d="M399.94 208.08H407.15V202.59H399.94V208.08Z" stroke="#333333" stroke-linecap="round" stroke-linejoin="round"></path><path d="M389.34 208.08H396.55V202.59H389.34V208.08Z" stroke="#333333" stroke-linecap="round" stroke-linejoin="round"></path><path d="M359.35 197.1H363.9V186.01H359.35V197.1Z" stroke="#333333" stroke-linecap="round" stroke-linejoin="round"></path><path d="M353.43 197.1H357.98V186.01H353.43V197.1Z" stroke="#333333" stroke-linecap="round" stroke-linejoin="round"></path><path d="M359.35 208.46H363.9V199.92H359.35V208.46Z" stroke="#333333" stroke-linecap="round" stroke-linejoin="round"></path><path d="M353.43 208.46H357.98V199.92H353.43V208.46Z" stroke="#333333" stroke-linecap="round" stroke-linejoin="round"></path><path d="M336.22 200.61H349.02V183.78H336.22V200.61Z" fill="white" stroke="#333333" stroke-linecap="round" stroke-linejoin="round"></path><path d="M342.2 184.15V200.6" stroke="#333333" stroke-linecap="round" stroke-linejoin="round"></path><path d="M348.56 192H336.97" stroke="#333333" stroke-linecap="round" stroke-linejoin="round"></path><path d="M433.47 200.61H446.27V183.78H433.47V200.61Z" fill="white" stroke="#333333" stroke-linecap="round" stroke-linejoin="round"></path><path d="M439.45 184.15V200.6" stroke="#333333" stroke-linecap="round" stroke-linejoin="round"></path><path d="M445.81 192H434.22" stroke="#333333" stroke-linecap="round" stroke-linejoin="round"></path><path d="M438.44 153.53C438.44 168.32 443.26 180.31 449.21 180.31C455.16 180.31 459.98 168.31 459.98 153.53C459.98 138.75 455.16 109.58 449.21 109.58C443.26 109.58 438.44 138.73 438.44 153.53Z" fill="#00A0AD" stroke="#333333" stroke-linecap="round" stroke-linejoin="round"></path><path d="M449.6 133.16L451.09 210.44H446.91L449.6 133.16Z" fill="#333333" stroke="#333333" stroke-linecap="round" stroke-linejoin="round"></path><path d="M290 97C290 120.749 270.748 140 247.001 140C223.252 140 204 120.749 204 97C204 73.2513 223.252 54 247.001 54C270.748 54 290 73.2513 290 97Z" fill="#00A0AD"></path><path d="M291 97H288.882C288.882 108.569 284.195 119.032 276.615 126.614C269.031 134.196 258.568 138.882 247.001 138.882C235.432 138.882 224.967 134.196 217.385 126.614C209.805 119.032 205.119 108.569 205.116 97C205.119 85.4312 209.805 74.9682 217.385 67.3863C224.967 59.8044 235.432 55.1206 247.001 55.1184C258.568 55.1206 269.031 59.8044 276.615 67.3863C284.195 74.9682 288.882 85.4312 288.882 97H291C291 72.6994 271.3 53.0021 247.001 53C222.698 53.0021 203 72.6994 203 97C203 121.301 222.698 141 247.001 141C271.3 141 291 121.301 291 97Z" fill="#333333"></path><path d="M228 79.0464H243.639C247.778 79.0464 251.304 81.6639 252.586 85.2976H228L228 91.3439H252.586C251.304 94.9774 247.779 97.5951 243.639 97.5951H228L228 104.22L252.274 128L256.638 123.725L236.138 103.642H243.639C251.206 103.642 257.533 98.3487 258.97 91.3439H265L265 85.2976H258.969C258.494 82.9844 257.489 80.8573 256.079 79.0464H265L265 73H228L228 79.0464H228Z" fill="white"></path><path d="M97.67 124.67H95V152.34H97.67V124.67Z" fill="#333333"></path><path d="M104.618 194.763C108.728 190.54 108.636 183.785 104.413 179.675C100.19 175.565 93.4345 175.657 89.3247 179.88C85.2149 184.103 85.3069 190.859 89.5301 194.969C93.7534 199.078 100.509 198.986 104.618 194.763Z" fill="white" stroke="#333333" stroke-linecap="round" stroke-linejoin="round"></path><path d="M133.04 190.78L107.24 160.61H107.29V148.22H86.3899V160.61H86.6199L60.8999 190.78H133.04Z" fill="#333333"></path><path d="M97.6699 203V211" stroke="#333333" stroke-linecap="round" stroke-linejoin="round"></path><path d="M86.3301 200.33L82.3301 204" stroke="#333333" stroke-linecap="round" stroke-linejoin="round"></path><path d="M108.33 200.33L112.33 204" stroke="#333333" stroke-linecap="round" stroke-linejoin="round"></path><path d="M67.6702 330.83C73.3035 330.83 77.8702 326.263 77.8702 320.63C77.8702 314.997 73.3035 310.43 67.6702 310.43C62.0369 310.43 57.4702 314.997 57.4702 320.63C57.4702 326.263 62.0369 330.83 67.6702 330.83Z" fill="#333333" stroke="#333333" stroke-linecap="round" stroke-linejoin="round"></path><path d="M133.46 330.83C139.093 330.83 143.66 326.263 143.66 320.63C143.66 314.997 139.093 310.43 133.46 310.43C127.826 310.43 123.26 314.997 123.26 320.63C123.26 326.263 127.826 330.83 133.46 330.83Z" fill="#333333" stroke="#333333" stroke-linecap="round" stroke-linejoin="round"></path><path d="M118.9 277.18H84.7302L70.6602 295.27H107.84L118.9 277.18Z" fill="white" stroke="#333333" stroke-linecap="round" stroke-linejoin="round"></path><path d="M115.9 278.3H85.9802L73.6602 294.15H106.22L115.9 278.3Z" fill="white" stroke="#333333" stroke-linecap="round" stroke-linejoin="round"></path><path d="M70.6599 295.27L41.6299 305.82H80.3199L107.84 295.27H70.6599Z" fill="#00A0AD" stroke="#333333" stroke-linecap="round" stroke-linejoin="round"></path><path d="M79.9099 305.82H41.6299V312.98H79.9099V305.82Z" fill="white" stroke="#333333" stroke-linecap="round" stroke-linejoin="round"></path><path d="M67.6701 305.82H51.6001V312.98H67.6701V305.82Z" fill="#333333" stroke="#333333" stroke-linecap="round" stroke-linejoin="round"></path><path d="M81.4401 312.73H39.8701V318.6H81.4401V312.73Z" fill="#333333" stroke="#333333" stroke-linecap="round" stroke-linejoin="round"></path><path d="M162.79 293.09L155.14 277.18H118.9L107.84 295.27L79.9099 305.82L79.3999 318.59H93.8699C94.3504 315.947 95.7432 313.557 97.8055 311.836C99.8678 310.114 102.469 309.172 105.155 309.172C107.841 309.172 110.442 310.114 112.504 311.836C114.567 313.557 115.959 315.947 116.44 318.59H145.38C145.86 315.947 147.253 313.557 149.315 311.836C151.378 310.114 153.979 309.172 156.665 309.172C159.351 309.172 161.952 310.114 164.014 311.836C166.077 313.557 167.469 315.947 167.95 318.59H168.14L174.52 314.26V295.13L162.79 293.09Z" fill="#00A0AD" stroke="#333333" stroke-linecap="round" stroke-linejoin="round"></path><path d="M105.16 330.83C110.793 330.83 115.36 326.263 115.36 320.63C115.36 314.997 110.793 310.43 105.16 310.43C99.5267 310.43 94.96 314.997 94.96 320.63C94.96 326.263 99.5267 330.83 105.16 330.83Z" fill="#333333" stroke="#333333" stroke-linecap="round" stroke-linejoin="round"></path><path d="M105.16 326.93C108.639 326.93 111.46 324.109 111.46 320.63C111.46 317.151 108.639 314.33 105.16 314.33C101.68 314.33 98.8599 317.151 98.8599 320.63C98.8599 324.109 101.68 326.93 105.16 326.93Z" fill="white" stroke="#333333" stroke-linecap="round" stroke-linejoin="round"></path><path d="M156.67 330.83C162.304 330.83 166.87 326.263 166.87 320.63C166.87 314.997 162.304 310.43 156.67 310.43C151.037 310.43 146.47 314.997 146.47 320.63C146.47 326.263 151.037 330.83 156.67 330.83Z" fill="#333333" stroke="#333333" stroke-linecap="round" stroke-linejoin="round"></path><path d="M156.67 326.93C160.15 326.93 162.97 324.109 162.97 320.63C162.97 317.151 160.15 314.33 156.67 314.33C153.191 314.33 150.37 317.151 150.37 320.63C150.37 324.109 153.191 326.93 156.67 326.93Z" fill="white" stroke="#333333" stroke-linecap="round" stroke-linejoin="round"></path><path d="M77.1102 306.61H70.9902V311.46H77.1102V306.61Z" fill="white" stroke="#333333" stroke-linecap="round" stroke-linejoin="round"></path><path d="M49.0502 306.61H42.9302V311.46H49.0502V306.61Z" fill="white" stroke="#333333" stroke-linecap="round" stroke-linejoin="round"></path><path d="M110.77 295.13H138.05V279.07H120.2L110.77 295.13Z" fill="white" stroke="#333333" stroke-linecap="round" stroke-linejoin="round"></path><path d="M140.6 295.13V279.32H153.61L161 295.13H140.6Z" fill="white" stroke="#333333" stroke-linecap="round" stroke-linejoin="round"></path><path d="M139.58 297.17V316.04H118.93" stroke="#333333" stroke-linecap="round" stroke-linejoin="round"></path><path d="M161.77 296.66L163.3 300.49V308.39" stroke="#333333" stroke-linecap="round" stroke-linejoin="round"></path><path d="M133.72 301H136.78" stroke="#333333" stroke-linecap="round" stroke-linejoin="round"></path><path d="M156.67 301H159.73" stroke="#333333" stroke-linecap="round" stroke-linejoin="round"></path><path d="M176.81 310.43H170.69V315.53H176.81V310.43Z" fill="#333333" stroke="#333333" stroke-linecap="round" stroke-linejoin="round"></path><path d="M174.78 300.74H172.48V307.12H174.78V300.74Z" fill="white" stroke="#333333" stroke-linecap="round" stroke-linejoin="round"></path><path d="M90.8201 287.87L88.3301 289.01" stroke="#333333" stroke-linecap="round" stroke-linejoin="round"></path><path d="M108.98 279.58L93.5298 286.64" stroke="#333333" stroke-linecap="round" stroke-linejoin="round"></path><path d="M92.1502 285.19L82.7202 289.52" stroke="#333333" stroke-linecap="round" stroke-linejoin="round"></path><path d="M126.06 290.5L123.26 291.82" stroke="#333333" stroke-linecap="round" stroke-linejoin="round"></path><path d="M136.27 285.7L128.01 289.58" stroke="#333333" stroke-linecap="round" stroke-linejoin="round"></path><path d="M135.25 281.62L130.66 283.66" stroke="#333333" stroke-linecap="round" stroke-linejoin="round"></path><path d="M173.69 138.64L127.08 160.49" stroke="#333333" stroke-linecap="round" stroke-linejoin="round"></path><path d="M203.44 124.7L177.43 136.89" stroke="#333333" stroke-linecap="round" stroke-linejoin="round"></path><path d="M161.91 251.42L150.94 269.45" stroke="#333333" stroke-linecap="round" stroke-linejoin="round"></path><path d="M222.52 151.74L163.98 248.01" stroke="#333333" stroke-linecap="round" stroke-linejoin="round"></path><path d="M298.8 128.39L367.28 160.49" stroke="#333333" stroke-linecap="round" stroke-linejoin="round"></path><path d="M290.93 124.7L295.51 126.84" stroke="#333333" stroke-linecap="round" stroke-linejoin="round"></path><path d="M327.15 242.69L343.42 269.45" stroke="#333333" stroke-linecap="round" stroke-linejoin="round"></path><path d="M271.84 151.74L324.97 239.12" stroke="#333333" stroke-linecap="round" stroke-linejoin="round"></path><path d="M230.58 447.47C230.58 447.47 224.93 454.88 223.37 457.22C221.81 459.56 219.67 462.09 221.23 465.6C222.79 469.11 229.02 469.5 232.53 468.72C236.04 467.94 238.19 464.82 240.14 460.92C242.09 457.02 245.6 453.12 246.38 451.56C247.16 450 247.55 446.1 246.77 445.32C245.99 444.54 234.09 443.18 230.58 447.47Z" fill="#333333"></path><path d="M236 466.92C235.72 466.56 235.42 466.18 235.09 465.8C230.32 460.22 225.77 458.7 222.5 458.53C221.17 460.53 219.97 462.74 221.25 465.6C222.81 469.11 229.04 469.5 232.55 468.72C233.837 468.432 235.027 467.811 236 466.92Z" fill="white" stroke="#333333" stroke-linecap="round" stroke-linejoin="round"></path><path d="M239.16 459.56C236.63 462.87 235.26 467.56 229.41 467.35C227.754 467.267 226.131 466.856 224.634 466.142C223.137 465.428 221.797 464.425 220.69 463.19C220.693 464.023 220.877 464.845 221.23 465.6C222.79 469.11 229.02 469.5 232.53 468.72C236.04 467.94 238.19 464.82 240.14 460.92C242.09 457.02 245.6 453.12 246.38 451.56C243.838 454.101 241.428 456.771 239.16 459.56Z" fill="white" stroke="#333333" stroke-linecap="round" stroke-linejoin="round"></path><path d="M234.48 448.25C234.09 448.83 227.48 453.32 229.22 455.46C230.96 457.6 234.48 456.24 236.63 453.71C238.78 451.18 239.75 449.81 239.75 449.81L234.48 448.25Z" fill="white" stroke="#333333" stroke-linecap="round" stroke-linejoin="round"></path><path d="M271.61 447.47C271.61 447.47 277.26 454.88 278.82 457.22C280.38 459.56 282.53 462.09 280.97 465.6C279.41 469.11 273.17 469.5 269.66 468.72C266.15 467.94 264 464.82 262.05 460.92C260.1 457.02 256.59 453.12 255.81 451.56C255.03 450 254.65 446.1 255.42 445.32C256.19 444.54 268.1 443.18 271.61 447.47Z" fill="#333333"></path><path d="M266.21 466.92C266.49 466.56 266.79 466.18 267.12 465.8C271.89 460.22 276.44 458.7 279.72 458.53C281.05 460.53 282.24 462.74 280.97 465.6C279.41 469.11 273.17 469.5 269.66 468.72C268.374 468.428 267.186 467.808 266.21 466.92Z" fill="white" stroke="#333333" stroke-linecap="round" stroke-linejoin="round"></path><path d="M263 459.56C265.53 462.87 266.9 467.56 272.75 467.35C274.407 467.266 276.032 466.856 277.53 466.142C279.028 465.428 280.371 464.425 281.48 463.19C281.472 464.022 281.288 464.844 280.94 465.6C279.38 469.11 273.14 469.5 269.63 468.72C266.12 467.94 263.97 464.82 262.02 460.92C260.07 457.02 256.56 453.12 255.78 451.56C258.322 454.101 260.732 456.771 263 459.56Z" fill="white" stroke="#333333" stroke-linecap="round" stroke-linejoin="round"></path><path d="M266.21 445.89C266.6 446.47 273.21 450.96 271.47 453.1C269.73 455.24 266.21 453.88 264.06 451.35C261.91 448.82 260.94 447.45 260.94 447.45L266.21 445.89Z" fill="white" stroke="#333333" stroke-linecap="round" stroke-linejoin="round"></path><path d="M226.46 318.34C226.46 318.34 227.7 329.19 227.7 330.75C227.7 332.31 226.81 344.49 228.56 353.85C230.31 363.21 230.56 382.34 228.83 388.39C226.798 394.653 226.732 401.388 228.64 407.69C230.78 415.69 233.9 440.64 232.92 442.4C231.94 444.16 230.58 446.1 230.58 447.47V448.83C230.58 448.83 237.58 450.98 240.53 452.15C241.492 452.465 242.51 452.575 243.517 452.474C244.525 452.372 245.5 452.061 246.38 451.56C247.572 449.676 248.305 447.539 248.52 445.32C248.76 443.055 248.827 440.775 248.72 438.5C248.52 437.33 246.96 402.04 246.57 390.5C246.18 378.96 247.02 345.55 247.02 345.55L251.7 344.38C251.7 344.38 255.35 363.21 255.15 379.58C254.95 395.95 255.15 441.58 254.57 444.71C253.99 447.84 253.97 448.29 254.17 449.65C254.37 451.01 254.56 451.26 255.73 451.85C256.9 452.44 259.05 448.41 263.15 447.44C267.25 446.47 270.36 446.07 270.36 446.07C270.974 444.59 271.24 442.989 271.14 441.39C270.95 438.86 270.95 439.25 270.75 436.13C270.55 433.01 275.43 404.35 274.65 396.74C273.87 389.13 273.29 387.38 273.29 379.19C273.29 371 273.09 333.57 273.09 328.5C273.057 325.037 273.318 321.578 273.87 318.16C274.07 317.58 258.08 322.45 247.55 321.87C240.424 321.363 233.362 320.181 226.46 318.34Z" fill="#333333" stroke="#333333" stroke-linecap="round" stroke-linejoin="round"></path><path d="M279.09 282.75L270.09 268.5L268.59 244.75C268.59 244.75 279.59 259.5 283.84 264.5C288.09 269.5 290.34 278.25 288.59 280.75C286.84 283.25 281.09 287.25 279.09 282.75Z" fill="white" stroke="#333333" stroke-linecap="round" stroke-linejoin="round"></path><path d="M229.36 244.69C229.36 244.69 224.93 246.34 223.59 250C222.25 253.66 200.26 281 200.26 285C200.26 289 207.93 292.33 212.26 292.33C216.59 292.33 217.06 289.76 217.06 289.76L227.59 274.67L229.36 244.69Z" fill="#00A0AD" stroke="#333333" stroke-linecap="round" stroke-linejoin="round"></path><path d="M244.43 242C244.43 242 232.09 243.56 229.36 244.73C226.63 245.9 227.8 268.52 227.8 275.93C227.8 283.34 226.8 310.03 226.46 312.18C226.12 314.33 225.13 319.79 225.13 319.79C227.095 322.874 229.448 325.694 232.13 328.18C237.01 332.86 245 335.39 245 335.39L249.68 326.62L251.05 336.56C254.169 335.812 257.19 334.702 260.05 333.25C263.95 331.1 272.72 322.72 273.31 321.74C273.845 320.672 274.299 319.565 274.67 318.43C274.67 318.43 272.72 250.19 272.53 247.26C272.34 244.33 273.11 243.56 270.97 242.58C268.83 241.6 259.66 240.44 256.73 240.44C253.8 240.44 244.43 242 244.43 242Z" fill="#00A0AD" stroke="#333333" stroke-linecap="round" stroke-linejoin="round"></path><path d="M250.42 316.63L250.25 322.15" stroke="#333333" stroke-linecap="round" stroke-linejoin="round"></path><path d="M252.1 261.57L250.56 312.2" stroke="#333333" stroke-linecap="round" stroke-linejoin="round"></path><path d="M248.33 235.91C248.33 235.91 244.43 236.91 243.26 239.81C242.09 242.71 236.18 248.2 236.18 248.2L245.99 247.81L243.84 251.9L252.42 258.53L260.81 251.71L260.42 248.39L266.07 248.98C266.07 248.98 263.34 241.37 260.42 238.06C257.5 234.75 250.47 234.16 248.33 235.91Z" fill="#00A0AD" stroke="#333333" stroke-linecap="round" stroke-linejoin="round"></path><path d="M247.43 225.83C247.43 225.83 246.38 242.15 246.57 246.25C246.76 250.35 251.25 256.39 252.42 256.78C253.59 257.17 259.82 247.97 259.25 243.52C258.87 240.52 259.33 226.52 259.33 226.52L247.43 225.83Z" fill="white" stroke="#333333" stroke-linecap="round" stroke-linejoin="round"></path><path d="M252.962 219.704C266.525 217.576 276.032 206.362 274.195 194.659C272.358 182.956 259.874 175.194 246.31 177.323C232.746 179.452 223.24 190.665 225.076 202.369C226.913 214.072 239.398 221.833 252.962 219.704Z" fill="#333333"></path><path d="M238.72 215.25C238.72 215.25 235.72 212.56 233.04 212.98C230.36 213.4 231.22 218.98 234.14 221.3C237.06 223.62 239.43 222.24 239.43 222.24C239.43 222.24 242.96 228.4 248.16 230.15C253.36 231.9 259.38 231.15 262.49 227.15C264.273 224.956 265.556 222.4 266.25 219.66C266.25 219.66 271.43 217.46 272.84 213.88C274.25 210.3 272.19 208.46 269.84 208.82C268.349 209.077 266.892 209.507 265.5 210.1C263.517 208.769 262.132 206.717 261.64 204.38C261.07 200.73 263.92 201.27 260.75 197.38C257.58 193.49 254.7 192.8 248.02 194.25C241.34 195.7 237.61 199.63 238.19 203.25C238.77 206.87 241 207.35 240.4 209.81C239.935 211.651 239.375 213.467 238.72 215.25Z" fill="white" stroke="#333333" stroke-linecap="round" stroke-linejoin="round"></path><path d="M253.4 210.15C253.4 210.15 256.31 216.87 255.63 217.99C254.95 219.11 251.83 219.33 250.26 219.11" stroke="#333333" stroke-linecap="round" stroke-linejoin="round"></path><path d="M246.91 209.66C246.869 209.4 246.753 209.158 246.574 208.965C246.396 208.771 246.165 208.635 245.909 208.573C245.654 208.511 245.386 208.526 245.139 208.617C244.892 208.707 244.677 208.869 244.522 209.081C244.367 209.294 244.278 209.547 244.267 209.81C244.256 210.073 244.323 210.333 244.46 210.557C244.597 210.782 244.797 210.961 245.036 211.072C245.274 211.183 245.54 211.22 245.8 211.18C245.973 211.154 246.14 211.095 246.29 211.004C246.44 210.913 246.57 210.794 246.674 210.653C246.777 210.511 246.851 210.35 246.892 210.18C246.932 210.01 246.939 209.833 246.91 209.66Z" fill="#333333"></path><path d="M259 208C258.943 207.65 258.751 207.336 258.465 207.126C258.178 206.917 257.821 206.828 257.47 206.88C257.208 206.921 256.964 207.038 256.769 207.217C256.574 207.397 256.436 207.63 256.374 207.887C256.311 208.145 256.326 208.415 256.417 208.664C256.508 208.913 256.67 209.129 256.884 209.286C257.098 209.442 257.353 209.532 257.618 209.543C257.883 209.555 258.145 209.487 258.371 209.35C258.598 209.212 258.778 209.01 258.89 208.77C259.002 208.53 259.04 208.262 259 208Z" fill="#333333"></path><path d="M241.15 206.2C241.15 206.2 240.97 207.27 242.31 207.12C243.65 206.97 245.04 206.05 246.23 205.91C247.42 205.77 249 205.14 248.73 204.12C248.46 203.1 246.24 203.36 244.37 204.12C242.5 204.88 241.66 205.39 241.15 206.2Z" fill="#333333"></path><path d="M252.64 207.23C252.64 207.23 252.3 208.23 253.64 208.33C254.98 208.43 256.51 207.71 257.71 207.76C258.91 207.81 260.56 207.44 260.46 206.39C260.36 205.34 258.12 205.24 256.15 205.75C254.18 206.26 253.28 206.52 252.64 207.23Z" fill="#333333"></path><path d="M254.05 229.63C252.742 229.702 251.431 229.556 250.17 229.2C248.98 228.66 246.5 228.77 247.47 230.6C248.44 232.43 251.68 232.87 252.65 232.76C253.62 232.65 255.77 231 254.05 229.63Z" fill="white" stroke="#333333" stroke-linecap="round" stroke-linejoin="round"></path><path d="M265.83 242.48L272.14 239.13C267.65 234.13 263.96 230.19 263.96 230.19L260.83 226.83C260.83 226.83 257.17 221.83 256.21 221.33C255.25 220.83 248.82 223.46 248.58 224.18C248.34 224.9 248.1 226.83 249.3 226.83C250.5 226.83 250.92 225.21 250.92 225.21L255.55 224.21L256.75 226.1C256.75 226.1 251.46 228.3 250.75 229.02C250.04 229.74 252.44 234.02 252.92 234.78C253.246 235.16 253.652 235.465 254.108 235.672C254.564 235.879 255.059 235.985 255.56 235.98C256.56 235.98 258.44 234.3 258.44 234.3C258.44 234.3 258.68 236.94 260.36 236.94H263.73C263.73 236.94 264.56 239.15 265.83 242.48Z" fill="white" stroke="#333333" stroke-linecap="round" stroke-linejoin="round"></path><path d="M251.79 232.76C251.79 232.76 251.57 230.49 252.54 229.96C254.173 229.29 255.842 228.713 257.54 228.23" stroke="#333333" stroke-linecap="round" stroke-linejoin="round"></path><path d="M254.05 235.45C254.05 235.45 253.4 232.54 254.27 231.9C255.428 231.309 256.659 230.872 257.93 230.6" stroke="#333333" stroke-linecap="round" stroke-linejoin="round"></path><path d="M258.43 234.27C258.43 234.27 258.69 232.76 258.04 232.76C257.447 232.875 256.891 233.132 256.42 233.51" stroke="#333333" stroke-linecap="round" stroke-linejoin="round"></path><path d="M269.71 235.29L263.56 239.46L265.1 243.63L272.79 237.7L269.71 235.29Z" fill="#00A0AD" stroke="#333333" stroke-linecap="round" stroke-linejoin="round"></path><path d="M265.1 243.63C265.1 243.63 264.19 244.22 266.1 248.98C268.01 253.74 276.1 276.58 278.75 281.85C281.4 287.12 288.41 285.36 292.37 283.39C296.33 281.42 298.96 275.26 296.1 268.01C293.24 260.76 274.36 237.92 274.36 237.92C274.36 237.92 275.02 237.26 272.82 237.7C270.62 238.14 265.1 243.63 265.1 243.63Z" fill="#00A0AD" stroke="#333333" stroke-linecap="round" stroke-linejoin="round"></path><path d="M230.26 298.67L225.59 295.33C225.59 295.33 225.59 291.33 223.59 289.67C221.59 288.01 214.93 285.33 211.93 284.33C208.93 283.33 203.26 281 200.26 285C197.26 289 196.59 294.33 199.59 296.33C202.59 298.33 213.93 304.67 219.26 305.33C224.59 305.99 225.26 303.67 225.26 303.67L227.43 304.35L230.26 298.67Z" fill="#00A0AD" stroke="#333333" stroke-linecap="round" stroke-linejoin="round"></path><path d="M244.1 295.66C244.1 295.66 247.46 298.22 249.58 298.22C251.7 298.22 254.76 298.88 251.72 300.7C248.68 302.52 244.44 302.22 242.61 300.1C240.78 297.98 244.1 295.66 244.1 295.66Z" fill="white" stroke="#333333" stroke-linecap="round" stroke-linejoin="round"></path><path d="M232.29 297.06L239.88 291.9C239.88 291.9 247.47 297.06 247.47 298.9C247.47 300.74 240.85 307.05 240.85 307.05L235.85 306.72C235.85 306.72 235.03 306.8 233.21 306.8C231.39 306.8 227.44 304.37 227.44 304.37C227.44 304.37 225.93 303.15 227.44 300.12C227.909 299.229 228.603 298.477 229.455 297.94C230.306 297.402 231.284 297.099 232.29 297.06Z" fill="white" stroke="#333333" stroke-linecap="round" stroke-linejoin="round"></path><path d="M234.97 306.64L234.74 303.47L237.06 303.32" fill="white"></path><path d="M234.97 306.64L234.74 303.47L237.06 303.32" stroke="#333333" stroke-linecap="round" stroke-linejoin="round"></path><path d="M240.19 294.33L245.95 301.01" stroke="#333333" stroke-linecap="round" stroke-linejoin="round"></path><path d="M237.06 300.15C237.06 300.15 241.7 305.25 241.06 306.56L237.06 300.15Z" fill="white"></path><path d="M237.06 300.15C237.06 300.15 241.7 305.25 241.06 306.56" stroke="#333333" stroke-linecap="round" stroke-linejoin="round"></path><path d="M238.3 297.29C238.3 297.29 242.7 300.77 243.94 303.47L238.3 297.29Z" fill="white"></path><path d="M238.3 297.29C238.3 297.29 242.7 300.77 243.94 303.47" stroke="#333333" stroke-linecap="round" stroke-linejoin="round"></path><path d="M435.47 443.21C428.47 436.83 409.57 432.31 387.47 432.41C366.81 432.51 349.13 436.6 341.33 442.41H336.95L337.07 449.16C337.22 458.26 360.07 465.53 388.02 465.4C415.97 465.27 438.58 457.79 438.42 448.7L438.33 443.29L435.47 443.21Z" fill="white" stroke="#333333" stroke-linecap="round" stroke-linejoin="round"></path><path d="M387.683 459.95C415.673 459.862 438.34 452.417 438.311 443.321C438.283 434.225 415.569 426.922 387.58 427.01C359.59 427.098 336.923 434.543 336.952 443.639C336.98 452.735 359.694 460.038 387.683 459.95Z" fill="white" stroke="#333333" stroke-linecap="round" stroke-linejoin="round"></path><path d="M431 443.27C431.13 451.05 411.83 457.45 387.89 457.56C363.95 457.67 344.44 451.45 344.31 443.67C344.18 435.89 363.48 429.5 387.42 429.39C411.36 429.28 430.86 435.49 431 443.27Z" fill="white" stroke="#333333" stroke-linecap="round" stroke-linejoin="round"></path><path d="M383.87 434.17V432.82H391.09V434.18C397.35 434.57 400.59 436.12 400.63 438.59V439.17H392.28V438.42C392.28 437.11 390.65 436.63 387.84 436.64C385.03 436.65 383.43 437.16 383.46 438.46C383.52 442.21 400.77 442.32 400.86 447.53C400.86 450.01 397.64 451.61 391.39 452.06V453.39H384.17V452.06C377.82 451.68 374.59 450.06 374.54 447.62V446.37H382.89V447.81C382.89 449.11 384.69 449.57 387.49 449.56C390.29 449.55 392.06 449.07 392.04 447.76C391.97 444.01 374.72 443.91 374.63 438.69C374.6 436.22 377.71 434.64 383.87 434.17Z" fill="white" stroke="#333333" stroke-linecap="round" stroke-linejoin="round"></path><path d="M383.86 433.2V431.84H391.08V433.2C397.34 433.58 400.58 435.13 400.62 437.61V438.18H392.28V437.43C392.28 436.12 390.64 435.63 387.83 435.65C385.02 435.67 383.43 436.16 383.45 437.47C383.51 441.22 400.77 441.32 400.85 446.54C400.85 449.02 397.63 450.62 391.38 451.07V452.4H384.16V451.07C377.82 450.68 374.58 449.07 374.54 446.63V445.38H382.88V446.81C382.88 448.12 384.67 448.58 387.48 448.57C390.29 448.56 392.04 448.08 392.02 446.77C391.96 443.02 374.71 442.91 374.62 437.7C374.59 435.25 377.69 433.67 383.86 433.2Z" fill="white" stroke="#333333" stroke-linecap="round" stroke-linejoin="round"></path><path d="M340.4 454.91L340.32 450.07" stroke="#333333" stroke-linecap="round" stroke-linejoin="round"></path><path d="M344.37 457.12L344.29 452.67" stroke="#333333" stroke-linecap="round" stroke-linejoin="round"></path><path d="M348.64 459.19L348.56 454.35" stroke="#333333" stroke-linecap="round" stroke-linejoin="round"></path><path d="M354.49 461.26L354.4 456.02" stroke="#333333" stroke-linecap="round" stroke-linejoin="round"></path><path d="M361.38 460.13L361.34 457.82" stroke="#333333" stroke-linecap="round" stroke-linejoin="round"></path><path d="M361.43 462.93L361.41 462.01" stroke="#333333" stroke-linecap="round" stroke-linejoin="round"></path><path d="M370.41 464.45L370.32 459.35" stroke="#333333" stroke-linecap="round" stroke-linejoin="round"></path><path d="M382.29 461.65L382.26 459.82" stroke="#333333" stroke-linecap="round" stroke-linejoin="round"></path><path d="M382.35 465.18L382.33 463.75" stroke="#333333" stroke-linecap="round" stroke-linejoin="round"></path><path d="M435.47 435.21C428.47 428.83 409.57 424.31 387.47 424.41C366.81 424.51 349.13 428.6 341.33 434.41H336.95L337.07 441.16C337.22 450.26 360.07 457.53 388.02 457.4C415.97 457.27 438.58 449.79 438.42 440.7L438.33 435.29L435.47 435.21Z" fill="white" stroke="#333333" stroke-linecap="round" stroke-linejoin="round"></path><path d="M387.688 451.95C415.678 451.862 438.345 444.417 438.316 435.321C438.287 426.225 415.574 418.922 387.585 419.01C359.595 419.098 336.928 426.543 336.957 435.639C336.985 444.735 359.698 452.038 387.688 451.95Z" fill="white" stroke="#333333" stroke-linecap="round" stroke-linejoin="round"></path><path d="M431 435.27C431.13 443.05 411.83 449.45 387.89 449.56C363.95 449.67 344.44 443.45 344.31 435.67C344.18 427.89 363.48 421.5 387.42 421.39C411.36 421.28 430.86 427.49 431 435.27Z" fill="white" stroke="#333333" stroke-linecap="round" stroke-linejoin="round"></path><path d="M383.87 426.17V424.82H391.09V426.18C397.35 426.57 400.59 428.12 400.63 430.59V431.17H392.28V430.42C392.28 429.11 390.65 428.63 387.84 428.64C385.03 428.65 383.43 429.16 383.46 430.46C383.52 434.21 400.77 434.32 400.86 439.53C400.86 442.01 397.64 443.61 391.39 444.06V445.39H384.17V444.06C377.82 443.68 374.59 442.06 374.54 439.62V438.37H382.89V439.81C382.89 441.11 384.69 441.57 387.49 441.56C390.29 441.55 392.06 441.07 392.04 439.76C391.97 436.01 374.72 435.91 374.63 430.69C374.6 428.22 377.71 426.64 383.87 426.17Z" fill="white" stroke="#333333" stroke-linecap="round" stroke-linejoin="round"></path><path d="M383.86 425.2V423.84H391.08V425.2C397.34 425.58 400.58 427.13 400.62 429.61V430.18H392.28V429.43C392.28 428.12 390.64 427.63 387.83 427.65C385.02 427.67 383.43 428.16 383.45 429.47C383.51 433.22 400.77 433.32 400.85 438.54C400.85 441.02 397.63 442.62 391.38 443.07V444.4H384.16V443.07C377.82 442.68 374.58 441.07 374.54 438.63V437.38H382.88V438.81C382.88 440.12 384.67 440.58 387.48 440.57C390.29 440.56 392.04 440.08 392.02 438.77C391.96 435.02 374.71 434.91 374.62 429.7C374.59 427.25 377.69 425.67 383.86 425.2Z" fill="white" stroke="#333333" stroke-linecap="round" stroke-linejoin="round"></path><path d="M340.4 446.91L340.32 442.07" stroke="#333333" stroke-linecap="round" stroke-linejoin="round"></path><path d="M344.37 449.12L344.29 444.67" stroke="#333333" stroke-linecap="round" stroke-linejoin="round"></path><path d="M348.64 451.19L348.56 446.35" stroke="#333333" stroke-linecap="round" stroke-linejoin="round"></path><path d="M354.49 453.26L354.4 448.02" stroke="#333333" stroke-linecap="round" stroke-linejoin="round"></path><path d="M361.38 452.13L361.34 449.82" stroke="#333333" stroke-linecap="round" stroke-linejoin="round"></path><path d="M361.43 454.93L361.41 454.01" stroke="#333333" stroke-linecap="round" stroke-linejoin="round"></path><path d="M370.41 456.45L370.32 451.35" stroke="#333333" stroke-linecap="round" stroke-linejoin="round"></path><path d="M382.29 453.65L382.26 451.82" stroke="#333333" stroke-linecap="round" stroke-linejoin="round"></path><path d="M382.35 457.18L382.33 455.75" stroke="#333333" stroke-linecap="round" stroke-linejoin="round"></path><path d="M438.52 427.21C431.52 420.83 412.62 416.31 390.52 416.41C369.87 416.51 352.19 420.6 344.39 426.41H340.01L340.12 433.16C340.28 442.26 363.12 449.53 391.12 449.4C419.12 449.27 441.68 441.79 441.52 432.7L441.43 427.29L438.52 427.21Z" fill="white" stroke="#333333" stroke-linecap="round" stroke-linejoin="round"></path><path d="M390.733 443.951C418.723 443.863 441.39 436.417 441.361 427.321C441.332 418.225 418.619 410.923 390.629 411.011C362.64 411.099 339.973 418.544 340.001 427.64C340.03 436.736 362.743 444.038 390.733 443.951Z" fill="white" stroke="#333333" stroke-linecap="round" stroke-linejoin="round"></path><path d="M434 427.27C434.13 435.05 414.83 441.45 390.89 441.56C366.95 441.67 347.44 435.45 347.31 427.67C347.18 419.89 366.48 413.5 390.41 413.39C414.34 413.28 433.9 419.49 434 427.27Z" fill="white" stroke="#333333" stroke-linecap="round" stroke-linejoin="round"></path><path d="M386.92 418.17V416.82H394.14V418.18C400.41 418.57 403.64 420.12 403.69 422.59V423.17H395.34V422.42C395.34 421.11 393.71 420.63 390.9 420.64C388.09 420.65 386.49 421.16 386.51 422.46C386.58 426.21 403.83 426.32 403.92 431.53C403.92 434.01 400.7 435.61 394.45 436.06V437.39H387.23V436.06C380.88 435.68 377.65 434.06 377.6 431.62V430.37H385.95V431.81C385.95 433.11 387.74 433.57 390.55 433.56C393.36 433.55 395.12 433.07 395.1 431.76C395.03 428.01 377.78 427.91 377.69 422.69C377.65 420.22 380.75 418.64 386.92 418.17Z" fill="white" stroke="#333333" stroke-linecap="round" stroke-linejoin="round"></path><path d="M386.91 417.2V415.84H394.13V417.2C400.39 417.58 403.63 419.13 403.67 421.61V422.18H395.33V421.43C395.33 420.12 393.7 419.63 390.89 419.65C388.08 419.67 386.49 420.16 386.51 421.47C386.57 425.22 403.82 425.32 403.91 430.54C403.91 433.02 400.69 434.62 394.44 435.07V436.4H387.22V435.07C380.87 434.68 377.64 433.07 377.6 430.63V429.38H385.94V430.81C385.94 432.12 387.74 432.58 390.55 432.57C393.36 432.56 395.11 432.08 395.09 430.77C395.03 427.02 377.77 426.91 377.69 421.7C377.63 419.25 380.74 417.67 386.91 417.2Z" fill="white" stroke="#333333" stroke-linecap="round" stroke-linejoin="round"></path><path d="M343.45 438.91L343.37 434.07" stroke="#333333" stroke-linecap="round" stroke-linejoin="round"></path><path d="M347.41 441.12L347.34 436.67" stroke="#333333" stroke-linecap="round" stroke-linejoin="round"></path><path d="M351.69 443.19L351.61 438.35" stroke="#333333" stroke-linecap="round" stroke-linejoin="round"></path><path d="M357.54 445.26L357.45 440.02" stroke="#333333" stroke-linecap="round" stroke-linejoin="round"></path><path d="M364.43 444.13L364.39 441.82" stroke="#333333" stroke-linecap="round" stroke-linejoin="round"></path><path d="M364.48 446.93L364.46 446.01" stroke="#333333" stroke-linecap="round" stroke-linejoin="round"></path><path d="M373.45 448.45L373.37 443.35" stroke="#333333" stroke-linecap="round" stroke-linejoin="round"></path><path d="M385.34 445.65L385.31 443.82" stroke="#333333" stroke-linecap="round" stroke-linejoin="round"></path><path d="M385.4 449.18L385.38 447.75" stroke="#333333" stroke-linecap="round" stroke-linejoin="round"></path><path d="M431.86 419.21C424.86 412.83 405.95 408.31 383.86 408.41C363.21 408.51 345.52 412.6 337.72 418.41H333.34L333.46 425.16C333.61 434.26 356.46 441.53 384.46 441.4C412.46 441.27 435.01 433.79 434.86 424.7L434.77 419.29L431.86 419.21Z" fill="white" stroke="#333333" stroke-linecap="round" stroke-linejoin="round"></path><path d="M384.078 435.952C412.067 435.864 434.734 428.418 434.706 419.322C434.677 410.226 411.964 402.924 383.974 403.012C355.985 403.1 333.318 410.545 333.346 419.641C333.375 428.737 356.088 436.039 384.078 435.952Z" fill="white" stroke="#333333" stroke-linecap="round" stroke-linejoin="round"></path><path d="M427.37 419.27C427.5 427.05 408.2 433.45 384.26 433.56C360.32 433.67 340.81 427.45 340.68 419.67C340.55 411.89 359.85 405.5 383.79 405.39C407.73 405.28 427.24 411.49 427.37 419.27Z" fill="white" stroke="#333333" stroke-linecap="round" stroke-linejoin="round"></path><path d="M380.26 410.17V408.82H387.49V410.18C393.75 410.57 396.99 412.12 397.03 414.59V415.17H388.69V414.42C388.69 413.11 387.06 412.63 384.25 412.64C381.44 412.65 379.85 413.16 379.87 414.46C379.93 418.21 397.19 418.32 397.27 423.53C397.32 426.01 394.05 427.61 387.8 428.06V429.39H380.58V428.06C374.24 427.68 371 426.06 370.96 423.62V422.37H379.3V423.81C379.3 425.11 381.1 425.57 383.91 425.56C386.72 425.55 388.47 425.07 388.45 423.76C388.39 420.01 371.13 419.91 371.05 414.69C371 412.22 374.09 410.64 380.26 410.17Z" fill="white" stroke="#333333" stroke-linecap="round" stroke-linejoin="round"></path><path d="M380.24 409.2V407.84H387.46V409.2C393.73 409.58 396.96 411.13 397 413.61V414.18H388.66V413.43C388.66 412.12 387.02 411.63 384.21 411.65C381.4 411.67 379.81 412.16 379.83 413.47C379.9 417.22 397.15 417.32 397.24 422.54C397.24 425.02 394.02 426.62 387.76 427.07V428.4H380.54V427.07C374.2 426.68 370.96 425.07 370.92 422.63V421.38H379.26V422.81C379.26 424.12 381.05 424.58 383.86 424.57C386.67 424.56 388.43 424.08 388.41 422.77C388.34 419.02 371.09 418.91 371 413.7C371 411.25 374.07 409.67 380.24 409.2Z" fill="white" stroke="#333333" stroke-linecap="round" stroke-linejoin="round"></path><path d="M336.78 430.91L336.7 426.07" stroke="#333333" stroke-linecap="round" stroke-linejoin="round"></path><path d="M340.75 433.12L340.67 428.67" stroke="#333333" stroke-linecap="round" stroke-linejoin="round"></path><path d="M345.02 435.19L344.94 430.35" stroke="#333333" stroke-linecap="round" stroke-linejoin="round"></path><path d="M350.87 437.26L350.78 432.02" stroke="#333333" stroke-linecap="round" stroke-linejoin="round"></path><path d="M357.76 436.13L357.72 433.82" stroke="#333333" stroke-linecap="round" stroke-linejoin="round"></path><path d="M357.81 438.93L357.79 438.01" stroke="#333333" stroke-linecap="round" stroke-linejoin="round"></path><path d="M366.79 440.45L366.7 435.35" stroke="#333333" stroke-linecap="round" stroke-linejoin="round"></path><path d="M378.68 437.65L378.65 435.82" stroke="#333333" stroke-linecap="round" stroke-linejoin="round"></path><path d="M378.74 441.18L378.71 439.75" stroke="#333333" stroke-linecap="round" stroke-linejoin="round"></path><path d="M435.47 411.21C428.47 404.83 409.57 400.31 387.47 400.41C366.81 400.51 349.13 404.6 341.33 410.41H336.95L337.07 417.16C337.22 426.26 360.07 433.53 388.02 433.4C415.97 433.27 438.58 425.79 438.42 416.7L438.33 411.29L435.47 411.21Z" fill="white" stroke="#333333" stroke-linecap="round" stroke-linejoin="round"></path><path d="M387.683 427.95C415.672 427.862 438.339 420.417 438.311 411.321C438.282 402.225 415.569 394.922 387.579 395.01C359.59 395.098 336.923 402.543 336.951 411.639C336.98 420.735 359.693 428.038 387.683 427.95Z" fill="white" stroke="#333333" stroke-linecap="round" stroke-linejoin="round"></path><path d="M431 411.27C431.13 419.05 411.83 425.45 387.89 425.56C363.95 425.67 344.44 419.45 344.31 411.67C344.18 403.89 363.48 397.5 387.42 397.39C411.36 397.28 430.86 403.49 431 411.27Z" fill="white" stroke="#333333" stroke-linecap="round" stroke-linejoin="round"></path><path d="M383.87 402.17V400.82H391.09V402.18C397.35 402.57 400.59 404.12 400.63 406.59V407.17H392.28V406.42C392.28 405.11 390.65 404.63 387.84 404.64C385.03 404.65 383.43 405.16 383.46 406.46C383.52 410.21 400.77 410.32 400.86 415.53C400.86 418.01 397.64 419.61 391.39 420.06V421.39H384.17V420.06C377.82 419.68 374.59 418.06 374.54 415.62V414.37H382.89V415.81C382.89 417.11 384.69 417.57 387.49 417.56C390.29 417.55 392.06 417.07 392.04 415.76C391.97 412.01 374.72 411.91 374.63 406.69C374.6 404.22 377.71 402.64 383.87 402.17Z" fill="white" stroke="#333333" stroke-linecap="round" stroke-linejoin="round"></path><path d="M383.86 401.2V399.84H391.08V401.2C397.34 401.58 400.58 403.13 400.62 405.61V406.18H392.28V405.43C392.28 404.12 390.64 403.63 387.83 403.65C385.02 403.67 383.43 404.16 383.45 405.47C383.51 409.22 400.77 409.32 400.85 414.54C400.85 417.02 397.63 418.62 391.38 419.07V420.4H384.16V419.07C377.82 418.68 374.58 417.07 374.54 414.63V413.38H382.88V414.81C382.88 416.12 384.67 416.58 387.48 416.57C390.29 416.56 392.04 416.08 392.02 414.77C391.96 411.02 374.71 410.91 374.62 405.7C374.59 403.25 377.69 401.67 383.86 401.2Z" fill="white" stroke="#333333" stroke-linecap="round" stroke-linejoin="round"></path><path d="M340.4 422.91L340.32 418.07" stroke="#333333" stroke-linecap="round" stroke-linejoin="round"></path><path d="M344.37 425.12L344.29 420.67" stroke="#333333" stroke-linecap="round" stroke-linejoin="round"></path><path d="M348.64 427.19L348.56 422.35" stroke="#333333" stroke-linecap="round" stroke-linejoin="round"></path><path d="M354.49 429.26L354.4 424.02" stroke="#333333" stroke-linecap="round" stroke-linejoin="round"></path><path d="M361.38 428.13L361.34 425.82" stroke="#333333" stroke-linecap="round" stroke-linejoin="round"></path><path d="M361.43 430.93L361.41 430.01" stroke="#333333" stroke-linecap="round" stroke-linejoin="round"></path><path d="M370.41 432.45L370.32 427.35" stroke="#333333" stroke-linecap="round" stroke-linejoin="round"></path><path d="M382.29 429.65L382.26 427.82" stroke="#333333" stroke-linecap="round" stroke-linejoin="round"></path><path d="M382.35 433.18L382.33 431.75" stroke="#333333" stroke-linecap="round" stroke-linejoin="round"></path><path d="M437.76 403.21C430.76 396.83 411.86 392.31 389.76 392.41C369.11 392.51 351.42 396.6 343.63 402.41H339.25L339.36 409.16C339.52 418.26 362.36 425.53 390.36 425.4C418.36 425.27 440.91 417.79 440.76 408.7L440.67 403.29L437.76 403.21Z" fill="white" stroke="#333333" stroke-linecap="round" stroke-linejoin="round"></path><path d="M389.978 419.943C417.967 419.855 440.634 412.41 440.606 403.314C440.577 394.218 417.864 386.915 389.874 387.003C361.884 387.091 339.218 394.536 339.246 403.632C339.275 412.728 361.988 420.031 389.978 419.943Z" fill="white" stroke="#333333" stroke-linecap="round" stroke-linejoin="round"></path><path d="M433.27 403.27C433.4 411.05 414.11 417.45 390.17 417.56C366.23 417.67 346.72 411.45 346.59 403.67C346.46 395.89 365.75 389.5 389.69 389.39C413.63 389.28 433.14 395.49 433.27 403.27Z" fill="white" stroke="#333333" stroke-linecap="round" stroke-linejoin="round"></path><path d="M386.16 394.17V392.82H393.38V394.18C399.65 394.57 402.88 396.12 402.92 398.59V399.17H394.58V398.42C394.58 397.11 392.94 396.63 390.13 396.64C387.32 396.65 385.73 397.16 385.75 398.46C385.82 402.21 403.07 402.32 403.16 407.53C403.16 410.01 399.94 411.61 393.68 412.06V413.39H386.46V412.06C380.12 411.68 376.88 410.06 376.84 407.62V406.37H385.18V407.81C385.18 409.11 386.97 409.57 389.78 409.56C392.59 409.55 394.35 409.07 394.32 407.76C394.26 404.01 377.01 403.91 376.92 398.69C376.89 396.22 380 394.64 386.16 394.17Z" fill="white" stroke="#333333" stroke-linecap="round" stroke-linejoin="round"></path><path d="M386.14 393.2V391.84H393.36V393.2C399.62 393.58 402.86 395.13 402.9 397.61V398.18H394.55V397.43C394.55 396.12 392.92 395.63 390.11 395.65C387.3 395.67 385.7 396.16 385.73 397.47C385.79 401.22 403.04 401.32 403.13 406.54C403.13 409.02 399.91 410.62 393.66 411.07V412.4H386.44V411.07C380.09 410.68 376.86 409.07 376.81 406.63V405.38H385.16V406.81C385.16 408.12 386.96 408.58 389.76 408.57C392.56 408.56 394.33 408.08 394.31 406.77C394.24 403.02 376.99 402.91 376.9 397.7C376.87 395.25 380 393.67 386.14 393.2Z" fill="white" stroke="#333333" stroke-linecap="round" stroke-linejoin="round"></path><path d="M342.69 414.91L342.61 410.07" stroke="#333333" stroke-linecap="round" stroke-linejoin="round"></path><path d="M346.65 417.12L346.58 412.67" stroke="#333333" stroke-linecap="round" stroke-linejoin="round"></path><path d="M350.93 419.19L350.85 414.35" stroke="#333333" stroke-linecap="round" stroke-linejoin="round"></path><path d="M356.77 421.26L356.69 416.02" stroke="#333333" stroke-linecap="round" stroke-linejoin="round"></path><path d="M363.67 420.13L363.63 417.82" stroke="#333333" stroke-linecap="round" stroke-linejoin="round"></path><path d="M363.71 422.93L363.7 422.01" stroke="#333333" stroke-linecap="round" stroke-linejoin="round"></path><path d="M372.69 424.45L372.61 419.35" stroke="#333333" stroke-linecap="round" stroke-linejoin="round"></path><path d="M384.58 421.65L384.55 419.82" stroke="#333333" stroke-linecap="round" stroke-linejoin="round"></path><path d="M384.64 425.18L384.62 423.75" stroke="#333333" stroke-linecap="round" stroke-linejoin="round"></path><path d="M433 395.21C426 388.83 407.1 384.31 385 384.41C364.34 384.51 346.66 388.6 338.86 394.41H334.48L334.6 401.16C334.75 410.26 357.6 417.53 385.55 417.4C413.5 417.27 436.11 409.79 435.95 400.7L435.86 395.29L433 395.21Z" fill="white" stroke="#333333" stroke-linecap="round" stroke-linejoin="round"></path><path d="M385.192 411.948C413.182 411.86 435.849 404.415 435.82 395.319C435.792 386.223 413.079 378.92 385.089 379.008C357.099 379.096 334.432 386.541 334.461 395.637C334.489 404.733 357.203 412.036 385.192 411.948Z" fill="white" stroke="#333333" stroke-linecap="round" stroke-linejoin="round"></path><path d="M428.5 395.27C428.63 403.05 409.33 409.45 385.39 409.56C361.45 409.67 341.94 403.45 341.81 395.67C341.68 387.89 361 381.5 384.92 381.39C408.84 381.28 428.37 387.49 428.5 395.27Z" fill="white" stroke="#333333" stroke-linecap="round" stroke-linejoin="round"></path><path d="M381.39 386.17V384.82H388.61V386.18C394.87 386.57 398.11 388.12 398.15 390.59V391.17H389.8V390.42C389.8 389.11 388.17 388.63 385.36 388.64C382.55 388.65 380.95 389.16 380.98 390.46C381.04 394.21 398.29 394.32 398.38 399.53C398.38 402.01 395.16 403.61 388.91 404.06V405.39H381.69V404.06C375.34 403.68 372.11 402.06 372.07 399.62V398.37H380.42V399.81C380.42 401.11 382.22 401.57 385.02 401.56C387.82 401.55 389.59 401.07 389.57 399.76C389.51 396.01 372.25 395.91 372.16 390.69C372.11 388.22 375.22 386.64 381.39 386.17Z" fill="white" stroke="#333333" stroke-linecap="round" stroke-linejoin="round"></path><path d="M381.37 385.2V383.84H388.59V385.2C394.86 385.58 398.09 387.13 398.13 389.61V390.18H389.79V389.43C389.79 388.12 388.15 387.63 385.34 387.65C382.53 387.67 380.94 388.16 380.96 389.47C381.02 393.22 398.28 393.32 398.36 398.54C398.41 401.02 395.14 402.62 388.89 403.07V404.4H381.67V403.07C375.33 402.68 372.09 401.07 372.05 398.63V397.38H380.39V398.81C380.39 400.12 382.18 400.58 384.99 400.57C387.8 400.56 389.55 400.08 389.53 398.77C389.47 395.02 372.22 394.91 372.13 389.7C372.1 387.25 375.2 385.67 381.37 385.2Z" fill="white" stroke="#333333" stroke-linecap="round" stroke-linejoin="round"></path><path d="M337.91 406.91L337.83 402.07" stroke="#333333" stroke-linecap="round" stroke-linejoin="round"></path><path d="M341.88 409.12L341.8 404.67" stroke="#333333" stroke-linecap="round" stroke-linejoin="round"></path><path d="M346.15 411.19L346.07 406.35" stroke="#333333" stroke-linecap="round" stroke-linejoin="round"></path><path d="M352 413.26L351.91 408.02" stroke="#333333" stroke-linecap="round" stroke-linejoin="round"></path><path d="M358.89 412.13L358.85 409.82" stroke="#333333" stroke-linecap="round" stroke-linejoin="round"></path><path d="M358.94 414.93L358.92 414.01" stroke="#333333" stroke-linecap="round" stroke-linejoin="round"></path><path d="M367.92 416.45L367.83 411.35" stroke="#333333" stroke-linecap="round" stroke-linejoin="round"></path><path d="M379.81 413.65L379.77 411.82" stroke="#333333" stroke-linecap="round" stroke-linejoin="round"></path><path d="M379.86 417.18L379.84 415.75" stroke="#333333" stroke-linecap="round" stroke-linejoin="round"></path></svg>