<svg id="linkedin" xmlns="http://www.w3.org/2000/svg" width="24" height="24" viewBox="0 0 24 24">
  <circle id="Ellipse_97" data-name="Ellipse 97" cx="12" cy="12" r="12" fill="#e27e28"/>
  <g id="Group_3372" data-name="Group 3372" transform="translate(5.79 5.127)">
    <path id="Path_594" data-name="Path 594" d="M40.448,31.807v4.947H37.579V32.139c0-1.159-.414-1.95-1.453-1.95a1.569,1.569,0,0,0-1.471,1.049,1.963,1.963,0,0,0-.095.7v4.818H31.692s.039-7.818,0-8.627h2.869V29.35c-.006.01-.014.019-.019.028h.019V29.35a2.848,2.848,0,0,1,2.585-1.425c1.887,0,3.3,1.233,3.3,3.882ZM28.691,23.969a1.495,1.495,0,1,0-.038,2.981h.019a1.5,1.5,0,1,0,.019-2.981ZM27.238,36.754h2.867V28.127H27.238Z" transform="translate(-27.068 -23.969)" fill="#f1f2f2"/>
  </g>
</svg>
