<svg xmlns="http://www.w3.org/2000/svg" width="96" height="96" viewBox="0 0 96 96">
  <g id="Group_16261" data-name="Group 16261" transform="translate(-745.855 -2660)">
    <g id="Group_14420" data-name="Group 14420" transform="translate(745.855 2660)">
      <g id="Group_14419" data-name="Group 14419" transform="translate(0 0)">
        <g id="Rectangle_6868" data-name="Rectangle 6868" transform="translate(0.193 0.193)" fill="#fff" stroke="#707070" stroke-width="1" opacity="0">
          <rect width="95.613" height="95.613" stroke="none"/>
          <rect x="0.5" y="0.5" width="94.613" height="94.613" fill="none"/>
        </g>
        <g id="_037-health_insurance" data-name="037-health insurance" transform="translate(0 0)">
          <g id="Group_13976" data-name="Group 13976">
            <path id="Path_14029" data-name="Path 14029" d="M40.724,79.089a2.009,2.009,0,0,1-1.034-.281C30.38,73.315,0,53.066,0,23.2,0,10.405,10.758,0,23.981,0A24.093,24.093,0,0,1,43.747,9.675,24.093,24.093,0,0,1,63.512,0C76.736,0,87.494,10.405,87.494,23.2A45.813,45.813,0,0,1,86.46,32.82a2.008,2.008,0,0,1-2.354,1.493,1.931,1.931,0,0,1-1.543-2.277,42.113,42.113,0,0,0,.954-8.84c0-10.671-8.972-19.349-20-19.349-7.847,0-14.735,4.008-17.98,10.459a2.106,2.106,0,0,1-3.575,0C38.716,7.855,31.824,3.847,23.981,3.847c-11.032,0-20,8.678-20,19.349,0,27.87,28.921,47.1,37.781,52.331a1.886,1.886,0,0,1,.664,2.643,2,2,0,0,1-1.7.919Z" transform="translate(0 0)" fill="#e27e28"/>
          </g>
          <g id="Group_13977" data-name="Group 13977" transform="translate(44.962 36.454)">
            <path id="Path_14030" data-name="Path 14030" d="M37.519,69.546a2.063,2.063,0,0,1-.825-.17C35.682,68.954,12,58.717,12,37.8V20.026a2.133,2.133,0,0,1,1.446-2.016l23.393-7.9a2.13,2.13,0,0,1,1.361,0l23.393,7.9a2.125,2.125,0,0,1,1.446,2.016V37.8c0,20.917-23.682,31.155-24.694,31.58A2.134,2.134,0,0,1,37.519,69.546ZM16.253,21.553V37.8c0,16.1,17.247,25.341,21.266,27.28,4.015-1.944,21.266-11.22,21.266-27.28V21.553L37.519,14.373Z" transform="translate(-12 -10)" fill="#e27e28"/>
          </g>
          <g id="Group_13978" data-name="Group 13978" transform="translate(57.72 57.152)">
            <path id="Path_14031" data-name="Path 14031" d="M25.634,33.64a1.113,1.113,0,0,1-.119,0,2.133,2.133,0,0,1-1.544-.8L15.464,22.208a2.127,2.127,0,1,1,3.322-2.658l7.022,8.779L39.014,15.122a2.126,2.126,0,1,1,3.007,3.007L27.135,33.015A2.1,2.1,0,0,1,25.634,33.64Z" transform="translate(-15 -14.5)" fill="#e27e28"/>
          </g>
        </g>
      </g>
    </g>
  </g>
</svg>
