<svg xmlns="http://www.w3.org/2000/svg" width="96" height="96" viewBox="0 0 96 96">
  <g id="Group_14887" data-name="Group 14887" transform="translate(0 -0.086)">
    <g id="Rectangle_6656" data-name="Rectangle 6656" transform="translate(0 0.086)" fill="#e27e28" stroke="#707070" stroke-width="1" opacity="0">
      <rect width="96" height="96" stroke="none"/>
      <rect x="0.5" y="0.5" width="95" height="95" fill="none"/>
    </g>
    <g id="growth" transform="translate(0.001 1.799)">
      <path id="Path_14850" data-name="Path 14850" d="M22.84,65.889a2.006,2.006,0,0,1-.735-.142,33.574,33.574,0,1,1,46.047-31.17A33.766,33.766,0,0,1,53.469,62.385a1.974,1.974,0,0,1-2.236-3.255A29.645,29.645,0,1,0,4.95,34.576a29.491,29.491,0,0,0,18.625,27.5,1.975,1.975,0,0,1-.735,3.808Z" transform="translate(2.95 -1)" fill="#e27e28"/>
      <path id="Path_14854" data-name="Path 14854" d="M1.975,59.4A1.973,1.973,0,0,1,.912,55.761L44.364,28.11a1.972,1.972,0,0,1,2.457.269l14.4,14.4,30.2-30.2a1.975,1.975,0,0,1,2.793,2.793l-31.6,31.6a1.976,1.976,0,0,1-2.793,0L45.142,32.29l-42.1,26.8a1.963,1.963,0,0,1-1.063.308Z" transform="translate(0 31.454)" fill="#e27e28"/>
      <path id="Path_14855" data-name="Path 14855" d="M36.776,31.751A1.976,1.976,0,0,1,34.8,29.776V15.95H20.975a1.975,1.975,0,0,1,0-3.95h15.8a1.976,1.976,0,0,1,1.975,1.975v15.8A1.976,1.976,0,0,1,36.776,31.751Z" transform="translate(56.052 31.451)" fill="#e27e28"/>
      <path id="Path_14869" data-name="Path 14869" d="M33.281,8.58A1.581,1.581,0,0,0,31.7,7H9.58a1.58,1.58,0,1,0,0,3.16h7.9a6.327,6.327,0,0,1,6.32,6.32H9.58a1.58,1.58,0,1,0,0,3.16H22.922a6.3,6.3,0,0,1-5.442,3.16H9.58a1.582,1.582,0,0,0-.989,2.816l15.8,12.64a1.6,1.6,0,0,0,.989.344,1.581,1.581,0,0,0,.989-2.816L14.087,25.961h3.394a9.467,9.467,0,0,0,8.9-6.32H31.7a1.58,1.58,0,1,0,0-3.16h-4.74A9.419,9.419,0,0,0,24.5,10.16H31.7a1.581,1.581,0,0,0,1.58-1.58Z" transform="translate(17.675 10.776)" fill="#e27e28"/>
    </g>
  </g>
</svg>
