<svg xmlns="http://www.w3.org/2000/svg" width="400" height="400" viewBox="0 0 400 400" fill="none"><path opacity="0.9" d="M376.736 224.048C364.96 255.592 340.896 289.736 307.032 299.84C255.832 315.12 249.752 356.368 158.104 352.544C144.722 352.045 131.433 350.095 118.472 346.728C112.134 345.064 105.911 342.993 99.8399 340.528C46.2959 318.848 18.3999 271.12 16.0479 221.176C12.9839 155.496 58.8159 124.192 88.5999 105.856C118.384 87.52 154.28 16.496 244.408 19.552C258.17 19.9588 271.839 21.9534 285.144 25.496C315.472 33.704 346.296 51.896 364.208 78.4C365.552 80.3893 366.837 82.4267 368.064 84.512C392.04 125.184 392.8 181.04 376.736 224.048Z" fill="url(#paint0_linear_601:6383)"></path><path d="M200.4 252.576C191.096 231.456 192.472 196.864 196.784 193.984C201.528 190.824 209.04 207.04 216.56 202.296C224.08 197.552 229.216 187.264 222.888 171.048C216.56 154.832 208.256 165.512 202.32 169.448C196.384 173.384 191.64 169.848 192.832 155.608C193.704 145.104 197.8 125.8 199.896 116.408C200.84 116.816 201.784 117.208 202.712 117.664C184.128 108.96 163.56 106.192 154.864 108.96C146.168 111.728 147.744 112.52 152.088 122.8C161.168 144.248 126.792 151.6 116.888 135.08C110.96 125.192 119.68 119.64 117.304 112.52C114.928 105.4 71.0319 113.704 65.4959 116.872C65.4959 116.872 76.1679 148.872 74.5919 160.376C73.0159 171.88 67.4719 176.992 59.1679 168.68C50.8639 160.368 40.1839 167.88 39.7839 181.736C39.3839 195.592 41.7599 206.648 51.2559 203.488C60.7519 200.328 68.2639 188.856 71.4239 203.488C74.5839 218.12 69.0239 237.088 65.8879 250.552C65.8879 250.552 90.8079 261.232 102.272 260.44C113.736 259.648 120.864 259.256 117.304 252.136C113.744 245.016 107.808 240.272 112.16 232.36C116.512 224.448 133.912 225.24 143.008 227.216C152.104 229.192 156.064 235.92 153.296 243.432C150.528 250.944 145.776 258.464 154.48 260.04C162.68 261.536 183.536 258.104 204.08 251.416C202.864 251.808 201.6 252.192 200.4 252.576Z" stroke="#333333" stroke-miterlimit="10"></path><path d="M207.856 250.152C206.64 250.568 205.416 250.952 204.2 251.376C205.416 250.976 206.64 250.568 207.856 250.152Z" stroke="#333333" stroke-miterlimit="10"></path><path d="M352.216 165.112C344.704 165.112 344.304 171.048 336.392 169.864C328.48 168.68 327.696 150.48 336 118.448C336 118.448 326.904 125.168 306.336 125.568C285.768 125.968 277.464 123.584 282.608 116.072C287.752 108.56 291.704 102.624 287.352 96.696C283 90.768 262.04 91.552 255.352 96.696C248.664 101.84 253.376 107.768 258.12 114.488C262.864 121.208 257.32 125.168 249.416 125.568C241.512 125.968 221.336 126.368 202.744 117.656C201.816 117.216 200.872 116.808 199.928 116.4C197.832 125.816 193.736 145.12 192.864 155.6C191.672 169.84 196.416 173.4 202.352 169.44C208.288 165.48 216.592 154.808 222.92 171.04C229.248 187.272 224.104 197.536 216.592 202.288C209.08 207.04 201.528 190.824 196.8 193.984C192.488 196.864 191.112 231.456 200.416 252.576C202.904 251.776 205.392 250.976 207.872 250.176C229.624 242.656 251.376 239.096 255.336 244.24C259.296 249.384 257.736 248.592 252.568 256.504C247.4 264.416 247.816 271.136 256.52 275.088C265.224 279.04 286.576 278.288 288.52 269.16C290.464 260.032 279.424 254.92 284.568 246.216C289.712 237.512 335.2 250.152 335.2 250.152C335.2 250.152 324.92 215.344 328.872 203.872C332.824 192.4 336 195.2 342.328 199.52C348.656 203.84 356.96 203.48 360.128 190.824C363.296 178.168 359.728 165.112 352.216 165.112Z" stroke="#333333" stroke-miterlimit="10"></path><path d="M328.699 81.2286C338.768 76.4756 343.077 64.4604 338.324 54.3918C333.571 44.3232 321.556 40.014 311.487 44.7669C301.419 49.5199 297.11 61.5351 301.863 71.6037C306.616 81.6723 318.631 85.9815 328.699 81.2286Z" fill="#00A0AD" stroke="#333333" stroke-miterlimit="10"></path><path d="M321.789 79.5189C330.896 78.5842 337.521 70.444 336.586 61.3372C335.652 52.2303 327.512 45.6055 318.405 46.5402C309.298 47.4748 302.673 55.6151 303.608 64.7219C304.542 73.8288 312.683 80.4536 321.789 79.5189Z" fill="white" stroke="#333333" stroke-miterlimit="10"></path><path d="M325.281 73.9289C331.302 71.065 333.861 63.8625 330.997 57.8418C328.133 51.8211 320.931 49.2621 314.91 52.1261C308.889 54.99 306.33 62.1925 309.194 68.2132C312.058 74.2339 319.261 76.7929 325.281 73.9289Z" fill="#00A0AD" stroke="#333333" stroke-miterlimit="10"></path><path d="M327.712 63.0161C327.712 61.5082 327.265 60.0342 326.427 58.7804C325.589 57.5267 324.399 56.5495 323.006 55.9724C321.613 55.3954 320.08 55.2444 318.601 55.5386C317.122 55.8328 315.763 56.5589 314.697 57.6251C313.631 58.6913 312.905 60.0498 312.611 61.5287C312.316 63.0076 312.467 64.5406 313.044 65.9337C313.621 67.3268 314.599 68.5175 315.852 69.3552C317.106 70.193 318.58 70.6401 320.088 70.6401C321.09 70.6412 322.081 70.4447 323.007 70.0619C323.932 69.6791 324.773 69.1176 325.481 68.4094C326.19 67.7013 326.751 66.8604 327.134 65.9349C327.517 65.0095 327.713 64.0176 327.712 63.0161Z" fill="white" stroke="#333333" stroke-miterlimit="10"></path><path d="M323.624 63.0161C323.626 62.3164 323.42 61.6319 323.032 61.0494C322.644 60.4668 322.093 60.0124 321.447 59.7435C320.801 59.4747 320.09 59.4035 319.403 59.539C318.717 59.6746 318.086 60.0107 317.59 60.5049C317.095 60.9991 316.758 61.6291 316.621 62.3153C316.483 63.0014 316.553 63.7128 316.82 64.3594C317.088 65.006 317.541 65.5587 318.123 65.9476C318.704 66.3365 319.388 66.5441 320.088 66.5441C321.024 66.5441 321.923 66.1726 322.585 65.5112C323.248 64.8498 323.622 63.9525 323.624 63.0161Z" fill="#00A0AD" stroke="#333333" stroke-miterlimit="10"></path><path d="M321.552 57.488L320.096 63.016L325.312 64.16L321.552 57.488Z" fill="#333333" stroke="#333333" stroke-miterlimit="10"></path><path d="M323.776 60.568L346.712 48.072" stroke="#333333" stroke-width="2" stroke-miterlimit="10"></path><path d="M339.352 52.1841L339.696 46.1921L350.472 40.0321V46.8721L339.352 52.1841Z" fill="#333333" stroke="#333333" stroke-miterlimit="10"></path><path d="M355.096 50.1281L350.376 46.6481L339.304 52.4641L344.64 55.5521L355.096 50.1281Z" fill="#333333" stroke="#333333" stroke-miterlimit="10"></path><path d="M214.408 64.24H206.392V83.328H214.408V64.24Z" fill="#00A0AD" stroke="#333333" stroke-miterlimit="10"></path><path d="M226.224 58.4559H218.208V83.3279H226.224V58.4559Z" fill="#00A0AD" stroke="#333333" stroke-miterlimit="10"></path><path d="M238.04 64.24H230.024V83.328H238.04V64.24Z" fill="#00A0AD" stroke="#333333" stroke-miterlimit="10"></path><path d="M249.864 57.2H241.848V83.3279H249.864V57.2Z" fill="#00A0AD" stroke="#333333" stroke-miterlimit="10"></path><path d="M261.68 47.64H253.664V83.328H261.68V47.64Z" fill="#00A0AD" stroke="#333333" stroke-miterlimit="10"></path><path d="M251.04 32.52L254.168 33.856L232.896 54.272L222.736 48.728L206.64 58.512V61.464L222.8 51.64L233.312 57.376L255.912 35.68L257.12 38.856L261.592 28.48L251.04 32.52Z" fill="#333333" stroke="#333333" stroke-linecap="round" stroke-linejoin="round"></path><path d="M177.024 62.5995C177.024 75.4432 166.612 85.8546 153.77 85.8546C140.926 85.8546 130.515 75.4432 130.515 62.5995C130.515 49.7558 140.926 39.3444 153.77 39.3444C166.612 39.3444 177.024 49.7558 177.024 62.5995Z" fill="#00A0AD"></path><path d="M177.6 62.5723H176.453C176.453 68.8375 173.915 74.5039 169.81 78.61C165.703 82.716 160.037 85.2538 153.772 85.2538C147.507 85.2538 141.84 82.716 137.734 78.61C133.629 74.5039 131.091 68.8375 131.09 62.5723C131.091 56.3071 133.629 50.6407 137.734 46.5346C141.84 42.4286 147.507 39.8919 153.772 39.8908C160.037 39.8919 165.703 42.4286 169.81 46.5346C173.915 50.6407 176.453 56.3071 176.453 62.5723H177.6C177.6 49.412 166.932 38.7447 153.772 38.7435C140.611 38.7447 129.944 49.412 129.944 62.5723C129.944 75.7326 140.611 86.4011 153.772 86.4011C166.932 86.4011 177.6 75.7326 177.6 62.5723Z" fill="#333333"></path><path d="M143.587 52.8658H151.973C154.193 52.8658 156.083 54.2822 156.771 56.2485H143.587L143.587 59.5203H156.771C156.083 61.4865 154.193 62.903 151.973 62.903H143.587L143.587 66.4878L156.604 79.356L158.944 77.0425L147.951 66.1749H151.973C156.031 66.1749 159.424 63.3108 160.194 59.5203H163.428L163.428 56.2485H160.194C159.939 54.9967 159.4 53.8457 158.644 52.8658H163.428L163.428 49.5939H143.587L143.587 52.8658H143.587Z" fill="white"></path><path d="M87.7679 47.296H50.3359V82.488H87.7679V47.296Z" fill="white" stroke="#333333" stroke-miterlimit="10"></path><path d="M87.7679 47.296H50.3359V56.344H87.7679V47.296Z" fill="#00A0AD" stroke="#333333" stroke-linecap="round" stroke-linejoin="round"></path><path d="M57.856 61.368H53.376V65.848H57.856V61.368Z" fill="#00A0AD" stroke="#333333" stroke-linecap="round" stroke-linejoin="round"></path><path d="M64.576 61.368H60.0959V65.848H64.576V61.368Z" fill="#00A0AD" stroke="#333333" stroke-linecap="round" stroke-linejoin="round"></path><path d="M71.2879 61.368H66.8079V65.848H71.2879V61.368Z" fill="#00A0AD" stroke="#333333" stroke-linecap="round" stroke-linejoin="round"></path><path d="M78.0078 61.368H73.5278V65.848H78.0078V61.368Z" fill="#00A0AD" stroke="#333333" stroke-linecap="round" stroke-linejoin="round"></path><path d="M84.7278 61.368H80.2478V65.848H84.7278V61.368Z" fill="#00A0AD" stroke="#333333" stroke-linecap="round" stroke-linejoin="round"></path><path d="M57.856 68.408H53.376V72.888H57.856V68.408Z" fill="#00A0AD" stroke="#333333" stroke-linecap="round" stroke-linejoin="round"></path><path d="M64.576 68.408H60.0959V72.888H64.576V68.408Z" fill="#00A0AD" stroke="#333333" stroke-linecap="round" stroke-linejoin="round"></path><path d="M71.2879 68.408H66.8079V72.888H71.2879V68.408Z" fill="#00A0AD" stroke="#333333" stroke-linecap="round" stroke-linejoin="round"></path><path d="M78.0078 68.408H73.5278V72.888H78.0078V68.408Z" fill="#00A0AD" stroke="#333333" stroke-linecap="round" stroke-linejoin="round"></path><path d="M84.7278 68.408H80.2478V72.888H84.7278V68.408Z" fill="#00A0AD" stroke="#333333" stroke-linecap="round" stroke-linejoin="round"></path><path d="M57.856 75.448H53.376V79.928H57.856V75.448Z" fill="#00A0AD" stroke="#333333" stroke-linecap="round" stroke-linejoin="round"></path><path d="M64.576 75.448H60.0959V79.928H64.576V75.448Z" fill="#00A0AD" stroke="#333333" stroke-linecap="round" stroke-linejoin="round"></path><path d="M71.2879 75.448H66.8079V79.928H71.2879V75.448Z" fill="#00A0AD" stroke="#333333" stroke-linecap="round" stroke-linejoin="round"></path><path d="M78.0078 75.448H73.5278V79.928H78.0078V75.448Z" fill="#00A0AD" stroke="#333333" stroke-linecap="round" stroke-linejoin="round"></path><path d="M84.7278 75.448H80.2478V79.928H84.7278V75.448Z" fill="#00A0AD" stroke="#333333" stroke-linecap="round" stroke-linejoin="round"></path><path d="M58.6561 41.536H55.4561V50.176H58.6561V41.536Z" fill="#333333"></path><path d="M66.6561 41.536H63.4561V50.176H66.6561V41.536Z" fill="#333333"></path><path d="M74.648 41.536H71.448V50.176H74.648V41.536Z" fill="#333333"></path><path d="M82.648 41.536H79.448V50.176H82.648V41.536Z" fill="#333333"></path><path d="M17.784 310.176C19.52 310.936 23.768 310.84 23.768 310.84C23.768 310.84 22.856 308.064 22.776 307.896C21.84 305.944 18.896 302.728 16.496 303.048C16.0991 303.113 15.7204 303.261 15.3846 303.482C15.0487 303.703 14.7632 303.993 14.5466 304.332C14.33 304.671 14.1872 305.051 14.1275 305.449C14.0677 305.847 14.0924 306.252 14.2 306.64C14.6 308.296 16.304 309.536 17.784 310.176Z" fill="#00A0AD"></path><path d="M19.2479 322.488C21.0479 322.744 24.8479 321.648 25.1439 321.56C25.7656 323.729 26.5326 325.854 27.4399 327.92C27.9599 329.128 28.5279 330.32 29.1039 331.528C28.7599 331.016 28.4479 330.568 28.3919 330.512C26.9839 328.872 23.2879 326.512 21.0639 327.496C20.6979 327.662 20.3711 327.904 20.1049 328.205C19.8387 328.506 19.639 328.86 19.5189 329.243C19.3988 329.627 19.3611 330.032 19.4082 330.431C19.4552 330.83 19.586 331.215 19.7919 331.56C20.5919 333.056 22.5839 333.8 24.1839 334.032C25.7839 334.264 29.0559 333.4 29.9119 333.152C30.1359 333.608 30.3599 334.072 30.5919 334.528C31.6879 336.712 32.7919 338.888 33.7919 341.056C34.1519 341.816 34.4799 342.584 34.8079 343.352C34.4959 342.896 34.2399 342.552 34.1919 342.472C32.7759 340.872 29.0799 338.512 26.8559 339.456C26.4919 339.625 26.1675 339.869 25.9036 340.172C25.6396 340.475 25.4421 340.829 25.3238 341.213C25.2054 341.597 25.1688 342.001 25.2164 342.4C25.264 342.799 25.3946 343.183 25.5999 343.528C26.3999 345.024 28.3999 345.76 29.9919 345.992C31.5839 346.224 34.5519 345.44 35.5919 345.192C35.9039 345.992 36.2159 346.792 36.4879 347.592C36.6559 348.128 36.8639 348.64 36.9999 349.192C37.1359 349.744 37.3039 350.264 37.4479 350.792C37.6959 351.824 37.9599 352.888 38.1759 353.904C38.3359 354.608 38.4719 355.288 38.6079 355.96C38.2559 355.2 37.5439 353.72 37.4719 353.6C36.3199 351.768 33.0239 348.912 30.6799 349.504C30.2997 349.615 29.9465 349.804 29.6426 350.058C29.3387 350.312 29.0906 350.626 28.9141 350.981C28.7375 351.335 28.6362 351.723 28.6166 352.118C28.5969 352.514 28.6594 352.91 28.7999 353.28C29.3839 354.88 31.1999 355.92 32.7999 356.392C34.4959 356.904 38.2559 356.432 38.7279 356.392C38.9519 357.52 39.1599 358.616 39.3439 359.648C39.7439 361.944 40.0479 363.992 40.2799 365.728H41.8799C41.5999 363.928 41.2399 361.792 40.7599 359.392C40.5359 358.248 40.2719 357.032 39.9599 355.784C41.094 355.33 42.2 354.809 43.2719 354.224C44.5119 355.568 47.6799 357.136 48.0719 357.336C47.6399 358.4 47.2079 359.432 46.7839 360.392C45.9039 362.416 45.0719 364.208 44.3359 365.728H46.0559C46.688 364.32 47.3839 362.72 48.104 360.928C48.5519 359.848 48.9999 358.688 49.4559 357.496C49.9119 357.592 53.6319 358.344 55.3679 357.952C56.9679 357.6 58.8479 356.712 59.5599 355.152C59.7367 354.79 59.8354 354.395 59.8496 353.992C59.8638 353.59 59.7931 353.189 59.6422 352.815C59.4914 352.442 59.2636 352.104 58.9738 351.825C58.6839 351.545 58.3385 351.329 57.9599 351.192C55.6639 350.392 52.1679 353.032 50.8799 354.768C50.8079 354.872 50.0799 356.072 49.6799 356.84C49.8639 356.352 50.0479 355.88 50.2239 355.376C50.5919 354.376 50.928 353.368 51.296 352.288L51.776 350.688C51.944 350.152 52.056 349.576 52.208 349.008C52.52 347.704 52.768 346.36 53.0079 345.008C53.888 345.328 57.0079 346.416 58.608 346.296C60.208 346.176 62.2399 345.592 63.1679 344.16C63.4001 343.831 63.5601 343.457 63.6376 343.063C63.7151 342.668 63.7083 342.261 63.6177 341.869C63.5271 341.477 63.3546 341.109 63.1117 340.788C62.8687 340.467 62.5608 340.201 62.208 340.008C60.056 338.904 56.1999 340.944 54.6719 342.472C54.5759 342.568 53.5999 343.784 53.0719 344.464C53.1999 343.664 53.336 342.864 53.44 342C53.736 339.6 53.9599 337.16 54.24 334.728C54.312 333.984 54.3919 333.24 54.4719 332.496C54.7839 332.616 58.4719 333.984 60.2799 333.864C61.8799 333.744 63.9039 333.16 64.84 331.728C65.0708 331.399 65.2298 331.025 65.3066 330.63C65.3835 330.236 65.3764 329.83 65.2858 329.438C65.1953 329.046 65.0233 328.678 64.7811 328.357C64.5388 328.036 64.2318 327.77 63.8799 327.576C61.7279 326.464 57.8719 328.504 56.3359 330.032C56.2239 330.144 54.8239 331.904 54.4879 332.368C54.6559 330.728 54.8479 329.104 55.096 327.504C55.425 325.343 55.8899 323.206 56.4879 321.104C56.632 321.16 60.488 322.608 62.328 322.48C63.928 322.368 65.9599 321.776 66.8879 320.344C67.1188 320.015 67.2778 319.641 67.3546 319.246C67.4314 318.852 67.4244 318.446 67.3338 318.054C67.2433 317.662 67.0713 317.294 66.8291 316.973C66.5868 316.652 66.2798 316.386 65.9279 316.192C63.7759 315.08 59.9199 317.128 58.3919 318.648C58.2719 318.768 56.7919 320.656 56.5119 321.048C56.5119 320.928 56.576 320.8 56.608 320.68C57.2706 318.592 58.1193 316.568 59.1439 314.632C59.688 313.552 60.2799 312.552 60.8719 311.6C61.5599 311.944 64.7119 313.472 66.3999 313.544C68.0879 313.616 70.0799 313.24 71.1999 311.944C71.4664 311.642 71.6661 311.288 71.786 310.904C71.9059 310.52 71.9433 310.115 71.8957 309.715C71.8481 309.316 71.7167 308.931 71.5099 308.585C71.3031 308.24 71.0258 307.942 70.6959 307.712C68.6799 306.368 64.6239 307.984 62.9359 309.312C62.8399 309.384 61.992 310.232 61.384 310.856C61.656 310.432 61.928 309.984 62.184 309.576C63.192 308.056 64.216 306.72 65.128 305.576C65.656 304.912 66.1439 304.328 66.6079 303.776C67.4559 303.776 70.8799 303.656 72.3759 302.976C73.8719 302.296 75.5119 301.016 75.8639 299.344C75.9609 298.953 75.9743 298.546 75.9033 298.15C75.8324 297.754 75.6786 297.377 75.4521 297.044C75.2257 296.711 74.9316 296.429 74.589 296.218C74.2464 296.006 73.863 295.869 73.4639 295.816C71.0639 295.56 68.1999 298.856 67.3199 300.832C67.2479 301 66.3679 303.808 66.4079 303.808H66.3999C65.9439 304.328 65.4559 304.888 64.944 305.512C64 306.664 62.9519 307.984 61.9039 309.512C60.7366 311.123 59.668 312.804 58.7039 314.544C57.6262 316.481 56.724 318.51 56.0079 320.608V320.688C56.0079 319.976 56.0079 317.992 56.0079 317.84C55.728 315.696 53.928 311.72 51.552 311.28C51.1545 311.218 50.7483 311.24 50.36 311.345C49.9717 311.45 49.6099 311.636 49.2982 311.89C48.9865 312.145 48.7318 312.462 48.5509 312.821C48.3699 313.181 48.2667 313.574 48.248 313.976C48.1119 315.68 49.3439 317.384 50.5439 318.456C51.9039 319.672 55.672 320.856 55.9759 320.936C55.2964 323.09 54.7619 325.287 54.3759 327.512C54.144 328.808 53.952 330.12 53.776 331.432C53.776 330.824 53.776 330.272 53.776 330.2C53.4959 328.056 51.6959 324.08 49.32 323.64C48.9231 323.578 48.5176 323.6 48.1298 323.704C47.742 323.809 47.3806 323.994 47.069 324.248C46.7574 324.501 46.5026 324.817 46.3212 325.176C46.1398 325.534 46.0358 325.927 46.0159 326.328C45.8799 328.032 47.1119 329.736 48.3119 330.816C49.5119 331.896 52.728 332.968 53.576 333.216L53.384 334.736C53.096 337.136 52.8159 339.584 52.4719 341.936C52.3519 342.736 52.1999 343.584 52.0479 344.408C52.0479 343.864 52.0479 343.4 52.0479 343.336C51.7679 341.192 49.9759 337.208 47.5919 336.768C47.1947 336.707 46.789 336.73 46.4012 336.836C46.0134 336.941 45.6521 337.127 45.3407 337.382C45.0293 337.636 44.7746 337.952 44.5933 338.311C44.412 338.67 44.3079 339.062 44.2879 339.464C44.1519 341.168 45.3839 342.872 46.5919 343.944C47.7999 345.016 50.688 346 51.6959 346.344C51.52 347.144 51.3439 348.008 51.1359 348.816C50.9839 349.352 50.8719 349.888 50.688 350.416C50.5039 350.944 50.3439 351.488 50.1759 352.016C49.8079 353.016 49.4399 354.048 49.0639 355.016L48.264 356.968C48.3919 356.168 48.6159 354.512 48.6159 354.368C48.5867 352.468 48.0746 350.607 47.1279 348.96C47.1439 348.75 47.1439 348.538 47.1279 348.328C47.0729 347.932 46.9358 347.552 46.7255 347.212C46.5151 346.872 46.236 346.58 45.9062 346.354C45.5764 346.128 45.203 345.973 44.81 345.9C44.417 345.827 44.0131 345.836 43.6239 345.928C41.2879 346.552 39.7999 350.656 39.6879 352.816C39.6879 352.944 39.7679 354.336 39.8319 355.216C39.7199 354.704 39.6079 354.216 39.4799 353.688C39.2319 352.656 38.9599 351.632 38.6799 350.528C38.5199 350 38.3519 349.464 38.1919 348.928C38.0319 348.392 37.8159 347.84 37.6239 347.288C37.1679 346.024 36.6319 344.768 36.0719 343.512C36.9759 343.296 40.184 342.48 41.4639 341.488C42.7439 340.496 44.1039 338.896 44.0959 337.192C44.1061 336.79 44.0318 336.39 43.8776 336.019C43.7235 335.647 43.493 335.312 43.2011 335.035C42.9092 334.758 42.5625 334.546 42.1833 334.412C41.8041 334.278 41.401 334.224 40.9999 334.256C38.5999 334.52 36.5039 338.352 36.0719 340.472C36.0719 340.6 35.9039 342.152 35.8399 343.008C35.4959 342.256 35.1519 341.504 34.7839 340.752C33.7039 338.592 32.5519 336.432 31.4079 334.272L30.3679 332.288C30.6959 332.208 34.5199 331.32 35.9679 330.216C37.2559 329.232 38.6079 327.624 38.5999 325.92C38.6101 325.518 38.5358 325.118 38.3816 324.747C38.2275 324.375 37.997 324.04 37.7051 323.763C37.4132 323.486 37.0665 323.274 36.6873 323.14C36.3081 323.006 35.905 322.952 35.5039 322.984C33.1039 323.248 31.0079 327.08 30.5759 329.2C30.5759 329.36 30.3359 331.6 30.3199 332.168C29.5199 330.704 28.8159 329.248 28.1439 327.776C27.2096 325.797 26.4078 323.758 25.7439 321.672C25.8959 321.672 29.8959 320.728 31.3439 319.6C32.6239 318.616 33.9839 317.008 33.9679 315.304C33.9793 314.902 33.906 314.503 33.7527 314.131C33.5995 313.76 33.3698 313.424 33.0785 313.147C32.7873 312.871 32.441 312.658 32.0622 312.524C31.6834 312.389 31.2806 312.336 30.8799 312.368C28.4799 312.632 26.3839 316.464 25.9439 318.576C25.9439 318.744 25.6959 321.152 25.6879 321.592L25.5599 321.224C24.9652 319.117 24.5557 316.962 24.3359 314.784C24.1999 313.584 24.1439 312.424 24.1039 311.304C24.9039 311.208 28.3519 310.744 29.7919 309.872C31.2319 309 32.6959 307.584 32.8719 305.872C32.9272 305.474 32.8979 305.068 32.786 304.682C32.6741 304.295 32.482 303.937 32.2224 303.63C31.9628 303.323 31.6414 303.074 31.2792 302.899C30.9169 302.724 30.5219 302.628 30.1199 302.616C27.7199 302.616 25.2079 306.192 24.5199 308.216C24.5199 308.328 24.2399 309.504 24.0799 310.368C24.0799 309.856 24.0799 309.336 24.0799 308.848C24.0799 307.016 24.1999 305.336 24.3119 303.856C24.3839 303.056 24.4639 302.256 24.5519 301.544C25.2479 301.064 28.0479 299.088 28.9119 297.672C29.7759 296.256 30.4399 294.304 29.8079 292.72C29.6721 292.343 29.4584 291.999 29.1808 291.71C28.9032 291.421 28.5679 291.193 28.1966 291.043C27.8254 290.892 27.4266 290.821 27.026 290.834C26.6255 290.847 26.2323 290.945 25.8719 291.12C23.7199 292.232 23.1519 296.56 23.4719 298.688C23.4719 298.872 24.3199 301.704 24.3519 301.68H24.3999C24.3039 302.36 24.2079 303.096 24.1279 303.896C23.9759 305.384 23.8239 307.056 23.7839 308.896C23.7162 310.876 23.7616 312.857 23.9199 314.832C24.0954 317.041 24.4648 319.231 25.0239 321.376V321.456C24.6399 320.856 23.5199 319.224 23.4239 319.104C22.0079 317.504 18.3119 315.144 16.0879 316.088C15.7468 316.26 15.4435 316.499 15.196 316.79C14.9486 317.082 14.762 317.42 14.6472 317.784C14.5323 318.149 14.4917 318.533 14.5275 318.913C14.5634 319.294 14.675 319.663 14.8559 320C15.6799 321.512 17.6479 322.248 19.2479 322.488Z" fill="#00A0AD"></path><path d="M60.7521 311.112C60.7521 311.112 61.5521 308.288 61.5521 308.104C61.8561 305.968 61.1681 301.656 58.9921 300.6C58.6254 300.434 58.2279 300.348 57.8255 300.346C57.4231 300.345 57.0249 300.428 56.6571 300.591C56.2892 300.754 55.96 300.994 55.691 301.293C55.422 301.592 55.2193 301.945 55.0961 302.328C54.5121 303.928 55.2481 305.904 56.1281 307.256C57.1521 308.848 60.7441 311.112 60.7521 311.112Z" fill="#00A0AD"></path><path d="M313.072 310.176C314.808 310.936 319.056 310.84 319.056 310.84C319.056 310.84 318.144 308.064 318.064 307.896C317.128 305.944 314.184 302.728 311.784 303.048C311.387 303.113 311.009 303.261 310.673 303.482C310.337 303.703 310.051 303.993 309.835 304.332C309.618 304.671 309.475 305.051 309.416 305.449C309.356 305.847 309.381 306.252 309.488 306.64C309.888 308.296 311.592 309.536 313.072 310.176Z" fill="#00A0AD"></path><path d="M314.536 322.488C316.336 322.744 320.136 321.648 320.432 321.56C321.057 323.728 321.824 325.853 322.728 327.92C323.248 329.128 323.816 330.32 324.392 331.528C324.048 331.016 323.736 330.568 323.68 330.512C322.272 328.872 318.576 326.512 316.352 327.496C315.986 327.662 315.659 327.904 315.393 328.205C315.127 328.506 314.927 328.86 314.807 329.243C314.687 329.627 314.649 330.032 314.696 330.431C314.743 330.83 314.874 331.215 315.08 331.56C315.88 333.056 317.872 333.8 319.472 334.032C321.072 334.264 324.344 333.4 325.2 333.152C325.424 333.608 325.648 334.072 325.88 334.528C326.976 336.712 328.08 338.888 329.08 341.056C329.44 341.816 329.768 342.584 330.096 343.352C329.784 342.896 329.528 342.552 329.48 342.472C328.064 340.872 324.376 338.512 322.144 339.456C321.779 339.624 321.453 339.867 321.187 340.169C320.921 340.471 320.722 340.825 320.602 341.209C320.482 341.593 320.444 341.998 320.491 342.397C320.537 342.797 320.667 343.182 320.872 343.528C321.672 345.024 323.672 345.76 325.264 345.992C326.856 346.224 329.824 345.44 330.864 345.192C331.176 345.992 331.496 346.792 331.76 347.592C331.928 348.128 332.136 348.64 332.272 349.192C332.408 349.744 332.576 350.264 332.72 350.792C332.968 351.824 333.232 352.888 333.448 353.904C333.608 354.608 333.744 355.288 333.88 355.96C333.528 355.2 332.816 353.72 332.744 353.6C331.592 351.768 328.296 348.912 325.952 349.504C325.566 349.615 325.207 349.806 324.899 350.064C324.591 350.322 324.341 350.643 324.164 351.004C323.988 351.365 323.889 351.759 323.874 352.161C323.86 352.563 323.93 352.963 324.08 353.336C324.664 354.936 326.48 355.976 328.08 356.448C329.776 356.96 333.536 356.488 334.008 356.448C334.232 357.576 334.44 358.672 334.624 359.704C335.024 362 335.328 364.048 335.56 365.784H337.16C336.88 363.984 336.52 361.848 336.04 359.448C335.816 358.304 335.552 357.088 335.24 355.84C336.374 355.386 337.48 354.865 338.552 354.28C339.792 355.624 342.96 357.192 343.352 357.392C342.92 358.456 342.488 359.488 342.064 360.448C341.184 362.472 340.352 364.264 339.616 365.784H341.336C341.968 364.376 342.664 362.776 343.384 360.984C343.832 359.904 344.28 358.744 344.736 357.552C345.192 357.648 348.912 358.4 350.648 358.008C352.248 357.656 354.128 356.768 354.84 355.208C355.017 354.846 355.115 354.451 355.13 354.048C355.144 353.646 355.073 353.245 354.922 352.871C354.771 352.498 354.544 352.161 354.254 351.881C353.964 351.601 353.619 351.386 353.24 351.248C350.944 350.448 347.448 353.088 346.16 354.824C346.088 354.928 345.36 356.128 344.96 356.896C345.144 356.408 345.328 355.936 345.512 355.432C345.872 354.432 346.208 353.424 346.576 352.344L347.056 350.744C347.224 350.208 347.336 349.632 347.488 349.064C347.8 347.76 348.048 346.416 348.288 345.064C349.168 345.384 352.288 346.472 353.888 346.352C355.488 346.232 357.52 345.648 358.448 344.216C358.68 343.887 358.84 343.513 358.918 343.119C358.995 342.724 358.988 342.317 358.898 341.925C358.807 341.533 358.635 341.165 358.392 340.844C358.149 340.523 357.841 340.257 357.488 340.064C355.336 338.96 351.48 341 349.952 342.528C349.856 342.624 348.88 343.84 348.352 344.52C348.48 343.72 348.616 342.92 348.72 342.056C349.016 339.656 349.24 337.216 349.48 334.784C349.552 334.04 349.632 333.296 349.712 332.552C350.024 332.672 353.712 334.04 355.52 333.92C357.12 333.8 359.144 333.216 360.08 331.784C360.311 331.455 360.47 331.081 360.547 330.686C360.624 330.292 360.616 329.886 360.526 329.494C360.435 329.102 360.263 328.734 360.021 328.413C359.779 328.093 359.472 327.826 359.12 327.632C356.968 326.52 353.112 328.56 351.576 330.088C351.464 330.2 350.064 331.96 349.728 332.424C349.896 330.784 350.088 329.16 350.336 327.56C350.665 325.4 351.13 323.262 351.728 321.16C351.872 321.216 355.728 322.664 357.568 322.536C359.168 322.424 361.2 321.832 362.128 320.4C362.359 320.071 362.518 319.697 362.595 319.302C362.672 318.908 362.664 318.502 362.574 318.11C362.483 317.718 362.311 317.35 362.069 317.029C361.827 316.709 361.52 316.442 361.168 316.248C359.016 315.136 355.16 317.184 353.632 318.704C353.512 318.824 352.032 320.712 351.752 321.104C351.752 320.984 351.816 320.856 351.848 320.736C352.511 318.648 353.359 316.624 354.384 314.688C354.928 313.608 355.52 312.608 356.112 311.656C356.8 312 359.952 313.528 361.64 313.6C363.328 313.672 365.32 313.296 366.44 312C366.706 311.698 366.906 311.344 367.026 310.96C367.146 310.576 367.183 310.171 367.136 309.771C367.088 309.372 366.957 308.987 366.75 308.641C366.543 308.296 366.266 307.998 365.936 307.768C363.92 306.424 359.864 308.04 358.176 309.368C358.088 309.44 357.232 310.288 356.624 310.912C356.896 310.488 357.168 310.04 357.424 309.632C358.44 308.112 359.456 306.776 360.368 305.632C360.896 304.968 361.384 304.384 361.848 303.832C362.696 303.832 366.12 303.712 367.616 303.032C369.112 302.352 370.752 301.072 371.104 299.4C371.201 299.009 371.214 298.602 371.143 298.206C371.072 297.81 370.919 297.433 370.692 297.1C370.466 296.767 370.172 296.485 369.829 296.274C369.486 296.062 369.103 295.925 368.704 295.872C366.304 295.616 363.432 298.912 362.552 300.888C362.48 301.056 361.6 303.864 361.64 303.864H361.696C361.24 304.384 360.752 304.944 360.24 305.568C359.296 306.72 358.248 308.04 357.2 309.568C356.046 311.18 354.991 312.861 354.04 314.6C352.962 316.537 352.06 318.566 351.344 320.664C351.348 320.691 351.348 320.717 351.344 320.744C351.344 320.032 351.344 318.048 351.344 317.896C351.064 315.752 349.264 311.776 346.888 311.336C346.491 311.274 346.084 311.296 345.696 311.401C345.308 311.506 344.946 311.692 344.634 311.946C344.323 312.201 344.068 312.518 343.887 312.877C343.706 313.237 343.603 313.63 343.584 314.032C343.448 315.736 344.68 317.44 345.88 318.512C347.24 319.728 351.008 320.912 351.312 320.992C350.632 323.146 350.098 325.343 349.712 327.568C349.48 328.864 349.288 330.176 349.112 331.488C349.112 330.88 349.112 330.328 349.112 330.256C348.832 328.112 347.032 324.136 344.656 323.696C344.259 323.634 343.854 323.656 343.466 323.76C343.078 323.865 342.717 324.05 342.405 324.304C342.093 324.557 341.839 324.873 341.657 325.232C341.476 325.59 341.372 325.983 341.352 326.384C341.216 328.088 342.448 329.792 343.648 330.872C344.848 331.952 348.064 333.024 348.912 333.272C348.856 333.776 348.784 334.28 348.72 334.792C348.432 337.192 348.152 339.64 347.808 341.992C347.688 342.792 347.536 343.64 347.384 344.464C347.384 343.92 347.384 343.456 347.384 343.392C347.104 341.248 345.312 337.264 342.928 336.824C342.531 336.763 342.125 336.786 341.737 336.892C341.349 336.998 340.988 337.183 340.677 337.438C340.365 337.692 340.111 338.008 339.929 338.367C339.748 338.726 339.644 339.119 339.624 339.52C339.488 341.224 340.72 342.928 341.928 344C343.136 345.072 346.032 346.056 347.032 346.4C346.856 347.2 346.68 348.064 346.472 348.872C346.32 349.408 346.208 349.944 346.024 350.472C345.84 351 345.68 351.544 345.512 352.072C345.144 353.072 344.776 354.104 344.4 355.072L343.6 357.024C343.728 356.224 343.952 354.568 343.952 354.424C343.927 352.524 343.414 350.662 342.464 349.016C342.467 348.805 342.453 348.593 342.424 348.384C342.369 347.988 342.232 347.608 342.022 347.268C341.811 346.928 341.532 346.636 341.202 346.41C340.872 346.184 340.499 346.029 340.106 345.956C339.713 345.883 339.309 345.892 338.92 345.984C336.584 346.608 335.096 350.712 334.984 352.872C334.984 353 335.064 354.392 335.128 355.272C335.016 354.76 334.904 354.272 334.776 353.744C334.528 352.712 334.256 351.688 333.976 350.584C333.816 350.056 333.648 349.52 333.488 348.984C333.328 348.448 333.112 347.896 332.92 347.344C332.464 346.08 331.928 344.824 331.368 343.568C332.272 343.352 335.48 342.536 336.76 341.544C338.04 340.552 339.4 338.952 339.392 337.248C339.402 336.846 339.328 336.446 339.174 336.075C339.02 335.703 338.789 335.368 338.497 335.091C338.205 334.814 337.859 334.602 337.479 334.468C337.1 334.334 336.697 334.28 336.296 334.312C333.896 334.576 331.8 338.408 331.368 340.528C331.368 340.656 331.2 342.208 331.136 343.064C330.792 342.312 330.448 341.56 330.08 340.808C329 338.648 327.848 336.488 326.704 334.328L325.664 332.344C325.992 332.264 329.816 331.376 331.264 330.272C332.552 329.288 333.904 327.68 333.896 325.976C333.906 325.574 333.832 325.174 333.678 324.803C333.524 324.431 333.293 324.096 333.001 323.819C332.709 323.542 332.363 323.33 331.983 323.196C331.604 323.062 331.201 323.008 330.8 323.04C328.4 323.304 326.304 327.136 325.872 329.256C325.872 329.416 325.632 331.656 325.616 332.224C324.856 330.76 324.112 329.304 323.44 327.832C322.519 325.852 321.731 323.813 321.08 321.728C321.232 321.728 325.232 320.784 326.68 319.656C327.96 318.672 329.32 317.064 329.304 315.36C329.315 314.958 329.242 314.559 329.089 314.187C328.936 313.816 328.706 313.48 328.415 313.204C328.123 312.927 327.777 312.714 327.398 312.58C327.019 312.445 326.617 312.392 326.216 312.424C323.816 312.688 321.72 316.52 321.28 318.632C321.28 318.8 321.032 321.208 321.024 321.648L320.896 321.28C320.301 319.173 319.892 317.018 319.672 314.84C319.544 313.64 319.48 312.48 319.44 311.36C320.24 311.264 323.688 310.8 325.128 309.928C326.568 309.056 328.032 307.64 328.208 305.928C328.263 305.53 328.234 305.124 328.122 304.738C328.01 304.351 327.818 303.993 327.559 303.686C327.299 303.379 326.977 303.13 326.615 302.955C326.253 302.78 325.858 302.684 325.456 302.672C323.056 302.672 320.544 306.248 319.856 308.272C319.856 308.384 319.576 309.56 319.416 310.424C319.416 309.912 319.416 309.392 319.416 308.904C319.416 307.072 319.536 305.392 319.648 303.912C319.72 303.112 319.8 302.312 319.888 301.6C320.584 301.12 323.384 299.144 324.248 297.728C325.112 296.312 325.776 294.36 325.144 292.776C325.008 292.399 324.794 292.055 324.517 291.766C324.239 291.477 323.904 291.249 323.533 291.099C323.161 290.948 322.763 290.877 322.362 290.89C321.962 290.903 321.568 291.001 321.208 291.176C319.056 292.288 318.488 296.616 318.848 298.744C318.848 298.928 319.648 301.76 319.728 301.736H319.768C319.672 302.416 319.576 303.152 319.496 303.952C319.344 305.44 319.192 307.112 319.152 308.952C319.084 310.932 319.13 312.914 319.288 314.888C319.463 317.097 319.833 319.287 320.392 321.432V321.512C320.008 320.912 318.888 319.28 318.792 319.16C317.376 317.56 313.68 315.2 311.456 316.144C311.09 316.311 310.763 316.553 310.497 316.855C310.23 317.157 310.031 317.512 309.911 317.896C309.791 318.28 309.753 318.685 309.8 319.085C309.847 319.485 309.978 319.87 310.184 320.216C310.968 321.512 312.936 322.248 314.536 322.488Z" fill="#00A0AD"></path><path d="M356.04 311.112C356.04 311.112 356.84 308.288 356.84 308.104C357.144 305.968 356.456 301.656 354.28 300.6C353.913 300.434 353.516 300.348 353.113 300.346C352.711 300.345 352.313 300.428 351.945 300.591C351.577 300.754 351.248 300.994 350.979 301.293C350.71 301.592 350.507 301.945 350.384 302.328C349.8 303.928 350.536 305.904 351.416 307.256C352.44 308.848 356 311.112 356.04 311.112Z" fill="#00A0AD"></path><path d="M279.464 143.656C279.464 143.656 279.712 134.624 284.92 132.064C290.128 129.504 290.424 137.96 290.424 137.96C290.424 137.96 302.336 130.392 304.92 136.128C307.504 141.864 303.896 144.64 303.896 144.64C303.896 144.64 314.472 144.272 315.208 150.072C315.944 155.872 310.48 158.712 310.48 158.712C310.48 158.712 317.016 164.048 314.72 166.512C312.424 168.976 307.4 169.152 307.4 169.152C307.4 169.152 310.248 174.872 305.28 176.904C300.312 178.936 294.632 175.152 294.632 175.152C294.632 175.152 295.512 177.776 291.784 177.112C288.056 176.448 284.288 174.712 281.976 169.24C279.664 163.768 276.68 148.272 279.464 143.656Z" fill="#333333" stroke="#333333" stroke-linecap="round" stroke-linejoin="round"></path><path d="M224.472 318.096C224.472 318.096 221.504 329.424 221.552 330.68C221.6 331.936 220.568 334.784 221.44 335.592C223.072 336.923 224.802 338.129 226.616 339.2C227.355 339.19 228.076 338.971 228.696 338.568C228.896 338.388 229.057 338.169 229.169 337.924C229.28 337.679 229.34 337.413 229.344 337.144C229.344 336.72 228.152 334.944 227.992 334.528C227.832 334.112 230.176 328.696 231.064 326C231.729 323.593 232.205 321.137 232.488 318.656L224.472 318.096Z" fill="white" stroke="#333333" stroke-miterlimit="10"></path><path d="M227.696 325.984C227.696 325.984 226.008 329.984 225.896 330.672C225.784 331.36 223.496 333.28 223.8 334.816C224.104 336.352 227.48 335.944 229.144 331.4" fill="white"></path><path d="M227.696 325.984C227.696 325.984 226.008 329.984 225.896 330.672C225.784 331.36 223.496 333.28 223.8 334.816C224.104 336.352 227.48 335.944 229.144 331.4" stroke="#333333" stroke-miterlimit="10"></path><path d="M235.256 256.56C235.256 256.56 233.84 279.664 233.304 281.704C232.768 283.744 226.336 302.376 224.92 308.104C224.051 311.651 223.434 315.254 223.072 318.888L231.704 320.704L236.552 299.408C236.552 299.408 242.888 280 241.6 270.904C240.94 265.603 238.733 260.615 235.256 256.56Z" fill="#00A0AD" stroke="#333333" stroke-miterlimit="10"></path><path d="M280.224 365.704C280.328 360.68 280.536 353.904 281.024 350.024C281.824 343.32 284.688 339.176 287.632 330.824C290.576 322.472 290.832 311.496 290.832 311.496L238.112 313.336C238.112 313.336 232 336 228.296 352.672C227.29 356.949 226.704 361.313 226.544 365.704" fill="#00A0AD"></path><path d="M280.224 365.704C280.328 360.68 280.536 353.904 281.024 350.024C281.824 343.32 284.688 339.176 287.632 330.824C290.576 322.472 290.832 311.496 290.832 311.496L238.112 313.336C238.112 313.336 232 336 228.296 352.672C227.29 356.949 226.704 361.313 226.544 365.704" stroke="#333333" stroke-miterlimit="10"></path><path d="M245.016 321.832L288.88 323.064L289.808 319.672L245.016 321.832Z" fill="#333333" stroke="#333333" stroke-linecap="round" stroke-linejoin="round"></path><path d="M242.8 364.904C242.8 364.904 241.936 337.472 241.912 322.584L242.8 364.904Z" fill="white"></path><path d="M242.8 364.904C242.8 364.904 241.936 337.472 241.912 322.584" stroke="#333333" stroke-miterlimit="10"></path><path d="M276.424 198.528L282.824 202.832C282.824 202.832 290.4 209.6 292.264 215.2C294.128 220.8 292.776 254.056 290.896 264.8C289.016 275.544 293.712 288.928 295.384 296.48C297.056 304.032 297.784 318.08 297.784 318.08C297.784 318.08 298.968 319.728 278.424 320.44C257.88 321.152 243.552 322.224 241.872 322.56C240.857 322.768 239.827 322.899 238.792 322.952L237.992 315.656L236 321.664L231.736 320.688C231.736 320.688 234.384 307.632 235.048 302.544C235.712 297.456 239.904 280.144 239.96 273.632C240.016 267.12 234.576 256.64 233.512 250.192C232.448 243.744 234.592 232.688 239.912 224.336C245.232 215.984 248.8 212.752 259.2 204.224C269.6 195.696 276.424 198.528 276.424 198.528Z" fill="#00A0AD" stroke="#333333" stroke-miterlimit="10"></path><path d="M259.752 296.008L281.216 298.44L280.008 292.824L266.616 291.672" stroke="#333333" stroke-miterlimit="10"></path><path d="M252.248 291.36L251.16 295.04L256.544 295.648" stroke="#333333" stroke-miterlimit="10"></path><path d="M260.304 254.584C259.295 253.65 258.369 252.63 257.536 251.536" stroke="#333333" stroke-miterlimit="10"></path><path d="M267.768 260.888C267.768 260.888 265.504 259.176 263.024 257.048" stroke="#333333" stroke-miterlimit="10"></path><path d="M276.424 198.528C276.424 198.528 269.6 195.688 259.2 204.224C248.8 212.76 245.24 216 239.896 224.336C236.704 229.489 234.581 235.233 233.656 241.224C233.784 241.848 233.92 242.48 234.072 243.128C237.048 255.704 240.36 261.784 240.36 261.784C240.36 261.784 246.12 233.128 256.144 221.512C266.168 209.896 282.816 202.832 282.816 202.832L276.424 198.528Z" fill="#00A0AD" stroke="#333333" stroke-miterlimit="10"></path><path d="M251.408 142.632C251.408 142.632 243.896 149.648 243.336 155.176C242.776 160.704 242.192 165.472 241.256 167.256C240.32 169.04 235.6 170.208 237.2 172.904C238.8 175.6 240.296 175.544 240.296 175.544C240.296 175.544 242.696 187.472 244.52 189.144C246.344 190.816 252.8 189.856 252.8 189.856L254.8 204.32C254.8 204.32 241.368 216.232 238.752 232.832C236.136 249.432 239.128 258.904 239.128 258.904C239.128 258.904 240.88 232.752 246.928 222.96C252.976 213.168 267.024 203.896 269.096 202.224C271.168 200.552 276.424 198.512 276.424 198.512C276.424 198.512 273.928 192.912 273.592 190.384C273.256 187.856 273.368 184.136 273.84 183.12C274.312 182.104 282.704 179.056 285.84 169.44C288.976 159.824 284.36 148.472 279.44 143.64C274.52 138.808 257.696 136.408 251.408 142.632Z" fill="white" stroke="#333333" stroke-miterlimit="10"></path><path d="M285.872 169.456C289.072 159.856 284.392 148.488 279.472 143.656C274.552 138.824 257.704 136.408 251.416 142.632C251.416 142.632 251.016 143.008 250.392 143.656C252.782 143.058 255.272 142.977 257.696 143.416C262.728 144.216 262.616 148.216 261.248 152.048C259.88 155.88 260.912 156.56 263.48 158.448C266.048 160.336 263.416 163.96 265.224 165.4C267.032 166.84 268.504 159 272.424 164.648C276.344 170.296 273.712 172.856 271.264 174.44C269.893 175.355 268.405 176.082 266.84 176.6C266.84 176.6 270.544 180.944 274.2 182.736C275.952 181.432 283.024 178.096 285.872 169.456Z" fill="#333333" stroke="#333333" stroke-linecap="round" stroke-linejoin="round"></path><path d="M244.368 177.656C244.368 177.656 249.608 177.224 252.032 174.888" stroke="#333333" stroke-miterlimit="10"></path><path d="M247.696 165.28C247.736 166.52 247.264 167.544 246.648 167.568C246.032 167.592 245.488 166.6 245.44 165.36C245.392 164.12 245.872 163.096 246.488 163.072C247.104 163.048 247.648 164.04 247.696 165.28Z" fill="#333333"></path><path d="M245.44 160.216C245.44 160.216 247.128 157.944 249.544 160.624" stroke="#333333" stroke-miterlimit="10"></path><path d="M252.8 189.872L259.048 187.52L254.696 195.336L252.8 189.872Z" fill="#333333" stroke="#333333" stroke-miterlimit="10"></path><path d="M234.808 304.696L226.616 339.2L233.968 340.912L238.016 315.68L234.808 304.696Z" fill="white" stroke="#333333" stroke-miterlimit="10"></path><path d="M242.048 222.088C240.475 225.512 239.367 229.131 238.752 232.848C236.136 249.44 239.128 258.92 239.128 258.92C239.128 258.92 240.864 233.12 246.808 223.184C245.185 223.001 243.588 222.633 242.048 222.088Z" fill="white" stroke="#333333" stroke-miterlimit="10"></path><path d="M267.36 232.856L266.8 262.136L215.56 270.584L216.68 284.384C216.68 284.384 245.12 284.944 258.352 283.816C271.584 282.688 283.152 281.848 284.816 280.44C286.48 279.032 291.304 251.816 293.272 232.672C295.24 213.528 291.304 207.072 283.424 208.176" fill="#00A0AD"></path><path d="M267.36 232.856L266.8 262.136L215.56 270.584L216.68 284.384C216.68 284.384 245.12 284.944 258.352 283.816C271.584 282.688 283.152 281.848 284.816 280.44C286.48 279.032 291.304 251.816 293.272 232.672C295.24 213.528 291.304 207.072 283.424 208.176" stroke="#333333" stroke-miterlimit="10"></path><path d="M184.904 269.344L180.8 281.792L184.8 283.968C184.8 283.968 189.88 287.904 192.664 290.032C195.448 292.16 197.584 292.16 199.064 291.504C200.544 290.848 207.256 281.344 208.072 279.544C208.888 277.744 204.96 272.344 201.032 270.04C197.104 267.736 193.832 267.752 191.528 268.44C189.347 268.915 187.132 269.217 184.904 269.344Z" fill="white" stroke="#333333" stroke-miterlimit="10"></path><path d="M215.56 270.584L209.08 270.024C207.047 269.494 204.977 269.117 202.888 268.896C201.2 268.896 198.944 270.584 197.816 271.432C196.688 272.28 184.304 285.792 184.304 285.792C184.304 285.792 185.432 288.04 187.12 287.48C188.808 286.92 191.92 285.504 191.92 285.504C191.92 285.504 188.544 288.888 190.232 290.576C191.92 292.264 194.736 292.264 194.736 292.264L196.712 291.136C197.543 291.791 198.498 292.27 199.52 292.544C200.928 292.824 203.184 292.264 205.12 291.136C207.056 290.008 212.088 284.136 212.088 284.136L216.408 282.464L215.56 270.584Z" fill="white" stroke="#333333" stroke-miterlimit="10"></path><path d="M187.136 269.88C187.136 269.88 195.328 265.128 198.928 266.44C202.528 267.752 207.288 275.776 205.976 276.928C204.664 278.08 202.536 277.576 201.392 276.432C200.435 275.563 199.392 274.794 198.28 274.136C196.123 275.348 193.705 276.023 191.232 276.104" fill="white"></path><path d="M187.136 269.88C187.136 269.88 195.328 265.128 198.928 266.44C202.528 267.752 207.288 275.776 205.976 276.928C204.664 278.08 202.536 277.576 201.392 276.432C200.435 275.563 199.392 274.794 198.28 274.136C196.123 275.348 193.705 276.023 191.232 276.104" stroke="#333333" stroke-miterlimit="10"></path><path d="M211.568 288.48L208.968 287.088C208.759 286.977 208.573 286.826 208.422 286.643C208.272 286.46 208.158 286.249 208.089 286.022C208.02 285.796 207.996 285.558 208.02 285.322C208.043 285.086 208.112 284.857 208.224 284.648C208.336 284.439 208.488 284.254 208.671 284.104C208.854 283.954 209.065 283.842 209.291 283.774C209.518 283.705 209.756 283.682 209.992 283.706C210.227 283.73 210.456 283.8 210.664 283.912L213.264 285.296C213.685 285.522 214 285.905 214.14 286.362C214.279 286.82 214.232 287.313 214.008 287.736C213.782 288.157 213.399 288.472 212.942 288.612C212.484 288.751 211.991 288.704 211.568 288.48Z" fill="white" stroke="#333333" stroke-miterlimit="10"></path><path d="M209.272 291.264L206.672 289.872C206.261 289.646 205.954 289.27 205.815 288.822C205.676 288.375 205.717 287.89 205.928 287.472C206.155 287.062 206.532 286.757 206.979 286.619C207.427 286.482 207.911 286.524 208.328 286.736L210.928 288.12C211.34 288.344 211.649 288.72 211.788 289.169C211.927 289.617 211.885 290.102 211.672 290.52C211.448 290.932 211.072 291.241 210.623 291.38C210.175 291.519 209.69 291.477 209.272 291.264Z" fill="white" stroke="#333333" stroke-miterlimit="10"></path><path d="M206.648 293.72L204.048 292.328C203.838 292.217 203.653 292.066 203.502 291.883C203.352 291.7 203.239 291.488 203.171 291.262C203.102 291.035 203.079 290.796 203.104 290.561C203.128 290.325 203.199 290.096 203.312 289.888C203.424 289.679 203.575 289.495 203.759 289.345C203.942 289.194 204.153 289.082 204.379 289.014C204.606 288.945 204.844 288.922 205.079 288.946C205.315 288.97 205.544 289.04 205.752 289.152L208.352 290.544C208.561 290.656 208.745 290.807 208.895 290.99C209.045 291.174 209.158 291.385 209.226 291.611C209.295 291.838 209.317 292.076 209.294 292.311C209.27 292.547 209.2 292.775 209.088 292.984C208.976 293.193 208.825 293.377 208.641 293.527C208.458 293.677 208.247 293.79 208.021 293.858C207.794 293.926 207.556 293.949 207.321 293.926C207.085 293.902 206.856 293.832 206.648 293.72Z" fill="white" stroke="#333333" stroke-miterlimit="10"></path><path d="M201.128 293.84L200.448 293.48C200.239 293.369 200.053 293.218 199.902 293.035C199.752 292.852 199.638 292.641 199.569 292.415C199.5 292.188 199.476 291.95 199.5 291.714C199.523 291.478 199.592 291.249 199.704 291.04C199.93 290.619 200.313 290.304 200.77 290.164C201.228 290.025 201.722 290.072 202.144 290.296L202.824 290.664C203.033 290.775 203.219 290.926 203.37 291.109C203.521 291.292 203.634 291.503 203.703 291.729C203.772 291.956 203.796 292.194 203.773 292.43C203.749 292.666 203.68 292.895 203.568 293.104C203.456 293.313 203.305 293.497 203.121 293.647C202.938 293.797 202.727 293.91 202.501 293.978C202.274 294.047 202.036 294.07 201.801 294.046C201.565 294.022 201.337 293.952 201.128 293.84Z" fill="white" stroke="#333333" stroke-miterlimit="10"></path><path d="M184.904 269.344L150.52 254.808L151.792 277.584L180.184 284.088L184.904 269.344Z" fill="#333333" stroke="#333333" stroke-linecap="round" stroke-linejoin="round"></path><path d="M180.184 284.088L184.904 269.344L180.096 267.216L180 267.704L175.6 282.976L180.184 284.088Z" fill="white" stroke="#333333" stroke-miterlimit="10"></path><path d="M131.2 178.24L140 182.328C140 182.328 143.696 192.8 142.464 193.104C141.232 193.408 131.992 186.024 131.992 186.024L131.2 178.24Z" fill="white" stroke="#333333" stroke-linecap="round" stroke-linejoin="round"></path><path d="M136.312 176.144L136.928 172.616C136.928 172.616 145.088 173.176 148.352 173.152C151.616 173.128 154.464 172.712 154.44 169.248C154.416 165.784 152.512 153.968 152.512 153.968C152.512 153.968 156.176 153.128 157.592 151.488C159.008 149.848 156.96 147.824 155.112 145.384C153.264 142.944 151.608 140.312 151.392 137.456C151.176 134.6 146.216 125.256 146.216 125.256C146.216 125.256 147.016 123.824 144.352 120.784C141.688 117.744 128.024 117.216 119.28 121.584C110.536 125.952 108.544 132.256 108.584 139.184C108.624 146.112 112.584 155.88 112.584 155.88C112.584 155.88 110 166.496 109.8 167.08C109.6 167.664 107.28 172.216 107.28 172.216C107.28 172.216 118.216 179.84 122.208 183.264C126.2 186.688 135.216 192.544 135.272 189.376C135.328 186.208 135.688 179.056 135.688 179.056L136.312 176.144Z" fill="white" stroke="#333333" stroke-linecap="round" stroke-linejoin="round"></path><path d="M148.368 143.056C148.416 144.24 148.144 145.208 147.752 145.224C147.36 145.24 146.992 144.304 146.952 143.12C146.912 141.936 147.168 140.968 147.568 140.952C147.968 140.936 148.312 141.872 148.368 143.056Z" fill="#333333"></path><path d="M142.632 139.144C142.632 139.144 144.448 136.072 149.152 137.88" stroke="#333333" stroke-width="2" stroke-linecap="round" stroke-linejoin="round"></path><path d="M154.44 169.248C154.44 165.776 152.512 153.968 152.512 153.968C152.512 153.968 150.264 152.76 145.984 153.8C141.704 154.84 140.536 161.8 139.72 162.6C138.904 163.4 133.584 158.6 131.52 155.312C129.456 152.024 128 146.4 127.776 143.112C127.552 139.824 135.288 138.168 136.496 135.112C137.704 132.056 132 128.8 133.992 126.76C135.984 124.72 140.104 125.504 142.144 125.896C143.535 126.084 144.95 125.862 146.216 125.256C146.216 125.256 147.016 123.824 144.352 120.784C141.688 117.744 128.024 117.216 119.28 121.584C110.536 125.952 108.544 132.256 108.584 139.184C108.624 144.784 111.216 152.272 112.192 154.912C113.018 155.269 113.908 155.454 114.808 155.456C115.608 155.248 116.216 152.8 116.608 150.344C117 147.888 122.896 145.008 122.896 145.008C122.896 145.008 123.96 152.344 123.968 153.768C123.976 155.192 123.168 162.336 127.104 165.768C130.186 168.323 133.472 170.621 136.928 172.64C136.928 172.64 145.088 173.2 148.352 173.176C151.616 173.152 154.464 172.712 154.44 169.248Z" fill="#333333" stroke="#333333" stroke-linecap="round" stroke-linejoin="round"></path><path d="M124.152 150.064C124.152 150.064 122.456 140.288 119.608 140.712C116.76 141.136 115.144 144.816 116.6 149.512C118.056 154.208 120.912 153.768 122.536 153.352" fill="white"></path><path d="M124.152 150.064C124.152 150.064 122.456 140.288 119.608 140.712C116.76 141.136 115.144 144.816 116.6 149.512C118.056 154.208 120.912 153.768 122.536 153.352" stroke="#333333" stroke-linecap="round" stroke-linejoin="round"></path><path d="M144.176 157.48C144.176 157.48 145.816 159.512 150.096 159.488" stroke="white" stroke-linecap="round" stroke-linejoin="round"></path><path d="M98.4 365.704H141.6C141.744 363.432 143.424 354.696 143.424 348.968C143.424 342.352 147.976 299.672 147.976 299.672L91.792 298.936L93.632 325.056L98.4 365.704Z" fill="#333333" stroke="#333333" stroke-linecap="round" stroke-linejoin="round"></path><path d="M104 173.704C104 173.704 94.152 186.336 91.376 193.416C88.6 200.496 86.448 201.728 87.064 210.656C87.68 219.584 92 255.304 92 255.304L83.376 301.808C93.5547 305.455 104.284 307.327 115.096 307.344C132.952 307.344 140.696 305.808 141.888 305.192C143.08 304.576 153.888 301.808 153.888 301.808C153.888 301.808 153.888 249.152 150.496 230.984C147.104 212.816 142.8 198.984 141.264 195.568C139.728 192.152 134.792 181.096 134.792 181.096L104 173.704Z" fill="#333333" stroke="#333333" stroke-linecap="round" stroke-linejoin="round"></path><path d="M141.288 195.568C139.744 192.184 134.816 181.096 134.816 181.096L104 173.704C104 173.704 101.92 176.376 99.3999 179.952C106.112 183.848 122.728 193.48 123.712 193.72C124.944 194.032 131.104 193.416 131.104 193.416L128.352 196.8C128.352 196.8 135.744 202.656 138.208 205.112C139.504 206.408 143.264 209.832 146.544 212.792C144.312 203.944 142.248 197.696 141.288 195.568Z" fill="#333333" stroke="#333333" stroke-linecap="round" stroke-linejoin="round"></path><path d="M127.12 187.872L137.592 196.184L146.208 211.584L140.672 189.104L129.28 182.64L127.12 187.872Z" fill="white" stroke="#333333" stroke-linecap="round" stroke-linejoin="round"></path><path d="M106.184 167.856L138.424 182.384V193.776L101.56 174.936L106.184 167.856Z" fill="white" stroke="#333333" stroke-linecap="round" stroke-linejoin="round"></path><path d="M148.816 284.392H93.104V329.472H148.816V284.392Z" fill="#00A0AD" stroke="#333333" stroke-miterlimit="10"></path><path d="M124.376 305.88C124.376 305.88 128.52 311.28 130.144 311.824C131.511 312.386 132.642 313.403 133.344 314.704C134.064 315.784 134.944 323.888 135.504 324.432C136.064 324.976 136.048 326.232 134.064 325.328C132.08 324.424 130.864 321.328 130.864 321.328L131.584 328.528C131.584 328.528 133.184 328.888 131.944 329.792C130.704 330.696 129.6 331.952 128.52 331.392C127.559 330.82 126.656 330.155 125.824 329.408C124.537 329.84 123.167 329.963 121.824 329.768C119.848 329.408 120.224 330.128 118.408 328.864C116.592 327.6 116.6 329.048 115.704 326.704C114.308 322.509 113.165 318.235 112.28 313.904C111.92 311.56 111.56 308.304 111.56 308.304L124.376 305.88Z" fill="white" stroke="#333333" stroke-linecap="round" stroke-linejoin="round"></path><path d="M125.104 302.456L126.36 308.04L110.872 310.2L110.152 304.616L125.104 302.456Z" fill="white" stroke="#333333" stroke-linecap="round" stroke-linejoin="round"></path><path d="M105.256 184.8C105.256 184.8 94.48 188.184 94.176 193.112C93.872 198.04 90.296 257.808 91.84 261.808C93.384 265.808 108.528 306.344 108.528 306.344L126.08 304.192C126.08 304.192 117.088 257.184 116.8 256.256C116.512 255.328 122.832 202.96 122.832 202.96" fill="#333333"></path><path d="M105.256 184.8C105.256 184.8 94.48 188.184 94.176 193.112C93.872 198.04 90.296 257.808 91.84 261.808C93.384 265.808 108.528 306.344 108.528 306.344L126.08 304.192C126.08 304.192 117.088 257.184 116.8 256.256C116.512 255.328 122.832 202.96 122.832 202.96" stroke="#333333" stroke-linecap="round" stroke-linejoin="round"></path><path d="M120.744 218L116.776 256.256L120.56 280.024" stroke="black" stroke-linecap="round" stroke-linejoin="round"></path><path d="M121.352 212.144L121.144 214.176" stroke="black" stroke-linecap="round" stroke-linejoin="round"></path><path d="M92.936 206.224L91.752 242.144" stroke="black" stroke-linecap="round" stroke-linejoin="round"></path><path d="M133.192 273.752L145.032 273.32L146.096 277.584L126.48 278.84" stroke="black" stroke-linecap="round" stroke-linejoin="round"></path><path d="M123.328 274.104L129.632 273.88" stroke="black" stroke-linecap="round" stroke-linejoin="round"></path><path d="M102.016 180.968L123.736 193.72L131.128 193.416L128.352 196.8L142.664 208.2" stroke="black" stroke-linecap="round" stroke-linejoin="round"></path><path d="M9.18408 365.704H374.376" stroke="#333333" stroke-miterlimit="10"></path><path d="M112.392 36.016V90.088" stroke="#333333" stroke-miterlimit="10"></path><path d="M195.448 36.016V90.088" stroke="#333333" stroke-miterlimit="10"></path><path d="M278.504 36.016V90.088" stroke="#333333" stroke-miterlimit="10"></path><defs><linearGradient id="paint0_linear_601:6383" x1="201.763" y1="19.4563" x2="201.763" y2="352.793" gradientUnits="userSpaceOnUse"><stop stop-color="#F7F7F7"></stop><stop offset="0.510417" stop-color="#E5F5F7"></stop><stop offset="1" stop-color="#F7F7F7"></stop></linearGradient></defs></svg>