<svg xmlns="http://www.w3.org/2000/svg" width="400" height="435" viewBox="0 0 400 435" fill="none"><path d="M194.352 43.0876C94.1044 33.1036 36.0884 91.7916 25.6004 189.6C15.3764 284.504 38.5044 368.616 133.952 368.616C164.184 368.616 199.616 349.064 233.952 339.016C308 317.416 371.792 318.776 376.824 222.112C382.296 116.496 289.336 52.5436 194.352 43.0876ZM64.8004 186.4C59.6404 186.4 59.6564 178.4 64.8004 178.4C69.9444 178.4 69.9444 186.4 64.8004 186.4Z" fill="#E5F5F7"></path><path d="M32.002 353.169H368.002" stroke="#333333" stroke-linecap="round" stroke-linejoin="round"></path><path d="M157.187 29.895H51.8428C49.721 29.895 47.6862 30.7379 46.1859 32.2382C44.6856 33.7385 43.8428 35.7733 43.8428 37.895V253.095C43.8428 255.217 44.6856 257.252 46.1859 258.752C47.6862 260.252 49.721 261.095 51.8428 261.095H157.187C159.309 261.095 161.343 260.252 162.844 258.752C164.344 257.252 165.187 255.217 165.187 253.095V37.895C165.187 36.8444 164.98 35.8042 164.578 34.8336C164.176 33.8629 163.587 32.981 162.844 32.2382C162.101 31.4953 161.219 30.906 160.248 30.504C159.278 30.1019 158.237 29.895 157.187 29.895ZM64.8028 186.399C59.6428 186.399 59.6588 178.399 64.8028 178.399C69.9468 178.399 69.9468 186.399 64.8028 186.399Z" fill="#333333" stroke="#333333" stroke-linecap="round" stroke-linejoin="round"></path><path d="M106.521 39.1345C106.521 39.5316 106.403 39.9198 106.183 40.2501C105.962 40.5803 105.648 40.8376 105.281 40.9896C104.914 41.1416 104.511 41.1814 104.121 41.1039C103.732 41.0264 103.374 40.8352 103.093 40.5543C102.812 40.2735 102.621 39.9157 102.543 39.5262C102.466 39.1367 102.506 38.733 102.658 38.366C102.81 37.9991 103.067 37.6855 103.397 37.4649C103.728 37.2442 104.116 37.1265 104.513 37.1265C105.046 37.1265 105.556 37.338 105.933 37.7146C106.309 38.0912 106.521 38.6019 106.521 39.1345Z" fill="#00A0AD" stroke="#333333" stroke-linecap="round" stroke-linejoin="round"></path><path d="M127.004 39.9974L125.764 42.8614C125.33 43.8688 124.61 44.7266 123.692 45.3282C122.775 45.9298 121.701 46.2487 120.604 46.2454H88.4282C87.3326 46.2471 86.2605 45.9275 85.3448 45.326C84.429 44.7245 83.7098 43.8676 83.2762 42.8614L82.0282 39.9974C81.5941 38.9899 80.8737 38.1321 79.9564 37.5305C79.0391 36.9289 77.9652 36.61 76.8682 36.6134H54.6202C54.0827 36.6134 53.5505 36.7194 53.054 36.9253C52.5575 37.1312 52.1065 37.4331 51.7268 37.8135C51.347 38.194 51.0461 38.6456 50.8411 39.1425C50.6361 39.6394 50.5312 40.1718 50.5322 40.7094V250.325C50.5365 251.407 50.969 252.443 51.7352 253.206C52.5014 253.969 53.5388 254.397 54.6202 254.397H154.404C155.491 254.397 156.532 253.966 157.301 253.198C158.069 252.43 158.5 251.388 158.5 250.301V40.7014C158.502 40.1621 158.398 39.6278 158.193 39.129C157.988 38.6302 157.687 38.1767 157.306 37.7947C156.926 37.4127 156.473 37.1095 155.975 36.9027C155.477 36.6958 154.943 36.5894 154.404 36.5894H132.164C131.065 36.588 129.989 36.9105 129.071 37.5165C128.154 38.1226 127.435 38.9854 127.004 39.9974Z" fill="#00A0AD"></path><path opacity="0.5" d="M154.404 36.5894H132.164C131.065 36.588 129.989 36.9105 129.071 37.5165C128.154 38.1226 127.435 38.9854 127.004 39.9974L125.764 42.8614C125.33 43.8688 124.61 44.7266 123.692 45.3282C122.775 45.9298 121.701 46.2487 120.604 46.2454H88.4282C87.3326 46.2471 86.2605 45.9275 85.3448 45.326C84.429 44.7245 83.7098 43.8676 83.2762 42.8614L82.0282 39.9974C81.5941 38.9899 80.8737 38.1321 79.9564 37.5305C79.0391 36.9289 77.9652 36.61 76.8682 36.6134H54.6202C54.0827 36.6134 53.5505 36.7194 53.054 36.9253C52.5575 37.1312 52.1065 37.4331 51.7268 37.8135C51.347 38.194 51.0461 38.6456 50.8411 39.1425C50.6361 39.6394 50.5312 40.1718 50.5322 40.7094V250.325C50.5365 251.407 50.969 252.443 51.7352 253.206C52.5014 253.969 53.5388 254.397 54.6202 254.397H154.404C155.491 254.397 156.532 253.966 157.301 253.198C158.069 252.43 158.5 251.388 158.5 250.301V40.7014C158.502 40.1621 158.398 39.6278 158.193 39.129C157.988 38.6302 157.687 38.1767 157.306 37.7947C156.926 37.4127 156.473 37.1095 155.975 36.9027C155.477 36.6958 154.943 36.5894 154.404 36.5894ZM64.8042 186.397C59.6442 186.397 59.6602 178.397 64.8042 178.397C69.9482 178.397 69.9482 186.397 64.8042 186.397Z" fill="white" stroke="#333333" stroke-linecap="round" stroke-linejoin="round"></path><path d="M127.004 39.9974L125.764 42.8614C125.33 43.8688 124.61 44.7266 123.692 45.3282C122.775 45.9298 121.701 46.2487 120.604 46.2454H88.4282C87.3326 46.2471 86.2605 45.9275 85.3448 45.326C84.429 44.7245 83.7098 43.8676 83.2762 42.8614L82.0282 39.9974C81.5941 38.9899 80.8737 38.1321 79.9564 37.5305C79.0391 36.9289 77.9652 36.61 76.8682 36.6134H54.6202C54.0827 36.6134 53.5505 36.7194 53.054 36.9253C52.5575 37.1312 52.1065 37.4331 51.7268 37.8135C51.347 38.194 51.0461 38.6456 50.8411 39.1425C50.6361 39.6394 50.5312 40.1718 50.5322 40.7094V250.325C50.5365 251.407 50.969 252.443 51.7352 253.206C52.5014 253.969 53.5388 254.397 54.6202 254.397H154.404C155.491 254.397 156.532 253.966 157.301 253.198C158.069 252.43 158.5 251.388 158.5 250.301V40.7014C158.502 40.1621 158.398 39.6278 158.193 39.129C157.988 38.6302 157.687 38.1767 157.306 37.7947C156.926 37.4127 156.473 37.1095 155.975 36.9027C155.477 36.6958 154.943 36.5894 154.404 36.5894H132.164C131.065 36.588 129.989 36.9105 129.071 37.5165C128.154 38.1226 127.435 38.9854 127.004 39.9974V39.9974Z" stroke="#333333" stroke-linecap="round" stroke-linejoin="round"></path><path d="M151.528 51.3818H57.4961C55.4946 51.3818 53.8721 53.0044 53.8721 55.0058V66.1898C53.8721 68.1913 55.4946 69.8138 57.4961 69.8138H151.528C153.53 69.8138 155.152 68.1913 155.152 66.1898V55.0058C155.152 53.0044 153.53 51.3818 151.528 51.3818Z" fill="white" stroke="#333333" stroke-width="0.75" stroke-linecap="round" stroke-linejoin="round"></path><path d="M107.752 61.2947C108.126 60.9197 108.386 60.4456 108.501 59.928C108.615 59.4105 108.579 58.871 108.398 58.3731C108.216 57.8751 107.896 57.4394 107.475 57.117C107.055 56.7946 106.551 56.5991 106.023 56.5534C105.494 56.5076 104.964 56.6136 104.494 56.8588C104.024 57.104 103.634 57.4782 103.37 57.9375C103.105 58.3968 102.977 58.9221 103.001 59.4516C103.025 59.9811 103.199 60.4929 103.504 60.9267C103.438 60.9515 103.378 60.9896 103.328 61.0387L100.616 63.7507C100.566 63.7991 100.527 63.857 100.5 63.9208C100.473 63.9847 100.459 64.0533 100.459 64.1227C100.459 64.192 100.473 64.2606 100.5 64.3245C100.527 64.3884 100.566 64.4462 100.616 64.4947C100.663 64.544 100.721 64.5833 100.784 64.6101C100.847 64.6369 100.915 64.6507 100.984 64.6507C101.052 64.6507 101.12 64.6369 101.184 64.6101C101.247 64.5833 101.304 64.544 101.352 64.4947L104.064 61.7827C104.118 61.7349 104.159 61.6744 104.184 61.6067C104.72 61.9828 105.372 62.1577 106.025 62.1006C106.677 62.0435 107.289 61.7582 107.752 61.2947ZM104.296 60.7987C104.003 60.5053 103.804 60.1318 103.724 59.7254C103.643 59.319 103.685 58.8978 103.844 58.5151C104.003 58.1324 104.271 57.8054 104.616 57.5753C104.96 57.3453 105.365 57.2225 105.78 57.2225C106.194 57.2225 106.599 57.3453 106.944 57.5753C107.288 57.8054 107.557 58.1324 107.716 58.5151C107.874 58.8978 107.916 59.319 107.836 59.7254C107.755 60.1318 107.556 60.5053 107.264 60.7987C107.069 60.9939 106.838 61.1487 106.583 61.2544C106.328 61.3601 106.055 61.4145 105.78 61.4145C105.504 61.4145 105.231 61.3601 104.976 61.2544C104.722 61.1487 104.49 60.9939 104.296 60.7987Z" fill="#333333"></path><path d="M70.2 56.8712H59.3759C59.2832 56.8722 59.1912 56.8548 59.1053 56.8198C59.0194 56.7848 58.9413 56.733 58.8757 56.6674C58.8101 56.6018 58.7583 56.5238 58.7233 56.4379C58.6883 56.352 58.6708 56.26 58.6719 56.1672C58.6719 56.0751 58.6902 55.984 58.7257 55.899C58.7611 55.814 58.8131 55.737 58.8786 55.6722C58.9441 55.6075 59.0218 55.5564 59.1071 55.5219C59.1925 55.4874 59.2839 55.4702 59.3759 55.4712H70.2C70.3853 55.4712 70.5632 55.5443 70.695 55.6746C70.8268 55.8049 70.9019 55.9819 70.904 56.1672C70.904 56.3539 70.8298 56.533 70.6978 56.665C70.5657 56.797 70.3867 56.8712 70.2 56.8712Z" fill="#333333" stroke="#333333" stroke-width="0.75" stroke-linecap="round" stroke-linejoin="round"></path><path d="M68.8 60.8776H59.3759C59.2839 60.8787 59.1925 60.8614 59.1071 60.8269C59.0218 60.7924 58.9441 60.7413 58.8786 60.6766C58.8131 60.6119 58.7611 60.5348 58.7257 60.4498C58.6902 60.3648 58.6719 60.2737 58.6719 60.1816C58.6708 60.0888 58.6883 59.9968 58.7233 59.9109C58.7583 59.825 58.8101 59.747 58.8757 59.6814C58.9413 59.6158 59.0194 59.564 59.1053 59.529C59.1912 59.494 59.2832 59.4765 59.3759 59.4776H68.8C68.9867 59.4776 69.1657 59.5518 69.2978 59.6838C69.4298 59.8158 69.504 59.9949 69.504 60.1816C69.5019 60.3669 69.4268 60.5439 69.295 60.6742C69.1632 60.8045 68.9853 60.8776 68.8 60.8776Z" fill="#333333" stroke="#333333" stroke-width="0.75" stroke-linecap="round" stroke-linejoin="round"></path><path d="M67.4052 64.8937H59.4052C59.2185 64.8937 59.0394 64.8195 58.9074 64.6875C58.7753 64.5554 58.7012 64.3764 58.7012 64.1897C58.7012 64.0976 58.7194 64.0064 58.7549 63.9215C58.7904 63.8365 58.8424 63.7594 58.9078 63.6947C58.9733 63.63 59.051 63.5789 59.1364 63.5444C59.2217 63.5099 59.3131 63.4926 59.4052 63.4937H67.4052C67.5905 63.4937 67.7684 63.5668 67.9002 63.697C68.032 63.8273 68.1071 64.0044 68.1092 64.1897C68.1071 64.3757 68.0323 64.5536 67.9007 64.6852C67.7691 64.8167 67.5912 64.8916 67.4052 64.8937Z" fill="#333333" stroke="#333333" stroke-width="0.75" stroke-linecap="round" stroke-linejoin="round"></path><path d="M151.528 75.2637H57.4961C55.4946 75.2637 53.8721 76.8862 53.8721 78.8877V128.8C53.8721 130.801 55.4946 132.424 57.4961 132.424H151.528C153.53 132.424 155.152 130.801 155.152 128.8V78.8877C155.152 76.8862 153.53 75.2637 151.528 75.2637Z" fill="white" stroke="#333333" stroke-width="0.75" stroke-linecap="round" stroke-linejoin="round"></path><path d="M142.427 82.4561H66.6113V125.248H142.427V82.4561Z" fill="#00A0AD" stroke="#333333" stroke-width="0.75" stroke-linecap="round" stroke-linejoin="round"></path><path d="M119.333 108.376H72.8527C72.5209 108.376 72.2027 108.244 71.9674 108.011C71.7321 107.777 71.5988 107.459 71.5967 107.128C71.5967 106.794 71.729 106.475 71.9646 106.239C72.2001 106.004 72.5196 105.872 72.8527 105.872H119.333C119.666 105.872 119.985 106.004 120.221 106.239C120.456 106.475 120.589 106.794 120.589 107.128C120.589 107.292 120.556 107.455 120.493 107.607C120.43 107.759 120.337 107.897 120.22 108.013C120.104 108.129 119.965 108.221 119.813 108.283C119.66 108.345 119.497 108.377 119.333 108.376Z" fill="#333333" stroke="#333333" stroke-width="0.75" stroke-linecap="round" stroke-linejoin="round"></path><path d="M115.677 113.655H72.8527C72.5202 113.652 72.202 113.519 71.9669 113.284C71.7318 113.049 71.5988 112.731 71.5967 112.399C71.5967 112.065 71.729 111.746 71.9646 111.51C72.2001 111.275 72.5196 111.143 72.8527 111.143H115.677C116.01 111.143 116.329 111.275 116.565 111.51C116.8 111.746 116.933 112.065 116.933 112.399C116.931 112.731 116.798 113.049 116.562 113.284C116.327 113.519 116.009 113.652 115.677 113.655Z" fill="#333333" stroke="#333333" stroke-width="0.75" stroke-linecap="round" stroke-linejoin="round"></path><path d="M96.092 120.712C96.092 120.927 96.0281 121.138 95.9086 121.317C95.7891 121.495 95.6191 121.635 95.4203 121.717C95.2215 121.8 95.0028 121.821 94.7917 121.779C94.5807 121.737 94.3868 121.634 94.2347 121.481C94.0825 121.329 93.9789 121.135 93.9369 120.924C93.8949 120.713 93.9165 120.495 93.9988 120.296C94.0812 120.097 94.2206 119.927 94.3995 119.807C94.5785 119.688 94.7888 119.624 95.004 119.624C95.2925 119.624 95.5693 119.739 95.7733 119.943C95.9773 120.147 96.092 120.424 96.092 120.712Z" fill="white"></path><path d="M102.401 120.712C102.401 120.927 102.337 121.138 102.217 121.317C102.098 121.495 101.928 121.635 101.729 121.717C101.53 121.8 101.311 121.821 101.1 121.779C100.889 121.737 100.695 121.634 100.543 121.481C100.391 121.329 100.287 121.135 100.246 120.924C100.204 120.713 100.225 120.495 100.307 120.296C100.39 120.097 100.529 119.927 100.708 119.807C100.887 119.688 101.097 119.624 101.313 119.624C101.601 119.624 101.878 119.739 102.082 119.943C102.286 120.147 102.401 120.424 102.401 120.712Z" fill="white"></path><path d="M108.802 120.712C108.802 120.927 108.738 121.138 108.619 121.317C108.499 121.495 108.329 121.635 108.13 121.717C107.931 121.8 107.713 121.821 107.502 121.779C107.291 121.737 107.097 121.634 106.945 121.481C106.792 121.329 106.689 121.135 106.647 120.924C106.605 120.713 106.626 120.495 106.709 120.296C106.791 120.097 106.931 119.927 107.11 119.807C107.288 119.688 107.499 119.624 107.714 119.624C108.002 119.624 108.279 119.739 108.483 119.943C108.687 120.147 108.802 120.424 108.802 120.712Z" fill="white"></path><path d="M115.115 120.712C115.115 120.927 115.052 121.138 114.932 121.317C114.812 121.495 114.643 121.635 114.444 121.717C114.245 121.8 114.026 121.821 113.815 121.779C113.604 121.737 113.41 121.634 113.258 121.481C113.106 121.329 113.002 121.135 112.96 120.924C112.918 120.713 112.94 120.495 113.022 120.296C113.105 120.097 113.244 119.927 113.423 119.807C113.602 119.688 113.812 119.624 114.027 119.624C114.17 119.624 114.312 119.652 114.444 119.707C114.576 119.762 114.696 119.842 114.797 119.943C114.898 120.044 114.978 120.164 115.033 120.296C115.087 120.428 115.115 120.569 115.115 120.712Z" fill="white"></path><path d="M146.613 109.118C146.421 109.122 146.233 109.057 146.085 108.934C145.995 108.868 145.92 108.784 145.864 108.688C145.809 108.592 145.774 108.485 145.762 108.374C145.749 108.263 145.761 108.151 145.794 108.045C145.828 107.939 145.884 107.841 145.957 107.758L149.157 103.846L145.957 99.9339C145.817 99.7609 145.752 99.5395 145.775 99.3182C145.798 99.0969 145.908 98.8939 146.081 98.7539C146.254 98.6138 146.476 98.5482 146.697 98.5715C146.918 98.5947 147.121 98.705 147.261 98.8779L150.861 103.318C150.982 103.467 151.048 103.654 151.048 103.846C151.048 104.038 150.982 104.224 150.861 104.374L147.261 108.814C147.182 108.909 147.083 108.985 146.971 109.038C146.859 109.09 146.737 109.117 146.613 109.118Z" fill="#00A0AD"></path><path d="M62.4065 109.118C62.2815 109.119 62.1579 109.092 62.0445 109.039C61.9311 108.987 61.8307 108.91 61.7505 108.814L58.1506 104.374C58.0298 104.224 57.9639 104.038 57.9639 103.846C57.9639 103.654 58.0298 103.467 58.1506 103.318L61.7505 98.8779C61.8906 98.705 62.0936 98.5947 62.3149 98.5715C62.5361 98.5482 62.7576 98.6138 62.9305 98.7539C63.1035 98.8939 63.2137 99.0969 63.2369 99.3182C63.2602 99.5395 63.1946 99.7609 63.0545 99.9339L59.8545 103.846L63.0545 107.758C63.1283 107.841 63.1838 107.939 63.2175 108.045C63.2512 108.151 63.2624 108.263 63.2503 108.374C63.2383 108.485 63.2033 108.592 63.1475 108.688C63.0918 108.785 63.0165 108.868 62.9265 108.934C62.7805 109.055 62.5962 109.12 62.4065 109.118Z" fill="#00A0AD"></path><path d="M71.0189 139.189H62.0029C58.4373 139.189 55.5469 142.08 55.5469 145.645V154.661C55.5469 158.227 58.4373 161.117 62.0029 161.117H71.0189C74.5844 161.117 77.4749 158.227 77.4749 154.661V145.645C77.4749 142.08 74.5844 139.189 71.0189 139.189Z" fill="#00A0AD" stroke="#333333" stroke-width="0.75" stroke-linecap="round" stroke-linejoin="round"></path><path opacity="0.5" d="M66.5177 156.913C64.7269 156.913 63.0095 156.202 61.7433 154.935C60.477 153.669 59.7656 151.952 59.7656 150.161C59.7646 149.274 59.9385 148.395 60.2773 147.575C60.6162 146.754 61.1133 146.009 61.7404 145.381C62.3675 144.753 63.1122 144.255 63.9319 143.916C64.7516 143.576 65.6303 143.401 66.5177 143.401C67.405 143.401 68.2837 143.576 69.1034 143.916C69.9231 144.255 70.6678 144.753 71.2949 145.381C71.922 146.009 72.4192 146.754 72.758 147.575C73.0969 148.395 73.2707 149.274 73.2697 150.161C73.2697 151.952 72.5583 153.669 71.292 154.935C70.0258 156.202 68.3084 156.913 66.5177 156.913Z" fill="white"></path><path d="M76.2269 167.737H56.8029C56.4698 167.737 56.1503 167.604 55.9147 167.369C55.6792 167.133 55.5469 166.814 55.5469 166.481C55.5469 166.147 55.6792 165.828 55.9147 165.592C56.1503 165.357 56.4698 165.225 56.8029 165.225H76.2269C76.56 165.225 76.8795 165.357 77.115 165.592C77.3505 165.828 77.4829 166.147 77.4829 166.481C77.4829 166.814 77.3505 167.133 77.115 167.369C76.8795 167.604 76.56 167.737 76.2269 167.737Z" fill="#333333" stroke="#333333" stroke-width="0.75" stroke-linecap="round" stroke-linejoin="round"></path><path d="M151.528 176.15H57.4961C57.0195 176.15 56.5476 176.244 56.1074 176.427C55.6672 176.609 55.2673 176.877 54.9307 177.214C54.5941 177.552 54.3273 177.952 54.1456 178.393C53.964 178.833 53.871 179.305 53.8721 179.782V204.278C53.8721 205.239 54.2539 206.161 54.9335 206.84C55.6132 207.52 56.5349 207.902 57.4961 207.902H151.528C152.489 207.902 153.411 207.52 154.091 206.84C154.77 206.161 155.152 205.239 155.152 204.278V179.782C155.153 179.305 155.06 178.833 154.878 178.393C154.697 177.952 154.43 177.552 154.093 177.214C153.757 176.877 153.357 176.609 152.917 176.427C152.476 176.244 152.005 176.15 151.528 176.15ZM64.8001 186.398C59.6401 186.398 59.6561 178.398 64.8001 178.398C69.9441 178.398 69.9441 186.398 64.8001 186.398Z" fill="white" stroke="#333333" stroke-width="0.75" stroke-linecap="round" stroke-linejoin="round"></path><path d="M68.5014 181.174C69.1414 183.486 67.9094 186.398 64.8054 186.398C61.7014 186.398 60.4694 183.486 61.1094 181.174H58.9014V202.878H91.8374V181.174H68.5014Z" fill="#00A0AD" stroke="#333333" stroke-width="0.75" stroke-linecap="round" stroke-linejoin="round"></path><path d="M143.398 183.752H96.9103C96.5772 183.752 96.2577 183.62 96.0222 183.384C95.7866 183.149 95.6543 182.829 95.6543 182.496C95.6564 182.164 95.7894 181.846 96.0245 181.61C96.2596 181.375 96.5778 181.242 96.9103 181.24H143.398C143.731 181.242 144.049 181.375 144.284 181.61C144.519 181.846 144.652 182.164 144.654 182.496C144.654 182.829 144.522 183.149 144.286 183.384C144.051 183.62 143.731 183.752 143.398 183.752Z" fill="#333333" stroke="#333333" stroke-width="0.75" stroke-linecap="round" stroke-linejoin="round"></path><path d="M139.734 189.023H96.9103C96.5772 189.023 96.2577 188.891 96.0222 188.655C95.7866 188.42 95.6543 188.1 95.6543 187.767C95.6564 187.435 95.7894 187.117 96.0245 186.881C96.2596 186.646 96.5778 186.513 96.9103 186.511H139.734C140.067 186.511 140.387 186.644 140.622 186.879C140.858 187.115 140.99 187.434 140.99 187.767C140.99 188.1 140.858 188.42 140.622 188.655C140.387 188.891 140.067 189.023 139.734 189.023Z" fill="#333333" stroke="#333333" stroke-width="0.75" stroke-linecap="round" stroke-linejoin="round"></path><path d="M142.142 194.294H96.9103C96.5772 194.294 96.2577 194.161 96.0222 193.926C95.7866 193.69 95.6543 193.371 95.6543 193.038C95.6564 192.706 95.7897 192.388 96.025 192.155C96.2603 191.921 96.5786 191.79 96.9103 191.79H142.142C142.474 191.79 142.792 191.921 143.028 192.155C143.263 192.388 143.396 192.706 143.398 193.038C143.398 193.371 143.266 193.69 143.03 193.926C142.795 194.161 142.475 194.294 142.142 194.294Z" fill="#333333" stroke="#333333" stroke-width="0.75" stroke-linecap="round" stroke-linejoin="round"></path><path d="M134.19 199.567H96.9103C96.5772 199.567 96.2577 199.435 96.0222 199.199C95.7866 198.964 95.6543 198.644 95.6543 198.311C95.6564 197.979 95.7897 197.662 96.025 197.428C96.2603 197.194 96.5786 197.063 96.9103 197.063H134.19C134.522 197.063 134.84 197.194 135.076 197.428C135.311 197.662 135.444 197.979 135.446 198.311C135.446 198.644 135.314 198.964 135.078 199.199C134.843 199.435 134.523 199.567 134.19 199.567Z" fill="#333333" stroke="#333333" stroke-width="0.75" stroke-linecap="round" stroke-linejoin="round"></path><path d="M151.528 212.839H57.4961C55.4946 212.839 53.8721 214.462 53.8721 216.463V240.967C53.8721 242.969 55.4946 244.591 57.4961 244.591H151.528C153.53 244.591 155.152 242.969 155.152 240.967V216.463C155.152 214.462 153.53 212.839 151.528 212.839Z" fill="white" stroke="#333333" stroke-width="0.75" stroke-linecap="round" stroke-linejoin="round"></path><path d="M91.8374 217.856H58.9014V239.56H91.8374V217.856Z" fill="#00A0AD" stroke="#333333" stroke-width="0.75" stroke-linecap="round" stroke-linejoin="round"></path><path d="M143.398 220.439H96.9103C96.5778 220.437 96.2596 220.304 96.0245 220.069C95.7894 219.834 95.6564 219.516 95.6543 219.183C95.6543 218.85 95.7866 218.531 96.0222 218.295C96.2577 218.06 96.5772 217.927 96.9103 217.927H143.398C143.731 217.927 144.051 218.06 144.286 218.295C144.522 218.531 144.654 218.85 144.654 219.183C144.652 219.516 144.519 219.834 144.284 220.069C144.049 220.304 143.731 220.437 143.398 220.439Z" fill="#333333" stroke="#333333" stroke-width="0.75" stroke-linecap="round" stroke-linejoin="round"></path><path d="M146.401 225.71H96.881C96.5485 225.708 96.2303 225.575 95.9952 225.34C95.7601 225.105 95.6271 224.787 95.625 224.454C95.625 224.121 95.7573 223.802 95.9929 223.566C96.2284 223.331 96.5479 223.198 96.881 223.198H146.401C146.734 223.198 147.054 223.331 147.289 223.566C147.525 223.802 147.657 224.121 147.657 224.454C147.657 224.787 147.525 225.107 147.289 225.342C147.054 225.578 146.734 225.71 146.401 225.71Z" fill="#333333" stroke="#333333" stroke-width="0.75" stroke-linecap="round" stroke-linejoin="round"></path><path d="M137.118 236.255H96.9103C96.5778 236.253 96.2596 236.12 96.0245 235.884C95.7894 235.649 95.6564 235.331 95.6543 234.999C95.6543 234.666 95.7866 234.346 96.0222 234.111C96.2577 233.875 96.5772 233.743 96.9103 233.743H137.118C137.451 233.743 137.771 233.875 138.006 234.111C138.242 234.346 138.374 234.666 138.374 234.999C138.374 235.332 138.242 235.651 138.006 235.887C137.771 236.122 137.451 236.255 137.118 236.255Z" fill="#333333" stroke="#333333" stroke-width="0.75" stroke-linecap="round" stroke-linejoin="round"></path><path d="M142.558 231.056H96.9103C96.5772 231.056 96.2577 230.924 96.0222 230.688C95.7866 230.453 95.6543 230.133 95.6543 229.8C95.6564 229.468 95.7897 229.151 96.025 228.917C96.2603 228.683 96.5786 228.552 96.9103 228.552H142.558C142.723 228.551 142.886 228.583 143.038 228.645C143.191 228.707 143.329 228.799 143.446 228.915C143.563 229.031 143.655 229.169 143.719 229.321C143.782 229.473 143.814 229.636 143.814 229.8C143.814 230.133 143.682 230.453 143.446 230.688C143.211 230.924 142.891 231.056 142.558 231.056Z" fill="#333333" stroke="#333333" stroke-width="0.75" stroke-linecap="round" stroke-linejoin="round"></path><path d="M121.659 139.189H112.643C109.077 139.189 106.187 142.08 106.187 145.645V154.661C106.187 158.227 109.077 161.117 112.643 161.117H121.659C125.224 161.117 128.115 158.227 128.115 154.661V145.645C128.115 142.08 125.224 139.189 121.659 139.189Z" fill="#00A0AD" stroke="#333333" stroke-width="0.75" stroke-linecap="round" stroke-linejoin="round"></path><path opacity="0.5" d="M117.152 156.913C115.362 156.913 113.644 156.202 112.378 154.935C111.112 153.669 110.4 151.952 110.4 150.161C110.399 149.274 110.573 148.395 110.912 147.575C111.251 146.754 111.748 146.009 112.375 145.381C113.002 144.753 113.747 144.255 114.567 143.916C115.386 143.576 116.265 143.401 117.152 143.401C118.04 143.401 118.918 143.576 119.738 143.916C120.558 144.255 121.302 144.753 121.93 145.381C122.557 146.009 123.054 146.754 123.393 147.575C123.732 148.395 123.905 149.274 123.904 150.161C123.904 151.952 123.193 153.669 121.927 154.935C120.661 156.202 118.943 156.913 117.152 156.913Z" fill="white"></path><path d="M126.866 167.737H107.443C107.109 167.737 106.79 167.604 106.554 167.369C106.319 167.133 106.187 166.814 106.187 166.481C106.187 166.147 106.319 165.828 106.554 165.592C106.79 165.357 107.109 165.225 107.443 165.225H126.866C127.031 165.225 127.194 165.257 127.346 165.32C127.498 165.384 127.636 165.476 127.752 165.593C127.868 165.71 127.959 165.848 128.022 166.001C128.084 166.153 128.115 166.316 128.114 166.481C128.115 166.645 128.084 166.808 128.022 166.961C127.959 167.113 127.868 167.252 127.752 167.368C127.636 167.485 127.498 167.578 127.346 167.641C127.194 167.704 127.031 167.737 126.866 167.737Z" fill="#333333" stroke="#333333" stroke-width="0.75" stroke-linecap="round" stroke-linejoin="round"></path><path d="M146.976 139.189H137.96C134.394 139.189 131.504 142.08 131.504 145.645V154.661C131.504 158.227 134.394 161.117 137.96 161.117H146.976C150.541 161.117 153.432 158.227 153.432 154.661V145.645C153.432 142.08 150.541 139.189 146.976 139.189Z" fill="#00A0AD" stroke="#333333" stroke-width="0.75" stroke-linecap="round" stroke-linejoin="round"></path><path opacity="0.5" d="M142.475 156.913C140.684 156.913 138.967 156.202 137.7 154.935C136.434 153.669 135.723 151.952 135.723 150.161C135.722 149.274 135.895 148.395 136.234 147.575C136.573 146.754 137.07 146.009 137.697 145.381C138.325 144.753 139.069 144.255 139.889 143.916C140.709 143.576 141.587 143.401 142.475 143.401C143.362 143.401 144.241 143.576 145.06 143.916C145.88 144.255 146.625 144.753 147.252 145.381C147.879 146.009 148.376 146.754 148.715 147.575C149.054 148.395 149.228 149.274 149.227 150.161C149.227 151.952 148.515 153.669 147.249 154.935C145.983 156.202 144.265 156.913 142.475 156.913Z" fill="white"></path><path d="M152.188 167.737H132.804C132.471 167.737 132.151 167.604 131.916 167.369C131.68 167.133 131.548 166.814 131.548 166.481C131.548 166.148 131.68 165.828 131.916 165.592C132.151 165.357 132.471 165.225 132.804 165.225H152.228C152.392 165.225 152.555 165.257 152.707 165.32C152.859 165.384 152.997 165.476 153.113 165.593C153.229 165.71 153.321 165.848 153.383 166.001C153.445 166.153 153.477 166.316 153.476 166.481C153.477 166.649 153.444 166.815 153.38 166.97C153.315 167.125 153.22 167.266 153.099 167.383C152.979 167.5 152.836 167.592 152.68 167.653C152.523 167.714 152.356 167.742 152.188 167.737Z" fill="#333333" stroke="#333333" stroke-width="0.75" stroke-linecap="round" stroke-linejoin="round"></path><path d="M96.3411 139.189H87.3251C83.7596 139.189 80.8691 142.08 80.8691 145.645V154.661C80.8691 158.227 83.7596 161.117 87.3251 161.117H96.3411C99.9067 161.117 102.797 158.227 102.797 154.661V145.645C102.797 142.08 99.9067 139.189 96.3411 139.189Z" fill="#00A0AD" stroke="#333333" stroke-width="0.75" stroke-linecap="round" stroke-linejoin="round"></path><path d="M101.549 167.737H82.1251C81.792 167.737 81.4726 167.604 81.237 167.369C81.0015 167.133 80.8691 166.814 80.8691 166.481C80.8691 166.147 81.0015 165.828 81.237 165.592C81.4726 165.357 81.792 165.225 82.1251 165.225H101.549C101.714 165.225 101.877 165.257 102.029 165.32C102.181 165.384 102.318 165.476 102.434 165.593C102.55 165.71 102.642 165.848 102.704 166.001C102.767 166.153 102.798 166.316 102.797 166.481C102.798 166.645 102.767 166.808 102.704 166.961C102.642 167.113 102.55 167.252 102.434 167.368C102.318 167.485 102.181 167.578 102.029 167.641C101.877 167.704 101.714 167.737 101.549 167.737Z" fill="#333333" stroke="#333333" stroke-width="0.75" stroke-linecap="round" stroke-linejoin="round"></path><path opacity="0.5" d="M91.835 156.913C90.0443 156.913 88.3269 156.202 87.0606 154.935C85.7944 153.669 85.083 151.952 85.083 150.161C85.082 149.274 85.2558 148.395 85.5947 147.575C85.9335 146.754 86.4307 146.009 87.0578 145.381C87.6849 144.753 88.4296 144.255 89.2493 143.916C90.069 143.576 90.9477 143.401 91.835 143.401C92.7224 143.401 93.601 143.576 94.4208 143.916C95.2405 144.255 95.9852 144.753 96.6123 145.381C97.2393 146.009 97.7365 146.754 98.0754 147.575C98.4142 148.395 98.5881 149.274 98.587 150.161C98.587 151.952 97.8757 153.669 96.6094 154.935C95.3432 156.202 93.6258 156.913 91.835 156.913Z" fill="white"></path><path d="M127.345 345.76H117.081C114.71 345.76 112.425 344.87 110.68 343.265C108.934 341.66 107.855 339.459 107.657 337.096L105.601 316.592H138.769L136.801 337.096C136.6 339.463 135.516 341.669 133.764 343.274C132.012 344.879 129.721 345.766 127.345 345.76Z" fill="white"></path><path d="M137.599 328.424L137.711 328.272C137.759 328.16 137.871 327.92 137.903 327.816C137.935 327.712 137.959 327.528 137.983 327.384C138.007 327.24 137.983 327.32 137.983 327.288C138.047 326.728 138.095 326.16 138.175 325.6H106.719C107.13 326.494 107.231 327.499 107.007 328.456V328.496C107.007 328.76 107.007 329.016 107.007 329.296C107.007 329.392 107.007 329.488 107.007 329.584V329.6C107.103 329.896 107.103 329.92 107.007 329.696V329.736C107.179 330.196 107.282 330.679 107.311 331.168H137.175C137.047 330.707 137.018 330.224 137.092 329.751C137.165 329.278 137.338 328.826 137.599 328.424Z" fill="#00A0AD"></path><path d="M127.345 345.76H117.081C114.71 345.76 112.425 344.87 110.68 343.265C108.934 341.66 107.855 339.459 107.657 337.096L105.601 316.592H138.769L136.801 337.096C136.6 339.463 135.516 341.669 133.764 343.274C132.012 344.879 129.721 345.766 127.345 345.76V345.76Z" stroke="#333333" stroke-linecap="round" stroke-linejoin="round"></path><path d="M127.346 345.758H117.082C115.392 345.761 113.733 345.305 112.282 344.438L112.002 347.71H132.426L132.146 344.438C130.695 345.305 129.036 345.761 127.346 345.758Z" fill="white" stroke="#333333" stroke-linecap="round" stroke-linejoin="round"></path><path d="M142.4 319.559C140.952 319.215 139.584 319.823 138.336 320.991L137.928 325.126C139.064 323.247 140.416 321.927 141.824 322.287C144.84 323.007 145.904 326.846 144.944 330.838C143.984 334.83 140.768 337.462 137.744 336.742L136.784 336.518L136.728 337.094C136.674 337.684 136.57 338.267 136.416 338.838L136.8 338.926C141.488 340.054 146.336 336.638 147.624 331.286C148.912 325.934 147.112 320.695 142.4 319.559Z" fill="white" stroke="#333333" stroke-linecap="round" stroke-linejoin="round"></path><path d="M122.269 343.134C118.933 343.638 115.245 346.382 115.645 349.014C116.045 351.646 120.389 353.174 123.725 352.67C126.413 352.254 126.925 349.99 128.381 348.574C132.661 344.422 149.181 344.494 155.301 344.67C155.584 344.678 155.865 344.624 156.124 344.511C156.384 344.398 156.615 344.23 156.802 344.017C156.99 343.805 157.128 343.554 157.207 343.283C157.286 343.011 157.305 342.725 157.261 342.446C157.18 341.957 156.914 341.518 156.518 341.22C156.121 340.922 155.625 340.788 155.133 340.846C150.045 341.43 135.813 343.15 129.149 344.846C127.197 345.302 124.965 342.726 122.269 343.134Z" fill="white" stroke="#333333" stroke-linecap="round" stroke-linejoin="round"></path><path d="M133.335 353.521H109.695C106.1 353.519 102.538 352.832 99.1994 351.497L91.5274 348.433C91.3443 348.357 91.1928 348.221 91.0988 348.047C91.0048 347.873 90.9741 347.672 91.0118 347.477C91.0495 347.283 91.1534 347.108 91.3057 346.982C91.4581 346.855 91.6495 346.786 91.8474 346.785H151.199C151.397 346.786 151.589 346.855 151.741 346.982C151.893 347.108 151.997 347.283 152.035 347.477C152.073 347.672 152.042 347.873 151.948 348.047C151.854 348.221 151.702 348.357 151.519 348.433L143.847 351.497C140.504 352.835 136.936 353.522 133.335 353.521Z" fill="white" stroke="#333333" stroke-linecap="round" stroke-linejoin="round"></path><path d="M122.792 274.88C122.095 273.717 121.14 272.732 120 272" stroke="#333333" stroke-linecap="round" stroke-linejoin="round"></path><path d="M121.841 289.67C124.369 284.622 124.649 280.814 124.049 278.054" stroke="#333333" stroke-linecap="round" stroke-linejoin="round"></path><path d="M117.762 304.71C117.138 301.286 117.626 296.974 120.658 291.838" stroke="#333333" stroke-linecap="round" stroke-linejoin="round"></path><path d="M123.895 314.336C121.366 312.464 119.441 309.891 118.359 306.936" stroke="#333333" stroke-linecap="round" stroke-linejoin="round"></path><path d="M131.538 283.863C130.98 282.736 130.133 281.777 129.082 281.087" stroke="#333333" stroke-linecap="round" stroke-linejoin="round"></path><path d="M130.85 294.288C132.45 290.8 132.682 288.112 132.298 286.096" stroke="#333333" stroke-linecap="round" stroke-linejoin="round"></path><path d="M132.128 314.336C132.128 314.336 122.84 308.136 129.584 296.68" stroke="#333333" stroke-linecap="round" stroke-linejoin="round"></path><path d="M114.767 293.449C114.77 292.747 114.667 292.048 114.463 291.377" stroke="#333333" stroke-linecap="round" stroke-linejoin="round"></path><path d="M112.5 300.432C113.418 298.947 114.098 297.327 114.516 295.632" stroke="#333333" stroke-linecap="round" stroke-linejoin="round"></path><path d="M114.513 314.335C114.513 314.335 108.241 310.151 111.521 302.375" stroke="#333333" stroke-linecap="round" stroke-linejoin="round"></path><path d="M174.31 253.177C174.31 253.177 162.206 286.521 166.046 300.801C169.886 315.081 189.926 310.681 194.846 301.937C199.766 293.193 209.302 261.473 209.302 261.473L199.422 242.473L177.542 247.409L175.446 250.401L174.31 253.177Z" fill="white"></path><path opacity="0.2" d="M197.22 300.311C197.246 299.509 197.495 298.73 197.94 298.063C197.696 297.718 197.544 297.316 197.499 296.896C197.454 296.476 197.518 296.051 197.684 295.663C199.036 290.863 201.9 285.159 203.42 280.367C205.02 275.383 208.1 269.743 208.22 264.455C208.38 256.047 199.996 252.407 192.724 250.855C188.844 258.687 174.324 286.967 165.244 289.943C165.38 292.343 165.916 294.687 165.7 297.079C165.7 297.167 165.7 297.247 165.7 297.335C165.952 297.838 166.122 298.378 166.204 298.935C166.264 299.399 166.264 299.87 166.204 300.335L197.22 300.311Z" fill="white"></path><path d="M174.31 253.177C174.31 253.177 162.206 286.521 166.046 300.801C169.886 315.081 189.926 310.681 194.846 301.937C199.766 293.193 209.302 261.473 209.302 261.473L199.422 242.473L177.542 247.409L175.446 250.401L174.31 253.177Z" stroke="#333333" stroke-linecap="round" stroke-linejoin="round"></path><path d="M287.789 130.312C287.789 130.312 292.429 126.096 288.965 121.664C288.965 121.664 293.597 118.368 290.253 112.664C290.253 112.664 295.341 106.208 288.965 101.904C288.965 101.904 292.221 95.1837 284.749 95.3117C284.749 95.3117 286.013 88.2237 278.541 90.8797C278.541 90.8797 279.045 83.7837 272.717 86.9517C272.717 86.9517 269.925 80.6237 266.637 87.2077C266.637 87.2077 263.437 78.8477 257.893 81.7597C257.893 81.7597 247.125 76.8237 245.605 83.1517C245.605 83.1517 238.637 81.3837 236.805 86.1917C236.805 86.1917 229.013 85.1837 228.637 91.8957C228.637 91.8957 221.285 94.4237 223.565 99.8957C223.565 99.8957 220.285 104.208 223.125 108.512C223.125 108.512 220.397 111.424 223.565 116.744C223.565 116.744 222.173 122.192 225.965 126.12L272.197 133.72L274.349 144.232L283.317 140.688L287.789 130.312Z" fill="#333333" stroke="#333333" stroke-linecap="round" stroke-linejoin="round"></path><path d="M258.63 85.881C256.942 83.697 253.83 81.7931 248.398 84.169" stroke="black" stroke-width="0.75" stroke-linecap="round" stroke-linejoin="round"></path><path d="M260.427 89.6C260.261 88.9407 260.028 88.3 259.731 87.688" stroke="black" stroke-width="0.75" stroke-linecap="round" stroke-linejoin="round"></path><path d="M252.444 89.1027C252.444 89.1027 244.212 94.1746 241.172 86.9507" stroke="black" stroke-width="0.75" stroke-linecap="round" stroke-linejoin="round"></path><path d="M265.648 95.3679C265.648 95.3679 256.448 98.3439 255.2 90.6079" stroke="black" stroke-width="0.75" stroke-linecap="round" stroke-linejoin="round"></path><path d="M258.289 101.793C256.689 99.4813 253.537 97.2573 247.817 99.7534" stroke="black" stroke-width="0.75" stroke-linecap="round" stroke-linejoin="round"></path><path d="M259.853 105.2C259.688 104.544 259.458 103.906 259.165 103.296" stroke="black" stroke-width="0.75" stroke-linecap="round" stroke-linejoin="round"></path><path d="M240.682 104.857C240.203 104.268 239.812 103.613 239.521 102.913" stroke="black" stroke-width="0.75" stroke-linecap="round" stroke-linejoin="round"></path><path d="M250.808 105.063C250.808 105.063 245.368 108.407 241.704 105.791" stroke="black" stroke-width="0.75" stroke-linecap="round" stroke-linejoin="round"></path><path d="M287.499 116.48C287.499 116.48 289.811 109.352 281.787 108.384" stroke="black" stroke-width="0.75" stroke-linecap="round" stroke-linejoin="round"></path><path d="M273.075 113.425C273.075 113.425 270.092 118.745 276.339 120.801" stroke="black" stroke-width="0.75" stroke-linecap="round" stroke-linejoin="round"></path><path d="M282.531 113.121C282.531 113.121 275.283 113.265 276.059 107.441" stroke="black" stroke-width="0.75" stroke-linecap="round" stroke-linejoin="round"></path><path d="M281.788 124.184C281.788 124.184 276.627 119.088 281.34 115.583" stroke="black" stroke-width="0.75" stroke-linecap="round" stroke-linejoin="round"></path><path d="M242.611 100.623C242.611 100.623 244.923 93.4948 236.899 92.5269" stroke="black" stroke-width="0.75" stroke-linecap="round" stroke-linejoin="round"></path><path d="M228.188 97.5977C228.188 97.5977 225.204 102.918 231.452 104.974" stroke="black" stroke-width="0.75" stroke-linecap="round" stroke-linejoin="round"></path><path d="M237.644 97.262C237.644 97.262 230.395 97.406 231.171 91.582" stroke="black" stroke-width="0.75" stroke-linecap="round" stroke-linejoin="round"></path><path d="M236.9 108.328C236.9 108.328 231.74 103.24 236.452 99.7363" stroke="black" stroke-width="0.75" stroke-linecap="round" stroke-linejoin="round"></path><path d="M281.767 101.295C281.767 101.295 284.087 94.1669 276.055 93.1909" stroke="black" stroke-width="0.75" stroke-linecap="round" stroke-linejoin="round"></path><path d="M267.338 98.2397C267.338 98.2397 264.354 103.56 270.602 105.616" stroke="black" stroke-width="0.75" stroke-linecap="round" stroke-linejoin="round"></path><path d="M276.803 97.9279C276.803 97.9279 269.556 98.0799 270.332 92.2559" stroke="black" stroke-width="0.75" stroke-linecap="round" stroke-linejoin="round"></path><path d="M332.628 204.968C332.628 204.968 319.828 272.168 317.908 353.168H202.772C202.772 353.168 215.828 284.424 201.172 194.768C201.196 194.744 260.556 152.496 332.628 204.968Z" fill="#00A0AD"></path><path d="M332.628 204.968C332.628 204.968 319.828 272.168 317.908 353.168H202.772C202.772 353.168 215.828 284.424 201.172 194.768C201.196 194.744 260.556 152.496 332.628 204.968Z" stroke="#333333" stroke-linecap="round" stroke-linejoin="round"></path><path d="M349.732 261.119C349.732 261.119 351.508 308.159 334.9 324.455C334.9 324.455 314.956 329.015 256.628 284.679C256.628 284.679 250.836 285.183 247.828 281.639C247.828 281.639 238.428 284.935 233.5 279.615C233.5 279.615 227.18 279.863 225.764 274.015C225.764 274.015 221.764 274.519 220.356 272.751C220.356 272.751 215.556 272.999 214.876 270.471C214.196 267.943 219.62 265.895 219.62 265.895C219.62 265.895 219.724 260.079 222.132 258.311C223.552 257.256 225.11 256.402 226.764 255.775C226.764 255.775 210.828 246.175 212.772 240.831C214.716 235.487 217.388 244.879 232.548 251.471C232.548 251.471 240.164 251.719 241.628 254.511L260.068 269.959C260.068 269.959 265.46 271.399 267.228 271.991C278.692 275.815 294.764 282.631 313.852 283.895L317.556 253.495C317.556 253.495 340.7 247.943 349.732 261.119Z" fill="white"></path><path opacity="0.2" d="M325.348 253.177L319.924 284.145L313.828 283.921L314.356 279.617L317.108 256.969L319.324 247.065L324.028 248.073L325.348 253.177Z" fill="white"></path><path opacity="0.2" d="M347.122 296.065C347.122 296.065 341.378 314.825 334.41 321.665C334.41 321.665 340.746 311.785 312.882 304.697C285.018 297.609 258.29 280.801 258.29 280.801C258.29 280.801 248.69 273.145 244.354 274.553C240.018 275.961 241.794 278.145 242.962 277.857C244.13 277.569 245.746 278.017 245.842 279.601C245.938 281.185 245.994 282.289 244.106 282.457C245.314 282.088 246.55 281.821 247.802 281.657C248.602 281.929 251.698 283.833 252.602 284.161C253.906 284.657 255.178 284.081 256.658 284.697C259.33 285.817 262.378 289.593 265.322 291.097C267.01 291.977 284.65 304.417 286.434 305.345C306.098 315.561 312.538 318.289 312.538 318.289L322.938 322.873L331.106 324.473H334.898L340.274 317.137L345.29 304.121L346.242 298.745L347.122 296.065Z" fill="white"></path><path opacity="0.2" d="M224.851 255.8C224.851 255.8 226.883 256.008 231.915 254.032C231.915 254.032 224.515 252.16 219.715 248.32C214.915 244.48 213.803 240.256 212.579 242.056C211.355 243.856 216.395 249.464 216.395 249.464L224.851 255.8Z" fill="white"></path><path d="M349.732 261.119C349.732 261.119 351.508 308.159 334.9 324.455C334.9 324.455 314.956 329.015 256.628 284.679C256.628 284.679 250.836 285.183 247.828 281.639C247.828 281.639 238.428 284.935 233.5 279.615C233.5 279.615 227.18 279.863 225.764 274.015C225.764 274.015 221.764 274.519 220.356 272.751C220.356 272.751 215.556 272.999 214.876 270.471C214.196 267.943 219.62 265.895 219.62 265.895C219.62 265.895 219.724 260.079 222.132 258.311C223.552 257.256 225.11 256.402 226.764 255.775C226.764 255.775 210.828 246.175 212.772 240.831C214.716 235.487 217.388 244.879 232.548 251.471C232.548 251.471 240.164 251.719 241.628 254.511L260.068 269.959C260.068 269.959 265.46 271.399 267.228 271.991C278.692 275.815 294.764 282.631 313.852 283.895L317.556 253.495C317.556 253.495 340.7 247.943 349.732 261.119Z" stroke="#333333" stroke-linecap="round" stroke-linejoin="round"></path><path d="M315.654 284.143C322.126 284.463 324.806 282.831 330.222 290.127" stroke="#333333" stroke-linecap="round" stroke-linejoin="round"></path><path d="M236.233 259.727C236.233 259.727 226.913 263.727 226.417 266.127C226.033 268.759 225.806 271.412 225.737 274.071" stroke="#333333" stroke-linecap="round" stroke-linejoin="round"></path><path d="M241.166 265.047C240.578 266.304 239.67 267.386 238.534 268.183C235.918 270.111 232.99 270.367 232.934 272.743C232.878 275.119 233.446 279.615 233.446 279.615" stroke="#333333" stroke-linecap="round" stroke-linejoin="round"></path><path d="M219.595 265.92L220.331 272.776" stroke="#333333" stroke-linecap="round" stroke-linejoin="round"></path><path d="M226.738 255.8L234.442 253.176" stroke="#333333" stroke-linecap="round" stroke-linejoin="round"></path><path d="M245.285 273.728C243.907 275.062 242.344 276.191 240.645 277.08" stroke="#333333" stroke-linecap="round" stroke-linejoin="round"></path><path d="M201.195 194.744C201.195 194.744 174.163 205.472 172.803 252.96C172.798 253.187 172.855 253.412 172.97 253.609C173.084 253.805 173.251 253.967 173.452 254.074C173.652 254.182 173.879 254.232 174.106 254.219C174.333 254.206 174.552 254.13 174.739 254C178.907 251.024 189.691 247.008 207.787 264.64C207.976 264.823 208.214 264.947 208.473 264.996C208.731 265.045 208.998 265.017 209.241 264.916C209.484 264.814 209.691 264.644 209.838 264.426C209.985 264.207 210.065 263.951 210.067 263.688V263.624C210.067 258.56 210.003 248.104 208.947 235.864C207.835 222.736 205.603 207.544 201.195 194.744Z" fill="#00A0AD" stroke="#333333" stroke-linecap="round" stroke-linejoin="round"></path><path d="M179.858 245.039C186.178 243.871 197.57 244.343 209.01 257.639" stroke="#333333" stroke-linecap="round" stroke-linejoin="round"></path><path d="M174.805 246.615C175.744 246.162 176.724 245.8 177.733 245.535" stroke="#333333" stroke-linecap="round" stroke-linejoin="round"></path><path d="M286.773 183.919C286.773 183.919 277.845 170.048 280.317 146.104L243.797 148.504C243.797 148.504 243.477 180.167 231.797 181.847L241.333 194.047L249.741 194.671L264.277 194.735L285.461 187.895L286.773 183.919Z" fill="white"></path><path d="M276.974 150.742C274.147 151.773 271.249 152.594 268.302 153.198C268.119 153.798 267.778 154.337 267.315 154.759C266.852 155.182 266.284 155.472 265.67 155.598C261.614 156.494 257.462 156.75 253.382 157.51C249.302 158.27 245.382 159.158 241.334 159.326C236.982 159.502 232.726 158.526 228.534 157.478L228.262 157.414C230.126 159.502 231.926 161.606 232.91 164.294C233.582 166.158 233.654 168.294 234.51 170.038C234.926 170.934 235.694 171.574 236.158 172.438" stroke="#333333" stroke-linecap="round" stroke-linejoin="round"></path><path d="M286.773 183.919C286.773 183.919 277.845 170.048 280.317 146.104L243.797 148.504C243.797 148.504 243.477 180.167 231.797 181.847L241.333 194.047L249.741 194.671L264.277 194.735L285.461 187.895L286.773 183.919Z" stroke="#333333" stroke-linecap="round" stroke-linejoin="round"></path><path d="M279.886 133.599C279.886 133.599 282.022 125.239 286.774 126.399C291.526 127.559 288.486 154.711 278.414 147.871C278.414 147.871 278.414 161.431 269.862 170.103C261.31 178.775 251.846 181.367 244.974 181.367C238.102 181.367 227.718 160.567 225.99 149.959C224.262 139.351 224.838 114.815 227.302 111.775C229.766 108.735 260.158 112.343 266.91 109.495C273.662 106.647 266.062 121.655 269.678 125.263C273.294 128.871 275.95 126.063 275.19 140.463L278.222 137.615L279.886 133.599Z" fill="white" stroke="#333333" stroke-linecap="round" stroke-linejoin="round"></path><path d="M251.924 140.473C251.924 141.825 252.78 142.921 253.836 142.921C254.892 142.921 255.748 141.825 255.748 140.473C255.748 139.121 254.892 138.025 253.836 138.025C252.78 138.025 251.924 139.121 251.924 140.473Z" fill="#333333"></path><path d="M232.056 140.473C232.056 141.825 232.912 142.921 233.968 142.921C235.024 142.921 235.88 141.825 235.88 140.473C235.88 139.121 235.024 138.025 233.968 138.025C232.912 138.025 232.056 139.121 232.056 140.473Z" fill="#333333"></path><path d="M264.229 131.664C264.229 131.664 258.525 125.712 249.829 131.664" stroke="#333333" stroke-width="4" stroke-linecap="round" stroke-linejoin="round"></path><path d="M237.499 132.305C237.499 132.305 230.403 124.841 227.363 130.345" stroke="#333333" stroke-width="4" stroke-linecap="round" stroke-linejoin="round"></path><path d="M260.293 160.464C260.293 160.464 243.253 166.152 235.981 161.264C236.005 161.304 245.157 177.2 260.293 160.464Z" fill="white" stroke="#333333" stroke-linecap="round" stroke-linejoin="round"></path><path d="M250.795 148.511C250.795 148.511 253.555 151.023 251.811 153.183C251.417 153.636 250.897 153.962 250.317 154.12C249.738 154.278 249.125 154.261 248.555 154.071C248.046 153.854 247.485 153.788 246.939 153.88C246.393 153.972 245.885 154.219 245.475 154.591C243.955 156.239 240.035 155.863 238.763 153.791C238.179 153.58 237.567 153.453 236.947 153.415C236.537 153.419 236.138 153.28 235.82 153.021C235.501 152.763 235.283 152.401 235.203 151.999C235.035 150.943 235.379 149.599 237.467 148.543" stroke="#333333" stroke-linecap="round" stroke-linejoin="round"></path><path d="M240.288 136.375C241.16 139.454 241.468 142.665 241.2 145.855" stroke="#333333" stroke-linecap="round" stroke-linejoin="round"></path><path d="M256.76 160.192C256.76 160.192 249.408 158.456 245 160.56C244.75 160.69 244.471 160.751 244.19 160.739C243.909 160.726 243.636 160.64 243.4 160.488C242.48 159.88 240.6 159.112 237.52 159.792" stroke="#333333" stroke-width="0.75" stroke-linecap="round" stroke-linejoin="round"></path><path d="M286.523 182.112C283.163 185.096 271.451 191.472 255.723 194.744L262.835 195.888L271.851 208.048C271.851 208.048 290.443 197.968 294.643 184.104L290.475 181.784C289.863 181.422 289.154 181.259 288.446 181.318C287.738 181.377 287.066 181.654 286.523 182.112Z" fill="#00A0AD" stroke="#333333" stroke-linecap="round" stroke-linejoin="round"></path><path d="M233.78 181.313C236.588 184.889 240.676 191.617 256.132 194.745L249.18 195.889L241.108 208.049C241.108 208.049 227.508 198.929 226.26 182.585L229.748 180.481C230.406 180.106 231.179 179.984 231.92 180.138C232.662 180.291 233.323 180.708 233.78 181.313Z" fill="#00A0AD" stroke="#333333" stroke-linecap="round" stroke-linejoin="round"></path><path d="M257.889 141.799C256.612 142.361 255.232 142.65 253.837 142.65C252.442 142.65 251.062 142.361 249.785 141.799" stroke="#333333" stroke-width="0.75" stroke-linecap="round" stroke-linejoin="round"></path><path d="M238.021 141.799C236.744 142.361 235.364 142.65 233.969 142.65C232.574 142.65 231.194 142.361 229.917 141.799" stroke="#333333" stroke-width="0.75" stroke-linecap="round" stroke-linejoin="round"></path><path d="M332.63 204.968C332.63 204.968 353.165 212.424 350.973 263.024C350.961 263.204 350.895 263.376 350.786 263.519C350.676 263.662 350.526 263.77 350.356 263.829C350.185 263.888 350.001 263.895 349.827 263.85C349.652 263.805 349.494 263.71 349.373 263.576C346.301 259.712 337.822 252.832 318.134 257.176C317.956 257.214 317.772 257.209 317.596 257.162C317.421 257.114 317.259 257.026 317.124 256.905C316.989 256.783 316.884 256.631 316.819 256.461C316.754 256.292 316.73 256.109 316.75 255.928C317.534 248.44 321.606 216.416 332.63 204.968Z" fill="#00A0AD" stroke="#333333" stroke-linecap="round" stroke-linejoin="round"></path><path d="M319.924 250.32L318.716 250.608" stroke="#333333" stroke-linecap="round" stroke-linejoin="round"></path><path d="M329.447 249.248C326.696 249.235 323.951 249.503 321.255 250.048" stroke="#333333" stroke-linecap="round" stroke-linejoin="round"></path><path d="M345.292 253.6C341.001 250.994 336.124 249.509 331.108 249.28" stroke="#333333" stroke-linecap="round" stroke-linejoin="round"></path><path d="M349.295 256.695C348.529 255.963 347.714 255.284 346.855 254.663" stroke="#333333" stroke-linecap="round" stroke-linejoin="round"></path><path d="M219.717 248.319C219.595 248.478 219.435 248.604 219.252 248.688C219.07 248.772 218.87 248.81 218.669 248.799H200.157C199.629 248.758 199.123 248.568 198.698 248.251C198.273 247.933 197.947 247.502 197.757 247.007L183.205 206.327C183.119 206.124 183.081 205.903 183.093 205.683C183.106 205.462 183.169 205.247 183.277 205.055L184.733 203.455C184.855 203.298 185.014 203.173 185.195 203.09C185.376 203.008 185.575 202.971 185.773 202.983H204.285C204.814 203.024 205.32 203.214 205.745 203.531C206.17 203.848 206.496 204.28 206.685 204.775L221.197 245.455C221.284 245.658 221.322 245.879 221.31 246.099C221.297 246.32 221.234 246.535 221.125 246.727L219.717 248.319Z" fill="white" stroke="#333333" stroke-linecap="round" stroke-linejoin="round"></path><path d="M200.156 248.798H218.669C218.886 248.813 219.103 248.769 219.297 248.671C219.492 248.573 219.656 248.425 219.774 248.242C219.892 248.059 219.958 247.848 219.966 247.63C219.974 247.413 219.924 247.197 219.821 247.006L205.308 206.326C205.119 205.83 204.793 205.399 204.368 205.082C203.943 204.765 203.437 204.574 202.908 204.534H184.372C184.155 204.52 183.939 204.564 183.745 204.662C183.55 204.76 183.386 204.908 183.268 205.09C183.15 205.273 183.082 205.483 183.073 205.7C183.063 205.918 183.111 206.133 183.212 206.326L197.724 247.006C197.916 247.506 198.247 247.94 198.678 248.258C199.109 248.576 199.622 248.763 200.156 248.798Z" fill="#333333" stroke="#333333" stroke-linecap="round" stroke-linejoin="round"></path><path d="M200.358 214.031H204.75C204.967 214.046 205.184 214.002 205.378 213.904C205.573 213.807 205.737 213.659 205.855 213.476C205.973 213.292 206.039 213.081 206.047 212.864C206.056 212.646 206.005 212.431 205.902 212.239L204.302 207.847C204.112 207.352 203.786 206.921 203.361 206.603C202.936 206.286 202.43 206.096 201.902 206.055H197.51C197.292 206.04 197.075 206.084 196.881 206.182C196.686 206.28 196.522 206.428 196.404 206.611C196.286 206.794 196.22 207.005 196.212 207.223C196.204 207.44 196.254 207.656 196.358 207.847L197.918 212.239C198.112 212.739 198.445 213.172 198.877 213.49C199.309 213.807 199.823 213.995 200.358 214.031Z" fill="white" stroke="#333333" stroke-linecap="round" stroke-linejoin="round"></path><path d="M197.526 208.193C197.635 208.485 197.827 208.74 198.079 208.925C198.331 209.109 198.631 209.217 198.942 209.233C199.068 209.24 199.193 209.214 199.306 209.157C199.418 209.1 199.513 209.014 199.581 208.908C199.649 208.803 199.688 208.681 199.694 208.555C199.7 208.429 199.673 208.304 199.614 208.193C199.502 207.902 199.309 207.649 199.058 207.464C198.808 207.278 198.509 207.168 198.198 207.145C198.072 207.137 197.945 207.163 197.832 207.22C197.718 207.278 197.623 207.364 197.554 207.471C197.485 207.578 197.447 207.701 197.442 207.828C197.437 207.955 197.466 208.081 197.526 208.193Z" fill="white"></path><path d="M202.044 210.04C202.156 210.331 202.349 210.584 202.6 210.769C202.85 210.955 203.149 211.065 203.46 211.088C203.586 211.096 203.713 211.07 203.826 211.013C203.94 210.955 204.035 210.869 204.104 210.762C204.173 210.655 204.211 210.532 204.216 210.405C204.221 210.278 204.192 210.152 204.132 210.04C204.023 209.748 203.831 209.493 203.579 209.308C203.328 209.124 203.027 209.016 202.716 209C202.59 208.993 202.465 209.019 202.352 209.076C202.24 209.133 202.145 209.219 202.077 209.325C202.009 209.43 201.97 209.552 201.964 209.678C201.958 209.804 201.985 209.929 202.044 210.04Z" fill="white"></path><path d="M198.845 211.897C198.954 212.189 199.146 212.444 199.397 212.628C199.649 212.813 199.949 212.92 200.261 212.937C200.387 212.944 200.512 212.918 200.624 212.861C200.736 212.804 200.831 212.718 200.9 212.612C200.968 212.506 201.007 212.385 201.013 212.259C201.019 212.133 200.991 212.008 200.933 211.897C200.82 211.606 200.627 211.353 200.377 211.168C200.126 210.982 199.828 210.871 199.517 210.849C199.39 210.841 199.263 210.867 199.15 210.924C199.037 210.981 198.941 211.068 198.872 211.175C198.804 211.282 198.765 211.405 198.76 211.532C198.755 211.659 198.785 211.785 198.845 211.897Z" fill="white"></path><path d="M183.811 253.177C183.811 253.177 165.483 287.281 166.043 300.801C166.603 314.321 175.099 318.849 175.099 318.849C175.099 318.849 198.011 317.713 198.387 290.537L201.483 264.137C201.483 264.137 209.483 261.417 212.683 255.841C212.683 255.841 220.683 253.121 223.195 248.561C225.707 244.001 227.195 238.105 224.675 237.161C222.155 236.217 220.395 244.521 218.203 246.089C216.739 247.137 214.395 248.489 213.011 249.289C212.862 249.364 212.7 249.408 212.533 249.418C212.367 249.427 212.2 249.403 212.044 249.345C211.888 249.287 211.745 249.197 211.625 249.082C211.505 248.966 211.41 248.827 211.347 248.673C211.239 248.446 211.213 248.19 211.273 247.946C211.333 247.703 211.475 247.488 211.675 247.337C213.566 245.983 215.255 244.367 216.691 242.537C219.091 239.337 225.883 229.993 222.507 227.905C219.131 225.817 213.603 236.001 211.411 237.689C210.075 238.745 208.211 239.953 207.035 240.721C206.659 240.942 206.222 241.035 205.789 240.986C205.356 240.937 204.951 240.748 204.635 240.449L204.499 240.329C204.162 240.04 203.93 239.649 203.838 239.215C203.745 238.782 203.798 238.33 203.987 237.929C204.606 236.591 205.311 235.295 206.099 234.049C207.555 232.121 209.499 230.265 212.499 226.801C215.627 223.217 218.403 220.681 216.291 219.033C212.139 215.833 201.395 227.969 199.979 229.489C199.075 230.598 198.327 231.825 197.755 233.137C197.684 233.276 197.586 233.4 197.466 233.5C197.347 233.601 197.208 233.676 197.059 233.721C196.909 233.767 196.752 233.782 196.597 233.765C196.442 233.749 196.291 233.701 196.155 233.625C195.962 233.522 195.798 233.373 195.677 233.192C195.555 233.01 195.48 232.802 195.459 232.585C195.331 231.073 195.083 227.561 195.411 226.257C195.883 224.369 197.227 223.057 199.171 219.569C200.883 216.537 202.867 213.337 201.443 212.009C198.395 209.153 192.347 217.897 192.347 217.897L188.003 225.721C188.003 225.721 189.811 221.721 187.587 219.825C185.363 217.929 185.491 222.297 183.587 224.577C181.683 226.857 183.507 231.609 182.987 235.025C182.671 237.037 182.495 239.068 182.459 241.105L183.811 253.177Z" fill="white"></path><path opacity="0.2" d="M209.012 254.488C206.481 252.578 204.201 250.355 202.228 247.872C199.956 244.904 198.436 240.92 195.588 240.92C192.74 240.92 190.38 237.08 187.284 239.32C184.188 241.56 188.084 251.72 187.284 255.832C186.484 259.944 191.46 328.728 168.188 310.192C168.563 311.583 169.1 312.926 169.788 314.192C169.815 314.239 169.844 314.284 169.876 314.328C170.06 314.56 170.244 314.792 170.38 314.992L170.476 315.232C171.726 316.862 173.381 318.136 175.276 318.928C175.604 318.928 175.956 318.888 176.324 318.888L176.692 318.728L177.604 318.4C178.214 317.934 178.938 317.641 179.7 317.552L180.412 317.44C181.412 317.126 182.434 316.886 183.468 316.72C183.74 316.632 184.012 316.528 184.268 316.424C187.673 314.405 190.747 311.874 193.38 308.92C193.974 307.184 194.766 305.522 195.74 303.968C196.54 302.608 197.34 301.392 197.276 299.784C197.205 298.854 197.491 297.933 198.076 297.208C198.42 292.52 198.548 287.96 199.308 283.28C200.148 278.168 201.1 273.128 201.084 267.92C201.084 267.7 201.1 267.481 201.132 267.264C201.062 266.729 201.094 266.186 201.228 265.664C201.532 264.67 202.182 263.818 203.06 263.264C203.78 262.744 204.612 262.392 205.324 261.872C205.689 261.624 206.105 261.46 206.54 261.392C207.836 259.928 210.94 256.08 209.012 254.488Z" fill="white"></path><path opacity="0.2" d="M215.492 240.369C214.9 239.897 214.364 239.36 213.892 238.769C213.792 238.636 213.663 238.529 213.514 238.455C213.366 238.381 213.202 238.342 213.036 238.342C212.87 238.342 212.706 238.381 212.558 238.455C212.409 238.529 212.28 238.636 212.18 238.769C211.18 240.161 209.46 242.233 207.588 243.201C207.588 243.201 209.3 247.001 211.012 246.241C212.236 245.697 214.484 243.249 215.66 241.905C215.754 241.795 215.824 241.666 215.866 241.528C215.908 241.39 215.922 241.244 215.906 241.101C215.891 240.957 215.846 240.818 215.775 240.692C215.703 240.566 215.607 240.456 215.492 240.369Z" fill="white"></path><path opacity="0.2" d="M204.413 232.648C203.31 232.266 202.314 231.627 201.509 230.784C201.445 230.71 201.364 230.653 201.273 230.617C201.182 230.582 201.084 230.569 200.987 230.58C200.89 230.591 200.797 230.626 200.717 230.681C200.636 230.736 200.57 230.809 200.524 230.896L198.564 234.648C198.564 234.648 199.964 236.84 201.981 237.4C202.767 236.069 203.655 234.801 204.637 233.608C204.702 233.536 204.748 233.449 204.772 233.355C204.797 233.262 204.798 233.163 204.776 233.069C204.754 232.975 204.709 232.887 204.646 232.814C204.583 232.74 204.503 232.683 204.413 232.648Z" fill="white"></path><path opacity="0.2" d="M194.54 225.337C194.54 225.337 192.22 228.377 189.98 227.521V232.937L194.54 232.657C194.54 232.657 193.692 229.897 194.54 225.337Z" fill="white"></path><path opacity="0.2" d="M220.954 249.944C220.954 249.944 217.122 251.592 214.274 251.696C213.983 251.698 213.701 251.796 213.473 251.976C213.244 252.155 213.081 252.406 213.01 252.688L212.578 254.488C212.578 254.488 216.202 254.024 220.954 249.944Z" fill="white"></path><path opacity="0.2" d="M188.403 224.424C188.403 224.424 187.035 227.336 185.419 228.472C183.803 229.608 185.611 230.408 185.419 233.048C185.419 233.048 187.875 226.456 188.403 224.424Z" fill="white"></path><path d="M183.811 253.177C183.811 253.177 165.483 287.281 166.043 300.801C166.603 314.321 175.099 318.849 175.099 318.849C175.099 318.849 198.011 317.713 198.387 290.537L201.483 264.137C201.483 264.137 209.483 261.417 212.683 255.841C212.683 255.841 220.683 253.121 223.195 248.561C225.707 244.001 227.195 238.105 224.675 237.161C222.155 236.217 220.395 244.521 218.203 246.089C216.739 247.137 214.395 248.489 213.011 249.289C212.862 249.364 212.7 249.408 212.533 249.418C212.367 249.427 212.2 249.403 212.044 249.345C211.888 249.287 211.745 249.197 211.625 249.082C211.505 248.966 211.41 248.827 211.347 248.673V248.673C211.239 248.446 211.213 248.19 211.273 247.946C211.333 247.703 211.475 247.488 211.675 247.337C213.566 245.983 215.255 244.366 216.691 242.537C219.091 239.337 225.883 229.993 222.507 227.905C219.131 225.817 213.603 236.001 211.411 237.689C210.075 238.745 208.211 239.953 207.035 240.721C206.659 240.942 206.222 241.035 205.789 240.986C205.356 240.937 204.951 240.748 204.635 240.449L204.499 240.329C204.162 240.04 203.93 239.649 203.838 239.215C203.745 238.782 203.798 238.33 203.987 237.929C204.606 236.591 205.311 235.295 206.099 234.049C207.555 232.121 209.499 230.265 212.499 226.801C215.627 223.217 218.403 220.681 216.291 219.033C212.139 215.833 201.395 227.969 199.979 229.489C199.075 230.598 198.327 231.825 197.755 233.137C197.684 233.276 197.586 233.4 197.466 233.5C197.347 233.601 197.208 233.676 197.059 233.721C196.909 233.767 196.752 233.782 196.597 233.765C196.442 233.749 196.291 233.701 196.155 233.625V233.625C195.962 233.522 195.798 233.373 195.677 233.192C195.555 233.01 195.48 232.802 195.459 232.585C195.331 231.073 195.083 227.561 195.411 226.257C195.883 224.369 197.227 223.057 199.171 219.569C200.883 216.537 202.867 213.337 201.443 212.009C198.395 209.153 192.347 217.897 192.347 217.897L188.003 225.721C188.003 225.721 189.811 221.721 187.587 219.825C185.363 217.929 185.491 222.297 183.587 224.577C181.683 226.857 183.507 231.609 182.987 235.025C182.671 237.037 182.495 239.068 182.459 241.105L183.811 253.177Z" stroke="#333333" stroke-linecap="round" stroke-linejoin="round"></path><path d="M187.749 226.665C187.749 226.665 185.533 234.265 184.229 234.665" stroke="#333333" stroke-linecap="round" stroke-linejoin="round"></path><path d="M298.818 341.04C299.866 341.176 300.914 341.304 302.018 341.424" stroke="#333333" stroke-linecap="round" stroke-linejoin="round"></path><path d="M252.568 332.415C263.048 335.295 276.8 338.135 294.824 340.527" stroke="#333333" stroke-linecap="round" stroke-linejoin="round"></path><path d="M223.14 319.792C226.868 322.712 234.292 326.992 248.74 331.328" stroke="#333333" stroke-linecap="round" stroke-linejoin="round"></path><path d="M219.595 316.096C220.035 316.862 220.594 317.553 221.251 318.144" stroke="#333333" stroke-linecap="round" stroke-linejoin="round"></path><path d="M259.831 198.56L258.471 237.472C257.547 237.478 256.631 237.296 255.779 236.938C254.927 236.58 254.157 236.052 253.515 235.387C252.874 234.722 252.373 233.933 252.046 233.069C251.718 232.205 251.569 231.283 251.608 230.36L252.72 198.56" stroke="#333333" stroke-width="0.75" stroke-linecap="round" stroke-linejoin="round"></path><path d="M258.535 202.136C258.535 202.611 258.395 203.075 258.131 203.47C257.867 203.864 257.492 204.172 257.054 204.353C256.615 204.535 256.133 204.583 255.667 204.49C255.202 204.397 254.774 204.169 254.438 203.833C254.103 203.498 253.874 203.07 253.781 202.604C253.689 202.139 253.736 201.656 253.918 201.218C254.1 200.779 254.407 200.404 254.802 200.141C255.197 199.877 255.661 199.736 256.135 199.736C256.772 199.736 257.382 199.989 257.832 200.439C258.282 200.889 258.535 201.5 258.535 202.136Z" fill="#00A0AD" stroke="#333333" stroke-width="0.75" stroke-linecap="round" stroke-linejoin="round"></path><path d="M255.09 230.703C256.416 230.703 257.49 229.629 257.49 228.303C257.49 226.978 256.416 225.903 255.09 225.903C253.765 225.903 252.69 226.978 252.69 228.303C252.69 229.629 253.765 230.703 255.09 230.703Z" fill="#00A0AD" stroke="#333333" stroke-width="0.75" stroke-linecap="round" stroke-linejoin="round"></path><path d="M259.277 159.136C259.964 160.116 260.878 160.915 261.941 161.464L259.277 159.136Z" fill="white"></path><path d="M259.277 159.136C259.964 160.116 260.878 160.915 261.941 161.464" stroke="#333333" stroke-width="0.75" stroke-linecap="round" stroke-linejoin="round"></path><path d="M238.535 164.441C238.535 164.441 239.671 165.833 242.671 165.937" stroke="#333333" stroke-width="0.75" stroke-linecap="round" stroke-linejoin="round"></path><path d="M260.29 160.464C258.397 161.962 256.344 163.247 254.17 164.296L260.29 160.464Z" fill="white"></path><path d="M260.29 160.464C258.397 161.962 256.344 163.247 254.17 164.296" stroke="#333333" stroke-width="0.75" stroke-linecap="round" stroke-linejoin="round"></path><path d="M236.938 164.641C236.938 164.641 239.578 173.441 247.922 172.401C256.266 171.361 259.274 163.289 259.274 163.289" stroke="#333333" stroke-width="0.75" stroke-linecap="round" stroke-linejoin="round"></path><path d="M56.6 423V419.88H49.256V415.944H55.904V412.992H49.256V409.104H56.6V405.984H45.944V423H56.6ZM58.8121 419.784C58.8121 421.632 60.3481 423.336 62.8681 423.336C64.6201 423.336 65.7481 422.52 66.3481 421.584C66.3481 422.04 66.3961 422.688 66.4681 423H69.3961C69.3241 422.592 69.2521 421.752 69.2521 421.128V415.32C69.2521 412.944 67.8601 410.832 64.1161 410.832C60.9481 410.832 59.2441 412.872 59.0521 414.72L61.8841 415.32C61.9801 414.288 62.7481 413.4 64.1401 413.4C65.4841 413.4 66.1321 414.096 66.1321 414.936C66.1321 415.344 65.9161 415.68 65.2441 415.776L62.3401 416.208C60.3721 416.496 58.8121 417.672 58.8121 419.784ZM63.5401 420.96C62.5081 420.96 62.0041 420.288 62.0041 419.592C62.0041 418.68 62.6521 418.224 63.4681 418.104L66.1321 417.696V418.224C66.1321 420.312 64.8841 420.96 63.5401 420.96ZM79.6696 411.144C79.4296 411.12 79.1896 411.096 78.9256 411.096C77.9176 411.096 76.2856 411.384 75.5656 412.944V411.192H72.4696V423H75.6616V417.6C75.6616 415.056 77.0776 414.264 78.7096 414.264C78.9976 414.264 79.3096 414.288 79.6696 414.36V411.144ZM85.1069 416.208C85.1069 414.84 85.9229 413.76 87.3149 413.76C88.8509 413.76 89.4989 414.792 89.4989 416.112V423H92.6909V415.56C92.6909 412.968 91.3469 410.88 88.4189 410.88C87.1469 410.88 85.7309 411.432 85.0109 412.656V411.192H81.9149V423H85.1069V416.208ZM107.164 413.784C108.748 413.784 109.492 414.792 109.78 415.776L112.636 414.816C112.132 412.824 110.308 410.832 107.092 410.832C103.66 410.832 100.972 413.448 100.972 417.096C100.972 420.72 103.708 423.36 107.188 423.36C110.332 423.36 112.18 421.344 112.708 419.376L109.9 418.44C109.636 419.352 108.82 420.432 107.188 420.432C105.556 420.432 104.164 419.232 104.164 417.096C104.164 414.96 105.532 413.784 107.164 413.784ZM120.242 420.456C118.682 420.456 117.242 419.304 117.242 417.096C117.242 414.864 118.682 413.736 120.242 413.736C121.802 413.736 123.242 414.864 123.242 417.096C123.242 419.328 121.802 420.456 120.242 420.456ZM120.242 410.832C116.714 410.832 114.05 413.448 114.05 417.096C114.05 420.72 116.714 423.36 120.242 423.36C123.77 423.36 126.434 420.72 126.434 417.096C126.434 413.448 123.77 410.832 120.242 410.832ZM132.146 423V416.088C132.146 414.792 132.962 413.76 134.354 413.76C135.794 413.76 136.442 414.72 136.442 415.992V423H139.61V416.088C139.61 414.816 140.426 413.76 141.794 413.76C143.258 413.76 143.882 414.72 143.882 415.992V423H146.978V415.344C146.978 412.176 144.89 410.856 142.706 410.856C141.146 410.856 139.898 411.384 138.962 412.824C138.362 411.552 137.066 410.856 135.458 410.856C134.162 410.856 132.65 411.48 132.002 412.632V411.192H128.954V423H132.146ZM153.404 423V416.088C153.404 414.792 154.22 413.76 155.612 413.76C157.052 413.76 157.7 414.72 157.7 415.992V423H160.868V416.088C160.868 414.816 161.684 413.76 163.052 413.76C164.516 413.76 165.14 414.72 165.14 415.992V423H168.236V415.344C168.236 412.176 166.148 410.856 163.964 410.856C162.404 410.856 161.156 411.384 160.22 412.824C159.62 411.552 158.324 410.856 156.716 410.856C155.42 410.856 153.908 411.48 153.26 412.632V411.192H150.212V423H153.404ZM174.662 423V411.192H171.47V423H174.662ZM171.086 407.328C171.086 408.384 171.974 409.272 173.054 409.272C174.158 409.272 175.022 408.384 175.022 407.328C175.022 406.224 174.158 405.336 173.054 405.336C171.974 405.336 171.086 406.224 171.086 407.328ZM177.071 419.712C177.215 421.056 178.439 423.36 181.991 423.36C185.087 423.36 186.575 421.392 186.575 419.472C186.575 417.744 185.399 416.328 183.071 415.848L181.391 415.488C180.743 415.368 180.311 415.008 180.311 414.432C180.311 413.76 180.983 413.256 181.823 413.256C183.167 413.256 183.671 414.144 183.767 414.84L186.431 414.24C186.287 412.968 185.159 410.832 181.799 410.832C179.255 410.832 177.383 412.584 177.383 414.696C177.383 416.352 178.415 417.72 180.695 418.224L182.255 418.584C183.167 418.776 183.527 419.208 183.527 419.736C183.527 420.36 183.023 420.912 181.967 420.912C180.575 420.912 179.879 420.048 179.807 419.112L177.071 419.712ZM188.134 419.712C188.278 421.056 189.502 423.36 193.054 423.36C196.15 423.36 197.638 421.392 197.638 419.472C197.638 417.744 196.462 416.328 194.134 415.848L192.454 415.488C191.806 415.368 191.374 415.008 191.374 414.432C191.374 413.76 192.046 413.256 192.886 413.256C194.23 413.256 194.734 414.144 194.83 414.84L197.494 414.24C197.35 412.968 196.222 410.832 192.862 410.832C190.318 410.832 188.446 412.584 188.446 414.696C188.446 416.352 189.478 417.72 191.758 418.224L193.318 418.584C194.23 418.776 194.59 419.208 194.59 419.736C194.59 420.36 194.086 420.912 193.03 420.912C191.638 420.912 190.942 420.048 190.87 419.112L188.134 419.712ZM203.396 423V411.192H200.204V423H203.396ZM199.82 407.328C199.82 408.384 200.708 409.272 201.788 409.272C202.892 409.272 203.756 408.384 203.756 407.328C203.756 406.224 202.892 405.336 201.788 405.336C200.708 405.336 199.82 406.224 199.82 407.328ZM212.117 420.456C210.557 420.456 209.117 419.304 209.117 417.096C209.117 414.864 210.557 413.736 212.117 413.736C213.677 413.736 215.117 414.864 215.117 417.096C215.117 419.328 213.677 420.456 212.117 420.456ZM212.117 410.832C208.589 410.832 205.925 413.448 205.925 417.096C205.925 420.72 208.589 423.36 212.117 423.36C215.645 423.36 218.309 420.72 218.309 417.096C218.309 413.448 215.645 410.832 212.117 410.832ZM224.021 416.208C224.021 414.84 224.837 413.76 226.229 413.76C227.765 413.76 228.413 414.792 228.413 416.112V423H231.605V415.56C231.605 412.968 230.261 410.88 227.333 410.88C226.061 410.88 224.645 411.432 223.925 412.656V411.192H220.829V423H224.021V416.208Z" fill="#00A0AD"></path><path d="M246.246 408.264C246.774 408.264 247.086 408.336 247.254 408.384V405.696C246.99 405.576 246.342 405.456 245.67 405.456C243.054 405.456 241.374 407.184 241.374 409.848V411.192H239.406V413.928H241.374V423H244.59V413.928H247.254V411.192H244.59V409.896C244.59 408.576 245.526 408.264 246.246 408.264ZM256.529 411.144C256.289 411.12 256.049 411.096 255.785 411.096C254.777 411.096 253.145 411.384 252.425 412.944V411.192H249.329V423H252.521V417.6C252.521 415.056 253.937 414.264 255.569 414.264C255.857 414.264 256.169 414.288 256.529 414.36V411.144ZM263.961 420.456C262.401 420.456 260.961 419.304 260.961 417.096C260.961 414.864 262.401 413.736 263.961 413.736C265.521 413.736 266.961 414.864 266.961 417.096C266.961 419.328 265.521 420.456 263.961 420.456ZM263.961 410.832C260.433 410.832 257.769 413.448 257.769 417.096C257.769 420.72 260.433 423.36 263.961 423.36C267.489 423.36 270.153 420.72 270.153 417.096C270.153 413.448 267.489 410.832 263.961 410.832ZM275.865 423V416.088C275.865 414.792 276.681 413.76 278.073 413.76C279.513 413.76 280.161 414.72 280.161 415.992V423H283.329V416.088C283.329 414.816 284.145 413.76 285.513 413.76C286.977 413.76 287.601 414.72 287.601 415.992V423H290.697V415.344C290.697 412.176 288.609 410.856 286.425 410.856C284.865 410.856 283.617 411.384 282.681 412.824C282.081 411.552 280.785 410.856 279.177 410.856C277.881 410.856 276.369 411.48 275.721 412.632V411.192H272.673V423H275.865ZM303.052 416.064C303.124 414.768 303.916 413.76 305.26 413.76C306.796 413.76 307.444 414.792 307.444 416.112V423H310.636V415.56C310.636 412.968 309.244 410.88 306.244 410.88C305.116 410.88 303.82 411.264 303.052 412.176V405.624H299.86V423H303.052V416.064ZM319.18 420.456C317.62 420.456 316.18 419.304 316.18 417.096C316.18 414.864 317.62 413.736 319.18 413.736C320.74 413.736 322.18 414.864 322.18 417.096C322.18 419.328 320.74 420.456 319.18 420.456ZM319.18 410.832C315.652 410.832 312.988 413.448 312.988 417.096C312.988 420.72 315.652 423.36 319.18 423.36C322.708 423.36 325.372 420.72 325.372 417.096C325.372 413.448 322.708 410.832 319.18 410.832ZM331.084 423V416.088C331.084 414.792 331.9 413.76 333.292 413.76C334.732 413.76 335.38 414.72 335.38 415.992V423H338.548V416.088C338.548 414.816 339.364 413.76 340.732 413.76C342.196 413.76 342.82 414.72 342.82 415.992V423H345.916V415.344C345.916 412.176 343.828 410.856 341.644 410.856C340.084 410.856 338.836 411.384 337.9 412.824C337.3 411.552 336.004 410.856 334.396 410.856C333.1 410.856 331.588 411.48 330.94 412.632V411.192H327.892V423H331.084ZM351.477 415.752C351.549 414.672 352.461 413.424 354.117 413.424C355.941 413.424 356.709 414.576 356.757 415.752H351.477ZM357.069 418.824C356.685 419.88 355.869 420.624 354.381 420.624C352.797 420.624 351.477 419.496 351.405 417.936H359.853C359.853 417.888 359.901 417.408 359.901 416.952C359.901 413.16 357.717 410.832 354.069 410.832C351.045 410.832 348.261 413.28 348.261 417.048C348.261 421.032 351.117 423.36 354.357 423.36C357.261 423.36 359.133 421.656 359.733 419.616L357.069 418.824Z" fill="#333333"></path></svg>