<svg xmlns="http://www.w3.org/2000/svg" width="96" height="96" viewBox="0 0 96 96">
  <g id="Group_6388" data-name="Group 6388" transform="translate(5805 -5071.999)">
    <g id="Rectangle_1130" data-name="Rectangle 1130" transform="translate(-5805 5071.999)" fill="#fff" stroke="#707070" stroke-width="1" opacity="0">
      <rect width="96" height="96" stroke="none"/>
      <rect x="0.5" y="0.5" width="95" height="95" fill="none"/>
    </g>
    <g id="Group_14427" data-name="Group 14427" transform="translate(-5805 5072)">`
      <g id="Group_14422" data-name="Group 14422" transform="translate(0 0)">
        <g id="Rectangle_6870" data-name="Rectangle 6870" transform="translate(0 -0.001)" fill="#fff" stroke="#707070" stroke-width="1" opacity="0">
          <rect width="96" height="96" stroke="none"/>
          <rect x="0.5" y="0.5" width="95" height="95" fill="none"/>
        </g>
        <g id="_080-user" data-name="080-user" transform="translate(8 1.333)">
          <g id="Group_13979" data-name="Group 13979" transform="translate(0)">
            <path id="Path_14032" data-name="Path 14032" d="M39.231,87.2H1.782a1.724,1.724,0,0,1-1.4-.761,2.163,2.163,0,0,1-.328-1.7l1.922-8.6a12.25,12.25,0,0,1,7.508-9.014l14.3-5.308c2.122-.987,3.446-4.547,3.581-9.795-1.638-1.657-5.151-5.7-5.151-9.846,0-1.455-.438-1.752-.441-1.756a1.562,1.562,0,0,1-1.036-1.118c-.178-.5-1.727-4.923-1.727-7.912a2.1,2.1,0,0,1,.053-.472,4.672,4.672,0,0,1,1.581-2.684c.021-.476.046-1,.075-1.59.089-1.958.214-4.57.214-7.821C20.933,11.392,29.1,0,39.159,0c9.1,0,13.509,5.4,14.239,8.887,2.225,1.371,4.165,3.635,4.165,9.941V28.25a5.231,5.231,0,0,1,1.655,2.513,2.2,2.2,0,0,1,.089.63,1.965,1.965,0,0,1-1.78,2.061A1.788,1.788,0,0,1,55.77,31.85a1.209,1.209,0,0,0-.21-.325C54.581,31.525,54,30.7,54,29.61V18.828c0-5.173-1.492-6.009-2.382-6.5A2.755,2.755,0,0,1,49.946,9.87c-.064-1.193-3.061-5.906-10.786-5.906-8.472,0-14.666,9.775-14.666,14.864,0,3.338-.125,6.017-.224,8.027-.05,1.146-.1,2.069-.1,2.755a1.919,1.919,0,0,1-1.6,1.974,24.8,24.8,0,0,0,1.253,5.6c.954.753,1.947,2.291,1.947,4.994,0,2.236,2.342,5.419,4.521,7.432a2.083,2.083,0,0,1,.641,1.526c0,7.523-2.1,12.637-5.906,14.4L10.6,70.894a8.447,8.447,0,0,0-5.176,6.215L4.06,83.241H39.231a1.993,1.993,0,0,1,0,3.964Z" transform="translate(0.001)" fill="#e27e28"/>
          </g>
          <g id="Group_13980" data-name="Group 13980" transform="translate(38.02 43.658)">
            <path id="Path_14033" data-name="Path 14033" d="M33.289,59.675a1.721,1.721,0,0,1-.688-.142C31.756,59.182,12,50.642,12,33.192V18.364a1.779,1.779,0,0,1,1.206-1.682l19.515-6.589a1.777,1.777,0,0,1,1.135,0l19.515,6.589a1.773,1.773,0,0,1,1.206,1.682V33.192c0,17.45-19.756,25.991-20.6,26.345A1.78,1.78,0,0,1,33.289,59.675ZM15.548,19.638V33.192c0,13.43,14.388,21.14,17.741,22.758,3.35-1.622,17.741-9.36,17.741-22.758V19.638L33.289,13.648Z" transform="translate(-12 -10)" fill="#e27e28"/>
          </g>
          <g id="Group_13981" data-name="Group 13981" transform="translate(46.57 61.495)">
            <path id="Path_14034" data-name="Path 14034" d="M24.8,32.143a.921.921,0,0,1-.106,0,1.959,1.959,0,0,1-1.423-.733L15.43,21.6a1.961,1.961,0,1,1,3.062-2.45l6.469,8.092L37.134,15.073a1.96,1.96,0,0,1,2.772,2.772L26.184,31.567A1.936,1.936,0,0,1,24.8,32.143Z" transform="translate(-15 -14.5)" fill="#e27e28"/>
          </g>
        </g>
      </g>
    </g>
  </g>
</svg>
