<svg id="twitter" xmlns="http://www.w3.org/2000/svg" width="24" height="24" viewBox="0 0 24 24">
  <circle id="Ellipse_98" data-name="Ellipse 98" cx="12" cy="12" r="12" fill="#e27e28"/>
  <g id="Group_3373" data-name="Group 3373" transform="translate(5.37 7.279)">
    <path id="Path_595" data-name="Path 595" d="M39.084,35.373a5.723,5.723,0,0,1-1.648.451A2.876,2.876,0,0,0,38.7,34.238a5.742,5.742,0,0,1-1.821.7,2.871,2.871,0,0,0-4.888,2.617,8.142,8.142,0,0,1-5.912-3,2.871,2.871,0,0,0,.888,3.83,2.848,2.848,0,0,1-1.3-.359c0,.012,0,.024,0,.036a2.87,2.87,0,0,0,2.3,2.812,2.879,2.879,0,0,1-1.3.05,2.871,2.871,0,0,0,2.679,1.992A5.79,5.79,0,0,1,25.1,44.1a8.157,8.157,0,0,0,12.558-6.873c0-.124,0-.248-.008-.371a5.817,5.817,0,0,0,1.431-1.485Z" transform="translate(-25.103 -34.028)" fill="#f1f2f2"/>
  </g>
</svg>
