<svg xmlns="http://www.w3.org/2000/svg" width="95.998" height="95.999" viewBox="0 0 95.998 95.999">
  <g id="Group_16263" data-name="Group 16263" transform="translate(-742 -2660)">
    <g id="Group_14429" data-name="Group 14429" transform="translate(742 2660)">
      <g id="_055-protected" data-name="055-protected" transform="translate(0 0)">
        <g id="Rectangle_6872" data-name="Rectangle 6872" transform="translate(0.365 0.366)" fill="#fff" stroke="#707070" stroke-width="1" opacity="0">
          <rect width="95.267" height="95.267" stroke="none"/>
          <rect x="0.5" y="0.5" width="94.267" height="94.267" fill="none"/>
        </g>
        <g id="Group_13992" data-name="Group 13992" transform="translate(0 25.337)">
          <path id="Path_14041" data-name="Path 14041" d="M66.174,76.662H62.163a5.96,5.96,0,0,1-6.016-5.889V68.81H36.095v1.963a5.96,5.96,0,0,1-6.016,5.889H26.069a5.96,5.96,0,0,1-6.016-5.889v-6A25.237,25.237,0,0,1,8.747,49.182H6.016A5.96,5.96,0,0,1,0,43.293V35.442a5.96,5.96,0,0,1,6.016-5.889h6.12a25.253,25.253,0,0,1,3.529-4.295,25.618,25.618,0,0,1,4.388-3.451V7.962a1.936,1.936,0,0,1,.7-1.488,2.05,2.05,0,0,1,1.608-.451c8.875,1.319,14.065,5.272,15.457,11.754h4.3a1.963,1.963,0,1,1,0,3.926H36.095A1.983,1.983,0,0,1,34.1,19.939c-.521-5.017-3.814-8.173-10.038-9.606V22.919a1.963,1.963,0,0,1-1.019,1.712A21.146,21.146,0,0,0,18.5,28.038a20.524,20.524,0,0,0-3.485,4.448,2.017,2.017,0,0,1-1.741.993H6.016a1.988,1.988,0,0,0-2.005,1.963v7.851a1.988,1.988,0,0,0,2.005,1.963h4.371a1.991,1.991,0,0,1,1.977,1.637A21.36,21.36,0,0,0,23.053,61.96a1.966,1.966,0,0,1,1.011,1.708v7.106a1.988,1.988,0,0,0,2.005,1.963h4.011a1.988,1.988,0,0,0,2.005-1.963V66.848a1.985,1.985,0,0,1,2.005-1.963H58.153a1.985,1.985,0,0,1,2.005,1.963v3.926a1.988,1.988,0,0,0,2.005,1.963h4.011a1.988,1.988,0,0,0,2.005-1.963V63.668A1.963,1.963,0,0,1,69.2,61.956,21.489,21.489,0,0,0,80.175,43.662,1.838,1.838,0,0,1,82.2,41.723a1.981,1.981,0,0,1,1.981,1.986,24.828,24.828,0,0,1-7.612,17.623,25.423,25.423,0,0,1-4.38,3.447v5.995A5.967,5.967,0,0,1,66.174,76.662Z" transform="translate(0 -6)" fill="#e27e28"/>
        </g>
        <g id="Group_13993" data-name="Group 13993" transform="translate(80.295 52.138)">
          <path id="Path_14042" data-name="Path 14042" d="M29.814,24.777H21.963a1.963,1.963,0,1,1,0-3.926h7.851a1.963,1.963,0,0,0,0-3.926,1.963,1.963,0,1,1,0-3.926,5.889,5.889,0,0,1,0,11.777Z" transform="translate(-20 -13)" fill="#e27e28"/>
        </g>
        <g id="Group_13994" data-name="Group 13994" transform="translate(48.889)">
          <path id="Path_14043" data-name="Path 14043" d="M35.554,54.961a1.9,1.9,0,0,1-.762-.157C33.858,54.415,12,44.966,12,25.659V9.254a1.969,1.969,0,0,1,1.335-1.861L34.926.1a1.966,1.966,0,0,1,1.256,0l21.591,7.29a1.969,1.969,0,0,1,1.335,1.861V25.659c0,19.307-21.858,28.756-22.793,29.148A1.969,1.969,0,0,1,35.554,54.961Zm-19.629-44.3v15c0,14.859,15.919,23.389,19.629,25.18,3.706-1.794,19.629-10.356,19.629-25.18v-15L35.554,4.036Z" transform="translate(-12 0)" fill="#e27e28"/>
        </g>
        <g id="Group_13995" data-name="Group 13995" transform="translate(60.668 18.077)">
          <path id="Path_14044" data-name="Path 14044" d="M24.813,22.166a.921.921,0,0,1-.106,0,1.962,1.962,0,0,1-1.425-.734L15.43,11.614A1.963,1.963,0,1,1,18.5,9.161l6.477,8.1L37.163,5.074a1.963,1.963,0,0,1,2.775,2.775L26.2,21.589a1.939,1.939,0,0,1-1.386.577Z" transform="translate(-15 -4.5)" fill="#e27e28"/>
        </g>
      </g>
    </g>
  </g>
</svg>
