<svg xmlns="http://www.w3.org/2000/svg" width="40" height="40" viewBox="0 0 40 40">
  <g id="whatsapp_icon" transform="translate(-768.913 -3780)">
    <rect id="Rectangle_1104" data-name="Rectangle 1104" width="40" height="40" transform="translate(768.913 3780)" fill="none"/>
    <g id="_005-whatsapp" data-name="005-whatsapp" transform="translate(773.989 3784.989)">
      <path id="Path_596" data-name="Path 596" d="M15.811.018a14.852,14.852,0,0,0-12.5,21.571L1.73,29.24a.578.578,0,0,0,.7.679l7.5-1.776A14.848,14.848,0,1,0,15.811.018Zm8.946,23.049a11.632,11.632,0,0,1-13.394,2.192l-1.044-.52-4.6,1.089.968-4.7-.514-1.007a11.635,11.635,0,0,1,2.141-13.5,11.625,11.625,0,1,1,16.44,16.44Z" transform="translate(-1.69 0)" fill="#3dcb6e"/>
      <path id="Path_597" data-name="Path 597" d="M119.266,117.793l-2.876-.826a1.072,1.072,0,0,0-1.061.279l-.7.716a1.048,1.048,0,0,1-1.139.24,15.352,15.352,0,0,1-4.953-4.368,1.048,1.048,0,0,1,.083-1.161l.614-.794a1.072,1.072,0,0,0,.132-1.089l-1.21-2.736a1.072,1.072,0,0,0-1.675-.383,4.837,4.837,0,0,0-1.871,2.853c-.2,2.015.66,4.555,3.928,7.6,3.775,3.523,6.8,3.989,8.766,3.512a4.837,4.837,0,0,0,2.572-2.242A1.072,1.072,0,0,0,119.266,117.793Z" transform="translate(-97.214 -99.727)" fill="#3dcb6e"/>
    </g>
  </g>
</svg>
